<svg width="150" height="320" viewBox="0 0 150 320" fill="none" xmlns="http://www.w3.org/2000/svg">
<path d="M128.7 46V44.54H132.7V33.28H132.56L129.04 36.56L128.06 35.5L131.76 32.04H134.38V44.54H138.06V46H128.7Z" fill="black"/>
<path d="M101.24 38.56V37.2H110.76V38.56H101.24ZM101.24 42.56V41.2H110.76V42.56H101.24Z" fill="black"/>
<path d="M101.24 100.56V99.2H110.76V100.56H101.24ZM101.24 104.56V103.2H110.76V104.56H101.24Z" fill="black"/>
<path d="M101.24 162.56V161.2H110.76V162.56H101.24ZM101.24 166.56V165.2H110.76V166.56H101.24Z" fill="black"/>
<path d="M101.24 222.56V221.2H110.76V222.56H101.24ZM101.24 226.56V225.2H110.76V226.56H101.24Z" fill="black"/>
<path d="M101.24 282.56V281.2H110.76V282.56H101.24ZM101.24 286.56V285.2H110.76V286.56H101.24Z" fill="black"/>
<path d="M14.0391 46.24C13.1857 46.24 12.4524 46.08 11.8391 45.76C11.2257 45.4267 10.7191 44.9533 10.3191 44.34C9.91906 43.7267 9.62573 42.9733 9.43906 42.08C9.2524 41.1867 9.15906 40.1667 9.15906 39.02C9.15906 37.8867 9.2524 36.8733 9.43906 35.98C9.62573 35.0733 9.91906 34.3133 10.3191 33.7C10.7191 33.0867 11.2257 32.62 11.8391 32.3C12.4524 31.9667 13.1857 31.8 14.0391 31.8C14.8924 31.8 15.6257 31.9667 16.2391 32.3C16.8524 32.62 17.3591 33.0867 17.7591 33.7C18.1591 34.3133 18.4524 35.0733 18.6391 35.98C18.8257 36.8733 18.9191 37.8867 18.9191 39.02C18.9191 40.1667 18.8257 41.1867 18.6391 42.08C18.4524 42.9733 18.1591 43.7267 17.7591 44.34C17.3591 44.9533 16.8524 45.4267 16.2391 45.76C15.6257 46.08 14.8924 46.24 14.0391 46.24ZM14.0391 44.78C14.5991 44.78 15.0791 44.6733 15.4791 44.46C15.8791 44.2333 16.1991 43.92 16.4391 43.52C16.6924 43.12 16.8791 42.64 16.9991 42.08C17.1191 41.5067 17.1791 40.8667 17.1791 40.16V37.88C17.1791 37.1867 17.1191 36.5533 16.9991 35.98C16.8791 35.4067 16.6924 34.92 16.4391 34.52C16.1991 34.12 15.8791 33.8133 15.4791 33.6C15.0791 33.3733 14.5991 33.26 14.0391 33.26C13.4791 33.26 12.9991 33.3733 12.5991 33.6C12.1991 33.8133 11.8724 34.12 11.6191 34.52C11.3791 34.92 11.1991 35.4067 11.0791 35.98C10.9591 36.5533 10.8991 37.1867 10.8991 37.88V40.16C10.8991 40.8667 10.9591 41.5067 11.0791 42.08C11.1991 42.64 11.3791 43.12 11.6191 43.52C11.8724 43.92 12.1991 44.2333 12.5991 44.46C12.9991 44.6733 13.4791 44.78 14.0391 44.78ZM14.0391 40.2C13.5724 40.2 13.2457 40.1067 13.0591 39.92C12.8857 39.7333 12.7991 39.5067 12.7991 39.24V38.8C12.7991 38.5333 12.8857 38.3067 13.0591 38.12C13.2457 37.9333 13.5724 37.84 14.0391 37.84C14.5057 37.84 14.8257 37.9333 14.9991 38.12C15.1857 38.3067 15.2791 38.5333 15.2791 38.8V39.24C15.2791 39.5067 15.1857 39.7333 14.9991 39.92C14.8257 40.1067 14.5057 40.2 14.0391 40.2ZM30.0313 46.24C29.1779 46.24 28.4446 46.08 27.8313 45.76C27.2179 45.4267 26.7113 44.9533 26.3113 44.34C25.9113 43.7267 25.6179 42.9733 25.4313 42.08C25.2446 41.1867 25.1513 40.1667 25.1513 39.02C25.1513 37.8867 25.2446 36.8733 25.4313 35.98C25.6179 35.0733 25.9113 34.3133 26.3113 33.7C26.7113 33.0867 27.2179 32.62 27.8313 32.3C28.4446 31.9667 29.1779 31.8 30.0313 31.8C30.8846 31.8 31.6179 31.9667 32.2313 32.3C32.8446 32.62 33.3513 33.0867 33.7513 33.7C34.1513 34.3133 34.4446 35.0733 34.6313 35.98C34.8179 36.8733 34.9113 37.8867 34.9113 39.02C34.9113 40.1667 34.8179 41.1867 34.6313 42.08C34.4446 42.9733 34.1513 43.7267 33.7513 44.34C33.3513 44.9533 32.8446 45.4267 32.2313 45.76C31.6179 46.08 30.8846 46.24 30.0313 46.24ZM30.0313 44.78C30.5913 44.78 31.0713 44.6733 31.4713 44.46C31.8713 44.2333 32.1913 43.92 32.4313 43.52C32.6846 43.12 32.8713 42.64 32.9913 42.08C33.1113 41.5067 33.1713 40.8667 33.1713 40.16V37.88C33.1713 37.1867 33.1113 36.5533 32.9913 35.98C32.8713 35.4067 32.6846 34.92 32.4313 34.52C32.1913 34.12 31.8713 33.8133 31.4713 33.6C31.0713 33.3733 30.5913 33.26 30.0313 33.26C29.4713 33.26 28.9913 33.3733 28.5913 33.6C28.1913 33.8133 27.8646 34.12 27.6113 34.52C27.3713 34.92 27.1913 35.4067 27.0713 35.98C26.9513 36.5533 26.8913 37.1867 26.8913 37.88V40.16C26.8913 40.8667 26.9513 41.5067 27.0713 42.08C27.1913 42.64 27.3713 43.12 27.6113 43.52C27.8646 43.92 28.1913 44.2333 28.5913 44.46C28.9913 44.6733 29.4713 44.78 30.0313 44.78ZM30.0313 40.2C29.5646 40.2 29.2379 40.1067 29.0513 39.92C28.8779 39.7333 28.7913 39.5067 28.7913 39.24V38.8C28.7913 38.5333 28.8779 38.3067 29.0513 38.12C29.2379 37.9333 29.5646 37.84 30.0313 37.84C30.4979 37.84 30.8179 37.9333 30.9913 38.12C31.1779 38.3067 31.2713 38.5333 31.2713 38.8V39.24C31.2713 39.5067 31.1779 39.7333 30.9913 39.92C30.8179 40.1067 30.4979 40.2 30.0313 40.2ZM46.0234 46.24C45.1701 46.24 44.4368 46.08 43.8234 45.76C43.2101 45.4267 42.7034 44.9533 42.3034 44.34C41.9034 43.7267 41.6101 42.9733 41.4234 42.08C41.2368 41.1867 41.1434 40.1667 41.1434 39.02C41.1434 37.8867 41.2368 36.8733 41.4234 35.98C41.6101 35.0733 41.9034 34.3133 42.3034 33.7C42.7034 33.0867 43.2101 32.62 43.8234 32.3C44.4368 31.9667 45.1701 31.8 46.0234 31.8C46.8768 31.8 47.6101 31.9667 48.2234 32.3C48.8368 32.62 49.3434 33.0867 49.7434 33.7C50.1434 34.3133 50.4368 35.0733 50.6234 35.98C50.8101 36.8733 50.9034 37.8867 50.9034 39.02C50.9034 40.1667 50.8101 41.1867 50.6234 42.08C50.4368 42.9733 50.1434 43.7267 49.7434 44.34C49.3434 44.9533 48.8368 45.4267 48.2234 45.76C47.6101 46.08 46.8768 46.24 46.0234 46.24ZM46.0234 44.78C46.5834 44.78 47.0634 44.6733 47.4634 44.46C47.8634 44.2333 48.1834 43.92 48.4234 43.52C48.6768 43.12 48.8634 42.64 48.9834 42.08C49.1034 41.5067 49.1634 40.8667 49.1634 40.16V37.88C49.1634 37.1867 49.1034 36.5533 48.9834 35.98C48.8634 35.4067 48.6768 34.92 48.4234 34.52C48.1834 34.12 47.8634 33.8133 47.4634 33.6C47.0634 33.3733 46.5834 33.26 46.0234 33.26C45.4634 33.26 44.9834 33.3733 44.5834 33.6C44.1834 33.8133 43.8568 34.12 43.6034 34.52C43.3634 34.92 43.1834 35.4067 43.0634 35.98C42.9434 36.5533 42.8834 37.1867 42.8834 37.88V40.16C42.8834 40.8667 42.9434 41.5067 43.0634 42.08C43.1834 42.64 43.3634 43.12 43.6034 43.52C43.8568 43.92 44.1834 44.2333 44.5834 44.46C44.9834 44.6733 45.4634 44.78 46.0234 44.78ZM46.0234 40.2C45.5568 40.2 45.2301 40.1067 45.0434 39.92C44.8701 39.7333 44.7834 39.5067 44.7834 39.24V38.8C44.7834 38.5333 44.8701 38.3067 45.0434 38.12C45.2301 37.9333 45.5568 37.84 46.0234 37.84C46.4901 37.84 46.8101 37.9333 46.9834 38.12C47.1701 38.3067 47.2634 38.5333 47.2634 38.8V39.24C47.2634 39.5067 47.1701 39.7333 46.9834 39.92C46.8101 40.1067 46.4901 40.2 46.0234 40.2ZM62.0156 46.24C61.1623 46.24 60.429 46.08 59.8156 45.76C59.2023 45.4267 58.6956 44.9533 58.2956 44.34C57.8956 43.7267 57.6023 42.9733 57.4156 42.08C57.229 41.1867 57.1356 40.1667 57.1356 39.02C57.1356 37.8867 57.229 36.8733 57.4156 35.98C57.6023 35.0733 57.8956 34.3133 58.2956 33.7C58.6956 33.0867 59.2023 32.62 59.8156 32.3C60.429 31.9667 61.1623 31.8 62.0156 31.8C62.869 31.8 63.6023 31.9667 64.2156 32.3C64.829 32.62 65.3356 33.0867 65.7356 33.7C66.1356 34.3133 66.429 35.0733 66.6156 35.98C66.8023 36.8733 66.8956 37.8867 66.8956 39.02C66.8956 40.1667 66.8023 41.1867 66.6156 42.08C66.429 42.9733 66.1356 43.7267 65.7356 44.34C65.3356 44.9533 64.829 45.4267 64.2156 45.76C63.6023 46.08 62.869 46.24 62.0156 46.24ZM62.0156 44.78C62.5756 44.78 63.0556 44.6733 63.4556 44.46C63.8556 44.2333 64.1756 43.92 64.4156 43.52C64.669 43.12 64.8556 42.64 64.9756 42.08C65.0956 41.5067 65.1556 40.8667 65.1556 40.16V37.88C65.1556 37.1867 65.0956 36.5533 64.9756 35.98C64.8556 35.4067 64.669 34.92 64.4156 34.52C64.1756 34.12 63.8556 33.8133 63.4556 33.6C63.0556 33.3733 62.5756 33.26 62.0156 33.26C61.4556 33.26 60.9756 33.3733 60.5756 33.6C60.1756 33.8133 59.849 34.12 59.5956 34.52C59.3556 34.92 59.1756 35.4067 59.0556 35.98C58.9356 36.5533 58.8756 37.1867 58.8756 37.88V40.16C58.8756 40.8667 58.9356 41.5067 59.0556 42.08C59.1756 42.64 59.3556 43.12 59.5956 43.52C59.849 43.92 60.1756 44.2333 60.5756 44.46C60.9756 44.6733 61.4556 44.78 62.0156 44.78ZM62.0156 40.2C61.549 40.2 61.2223 40.1067 61.0356 39.92C60.8623 39.7333 60.7756 39.5067 60.7756 39.24V38.8C60.7756 38.5333 60.8623 38.3067 61.0356 38.12C61.2223 37.9333 61.549 37.84 62.0156 37.84C62.4823 37.84 62.8023 37.9333 62.9756 38.12C63.1623 38.3067 63.2556 38.5333 63.2556 38.8V39.24C63.2556 39.5067 63.1623 39.7333 62.9756 39.92C62.8023 40.1067 62.4823 40.2 62.0156 40.2ZM73.7078 46V44.54H77.7078V33.28H77.5678L74.0478 36.56L73.0678 35.5L76.7678 32.04H79.3878V44.54H83.0678V46H73.7078Z" fill="black"/>
<path d="M128.7 108V106.54H132.7V95.28H132.56L129.04 98.56L128.06 97.5L131.76 94.04H134.38V106.54H138.06V108H128.7Z" fill="black"/>
<path d="M14.0391 108.24C13.1857 108.24 12.4524 108.08 11.8391 107.76C11.2257 107.427 10.7191 106.953 10.3191 106.34C9.91906 105.727 9.62573 104.973 9.43906 104.08C9.2524 103.187 9.15906 102.167 9.15906 101.02C9.15906 99.8867 9.2524 98.8733 9.43906 97.98C9.62573 97.0733 9.91906 96.3133 10.3191 95.7C10.7191 95.0867 11.2257 94.62 11.8391 94.3C12.4524 93.9667 13.1857 93.8 14.0391 93.8C14.8924 93.8 15.6257 93.9667 16.2391 94.3C16.8524 94.62 17.3591 95.0867 17.7591 95.7C18.1591 96.3133 18.4524 97.0733 18.6391 97.98C18.8257 98.8733 18.9191 99.8867 18.9191 101.02C18.9191 102.167 18.8257 103.187 18.6391 104.08C18.4524 104.973 18.1591 105.727 17.7591 106.34C17.3591 106.953 16.8524 107.427 16.2391 107.76C15.6257 108.08 14.8924 108.24 14.0391 108.24ZM14.0391 106.78C14.5991 106.78 15.0791 106.673 15.4791 106.46C15.8791 106.233 16.1991 105.92 16.4391 105.52C16.6924 105.12 16.8791 104.64 16.9991 104.08C17.1191 103.507 17.1791 102.867 17.1791 102.16V99.88C17.1791 99.1867 17.1191 98.5533 16.9991 97.98C16.8791 97.4067 16.6924 96.92 16.4391 96.52C16.1991 96.12 15.8791 95.8133 15.4791 95.6C15.0791 95.3733 14.5991 95.26 14.0391 95.26C13.4791 95.26 12.9991 95.3733 12.5991 95.6C12.1991 95.8133 11.8724 96.12 11.6191 96.52C11.3791 96.92 11.1991 97.4067 11.0791 97.98C10.9591 98.5533 10.8991 99.1867 10.8991 99.88V102.16C10.8991 102.867 10.9591 103.507 11.0791 104.08C11.1991 104.64 11.3791 105.12 11.6191 105.52C11.8724 105.92 12.1991 106.233 12.5991 106.46C12.9991 106.673 13.4791 106.78 14.0391 106.78ZM14.0391 102.2C13.5724 102.2 13.2457 102.107 13.0591 101.92C12.8857 101.733 12.7991 101.507 12.7991 101.24V100.8C12.7991 100.533 12.8857 100.307 13.0591 100.12C13.2457 99.9333 13.5724 99.84 14.0391 99.84C14.5057 99.84 14.8257 99.9333 14.9991 100.12C15.1857 100.307 15.2791 100.533 15.2791 100.8V101.24C15.2791 101.507 15.1857 101.733 14.9991 101.92C14.8257 102.107 14.5057 102.2 14.0391 102.2ZM30.0313 108.24C29.1779 108.24 28.4446 108.08 27.8313 107.76C27.2179 107.427 26.7113 106.953 26.3113 106.34C25.9113 105.727 25.6179 104.973 25.4313 104.08C25.2446 103.187 25.1513 102.167 25.1513 101.02C25.1513 99.8867 25.2446 98.8733 25.4313 97.98C25.6179 97.0733 25.9113 96.3133 26.3113 95.7C26.7113 95.0867 27.2179 94.62 27.8313 94.3C28.4446 93.9667 29.1779 93.8 30.0313 93.8C30.8846 93.8 31.6179 93.9667 32.2313 94.3C32.8446 94.62 33.3513 95.0867 33.7513 95.7C34.1513 96.3133 34.4446 97.0733 34.6313 97.98C34.8179 98.8733 34.9113 99.8867 34.9113 101.02C34.9113 102.167 34.8179 103.187 34.6313 104.08C34.4446 104.973 34.1513 105.727 33.7513 106.34C33.3513 106.953 32.8446 107.427 32.2313 107.76C31.6179 108.08 30.8846 108.24 30.0313 108.24ZM30.0313 106.78C30.5913 106.78 31.0713 106.673 31.4713 106.46C31.8713 106.233 32.1913 105.92 32.4313 105.52C32.6846 105.12 32.8713 104.64 32.9913 104.08C33.1113 103.507 33.1713 102.867 33.1713 102.16V99.88C33.1713 99.1867 33.1113 98.5533 32.9913 97.98C32.8713 97.4067 32.6846 96.92 32.4313 96.52C32.1913 96.12 31.8713 95.8133 31.4713 95.6C31.0713 95.3733 30.5913 95.26 30.0313 95.26C29.4713 95.26 28.9913 95.3733 28.5913 95.6C28.1913 95.8133 27.8646 96.12 27.6113 96.52C27.3713 96.92 27.1913 97.4067 27.0713 97.98C26.9513 98.5533 26.8913 99.1867 26.8913 99.88V102.16C26.8913 102.867 26.9513 103.507 27.0713 104.08C27.1913 104.64 27.3713 105.12 27.6113 105.52C27.8646 105.92 28.1913 106.233 28.5913 106.46C28.9913 106.673 29.4713 106.78 30.0313 106.78ZM30.0313 102.2C29.5646 102.2 29.2379 102.107 29.0513 101.92C28.8779 101.733 28.7913 101.507 28.7913 101.24V100.8C28.7913 100.533 28.8779 100.307 29.0513 100.12C29.2379 99.9333 29.5646 99.84 30.0313 99.84C30.4979 99.84 30.8179 99.9333 30.9913 100.12C31.1779 100.307 31.2713 100.533 31.2713 100.8V101.24C31.2713 101.507 31.1779 101.733 30.9913 101.92C30.8179 102.107 30.4979 102.2 30.0313 102.2ZM46.0234 108.24C45.1701 108.24 44.4368 108.08 43.8234 107.76C43.2101 107.427 42.7034 106.953 42.3034 106.34C41.9034 105.727 41.6101 104.973 41.4234 104.08C41.2368 103.187 41.1434 102.167 41.1434 101.02C41.1434 99.8867 41.2368 98.8733 41.4234 97.98C41.6101 97.0733 41.9034 96.3133 42.3034 95.7C42.7034 95.0867 43.2101 94.62 43.8234 94.3C44.4368 93.9667 45.1701 93.8 46.0234 93.8C46.8768 93.8 47.6101 93.9667 48.2234 94.3C48.8368 94.62 49.3434 95.0867 49.7434 95.7C50.1434 96.3133 50.4368 97.0733 50.6234 97.98C50.8101 98.8733 50.9034 99.8867 50.9034 101.02C50.9034 102.167 50.8101 103.187 50.6234 104.08C50.4368 104.973 50.1434 105.727 49.7434 106.34C49.3434 106.953 48.8368 107.427 48.2234 107.76C47.6101 108.08 46.8768 108.24 46.0234 108.24ZM46.0234 106.78C46.5834 106.78 47.0634 106.673 47.4634 106.46C47.8634 106.233 48.1834 105.92 48.4234 105.52C48.6768 105.12 48.8634 104.64 48.9834 104.08C49.1034 103.507 49.1634 102.867 49.1634 102.16V99.88C49.1634 99.1867 49.1034 98.5533 48.9834 97.98C48.8634 97.4067 48.6768 96.92 48.4234 96.52C48.1834 96.12 47.8634 95.8133 47.4634 95.6C47.0634 95.3733 46.5834 95.26 46.0234 95.26C45.4634 95.26 44.9834 95.3733 44.5834 95.6C44.1834 95.8133 43.8568 96.12 43.6034 96.52C43.3634 96.92 43.1834 97.4067 43.0634 97.98C42.9434 98.5533 42.8834 99.1867 42.8834 99.88V102.16C42.8834 102.867 42.9434 103.507 43.0634 104.08C43.1834 104.64 43.3634 105.12 43.6034 105.52C43.8568 105.92 44.1834 106.233 44.5834 106.46C44.9834 106.673 45.4634 106.78 46.0234 106.78ZM46.0234 102.2C45.5568 102.2 45.2301 102.107 45.0434 101.92C44.8701 101.733 44.7834 101.507 44.7834 101.24V100.8C44.7834 100.533 44.8701 100.307 45.0434 100.12C45.2301 99.9333 45.5568 99.84 46.0234 99.84C46.4901 99.84 46.8101 99.9333 46.9834 100.12C47.1701 100.307 47.2634 100.533 47.2634 100.8V101.24C47.2634 101.507 47.1701 101.733 46.9834 101.92C46.8101 102.107 46.4901 102.2 46.0234 102.2ZM62.0156 108.24C61.1623 108.24 60.429 108.08 59.8156 107.76C59.2023 107.427 58.6956 106.953 58.2956 106.34C57.8956 105.727 57.6023 104.973 57.4156 104.08C57.229 103.187 57.1356 102.167 57.1356 101.02C57.1356 99.8867 57.229 98.8733 57.4156 97.98C57.6023 97.0733 57.8956 96.3133 58.2956 95.7C58.6956 95.0867 59.2023 94.62 59.8156 94.3C60.429 93.9667 61.1623 93.8 62.0156 93.8C62.869 93.8 63.6023 93.9667 64.2156 94.3C64.829 94.62 65.3356 95.0867 65.7356 95.7C66.1356 96.3133 66.429 97.0733 66.6156 97.98C66.8023 98.8733 66.8956 99.8867 66.8956 101.02C66.8956 102.167 66.8023 103.187 66.6156 104.08C66.429 104.973 66.1356 105.727 65.7356 106.34C65.3356 106.953 64.829 107.427 64.2156 107.76C63.6023 108.08 62.869 108.24 62.0156 108.24ZM62.0156 106.78C62.5756 106.78 63.0556 106.673 63.4556 106.46C63.8556 106.233 64.1756 105.92 64.4156 105.52C64.669 105.12 64.8556 104.64 64.9756 104.08C65.0956 103.507 65.1556 102.867 65.1556 102.16V99.88C65.1556 99.1867 65.0956 98.5533 64.9756 97.98C64.8556 97.4067 64.669 96.92 64.4156 96.52C64.1756 96.12 63.8556 95.8133 63.4556 95.6C63.0556 95.3733 62.5756 95.26 62.0156 95.26C61.4556 95.26 60.9756 95.3733 60.5756 95.6C60.1756 95.8133 59.849 96.12 59.5956 96.52C59.3556 96.92 59.1756 97.4067 59.0556 97.98C58.9356 98.5533 58.8756 99.1867 58.8756 99.88V102.16C58.8756 102.867 58.9356 103.507 59.0556 104.08C59.1756 104.64 59.3556 105.12 59.5956 105.52C59.849 105.92 60.1756 106.233 60.5756 106.46C60.9756 106.673 61.4556 106.78 62.0156 106.78ZM62.0156 102.2C61.549 102.2 61.2223 102.107 61.0356 101.92C60.8623 101.733 60.7756 101.507 60.7756 101.24V100.8C60.7756 100.533 60.8623 100.307 61.0356 100.12C61.2223 99.9333 61.549 99.84 62.0156 99.84C62.4823 99.84 62.8023 99.9333 62.9756 100.12C63.1623 100.307 63.2556 100.533 63.2556 100.8V101.24C63.2556 101.507 63.1623 101.733 62.9756 101.92C62.8023 102.107 62.4823 102.2 62.0156 102.2ZM73.7078 108V106.54H77.7078V95.28H77.5678L74.0478 98.56L73.0678 97.5L76.7678 94.04H79.3878V106.54H83.0678V108H73.7078Z" fill="black"/>
<path d="M62.3466 91.3681C62.5499 91.729 63.0073 91.8567 63.3681 91.6534L69.249 88.3402C69.6099 88.1369 69.7376 87.6795 69.5343 87.3186C69.331 86.9577 68.8736 86.83 68.5127 87.0333L63.2853 89.9784L60.3402 84.751C60.1369 84.3901 59.6795 84.2624 59.3186 84.4657C58.9577 84.669 58.83 85.1264 59.0333 85.4873L62.3466 91.3681ZM79.7179 90.7828C78.5461 86.9097 77.2296 83.872 75.8163 81.7657C74.4225 79.6884 72.8227 78.3564 71.0422 78.2561C69.2289 78.1539 67.5965 79.3418 66.1876 81.4C64.7657 83.4771 63.4485 86.6058 62.2776 90.7983L63.7224 91.2017C64.8741 87.0776 66.1375 84.1287 67.4253 82.2474C68.726 80.3473 69.9324 79.6959 70.9578 79.7537C72.016 79.8133 73.2549 80.6404 74.5708 82.6015C75.8672 84.5336 77.1314 87.4135 78.2821 91.2172L79.7179 90.7828Z" fill="#5158F6"/>
<path d="M132.4 221.96C133.373 221.96 134.1 221.747 134.58 221.32C135.073 220.88 135.32 220.32 135.32 219.64V219.5C135.32 218.753 135.08 218.193 134.6 217.82C134.133 217.447 133.52 217.26 132.76 217.26C132.013 217.26 131.407 217.427 130.94 217.76C130.487 218.08 130.113 218.507 129.82 219.04L128.56 218.08C128.733 217.8 128.947 217.527 129.2 217.26C129.453 216.98 129.747 216.733 130.08 216.52C130.427 216.307 130.82 216.133 131.26 216C131.713 215.867 132.227 215.8 132.8 215.8C133.4 215.8 133.96 215.88 134.48 216.04C135 216.187 135.453 216.413 135.84 216.72C136.227 217.013 136.527 217.38 136.74 217.82C136.967 218.26 137.08 218.76 137.08 219.32C137.08 219.773 137.007 220.18 136.86 220.54C136.727 220.9 136.533 221.213 136.28 221.48C136.04 221.747 135.753 221.973 135.42 222.16C135.087 222.347 134.733 222.487 134.36 222.58V222.66C134.747 222.74 135.12 222.873 135.48 223.06C135.84 223.233 136.16 223.467 136.44 223.76C136.72 224.04 136.94 224.387 137.1 224.8C137.273 225.2 137.36 225.66 137.36 226.18C137.36 226.78 137.24 227.333 137 227.84C136.773 228.333 136.447 228.76 136.02 229.12C135.607 229.467 135.1 229.74 134.5 229.94C133.913 230.14 133.26 230.24 132.54 230.24C131.927 230.24 131.38 230.173 130.9 230.04C130.433 229.907 130.013 229.727 129.64 229.5C129.28 229.273 128.96 229.02 128.68 228.74C128.413 228.46 128.173 228.167 127.96 227.86L129.22 226.9C129.407 227.18 129.6 227.433 129.8 227.66C130 227.887 130.227 228.087 130.48 228.26C130.747 228.42 131.047 228.547 131.38 228.64C131.713 228.733 132.1 228.78 132.54 228.78C133.527 228.78 134.28 228.553 134.8 228.1C135.333 227.647 135.6 227 135.6 226.16V226C135.6 225.173 135.34 224.533 134.82 224.08C134.313 223.627 133.547 223.4 132.52 223.4H130.86V221.96H132.4Z" fill="black"/>
<path d="M137.74 170H128.42V168.28L133.08 164.08C133.76 163.467 134.32 162.84 134.76 162.2C135.2 161.547 135.42 160.86 135.42 160.14V159.9C135.42 159.06 135.2 158.413 134.76 157.96C134.32 157.493 133.667 157.26 132.8 157.26C131.947 157.26 131.287 157.48 130.82 157.92C130.367 158.347 130.027 158.92 129.8 159.64L128.3 159.08C128.433 158.667 128.613 158.267 128.84 157.88C129.08 157.48 129.38 157.127 129.74 156.82C130.1 156.513 130.533 156.267 131.04 156.08C131.56 155.893 132.16 155.8 132.84 155.8C133.533 155.8 134.147 155.9 134.68 156.1C135.227 156.3 135.68 156.58 136.04 156.94C136.413 157.3 136.693 157.727 136.88 158.22C137.08 158.713 137.18 159.253 137.18 159.84C137.18 160.373 137.1 160.873 136.94 161.34C136.793 161.807 136.58 162.253 136.3 162.68C136.033 163.107 135.707 163.527 135.32 163.94C134.947 164.34 134.527 164.74 134.06 165.14L130.16 168.54H137.74V170Z" fill="black"/>
<path d="M14.0391 230.24C13.1857 230.24 12.4524 230.08 11.8391 229.76C11.2257 229.427 10.7191 228.953 10.3191 228.34C9.91906 227.727 9.62573 226.973 9.43906 226.08C9.2524 225.187 9.15906 224.167 9.15906 223.02C9.15906 221.887 9.2524 220.873 9.43906 219.98C9.62573 219.073 9.91906 218.313 10.3191 217.7C10.7191 217.087 11.2257 216.62 11.8391 216.3C12.4524 215.967 13.1857 215.8 14.0391 215.8C14.8924 215.8 15.6257 215.967 16.2391 216.3C16.8524 216.62 17.3591 217.087 17.7591 217.7C18.1591 218.313 18.4524 219.073 18.6391 219.98C18.8257 220.873 18.9191 221.887 18.9191 223.02C18.9191 224.167 18.8257 225.187 18.6391 226.08C18.4524 226.973 18.1591 227.727 17.7591 228.34C17.3591 228.953 16.8524 229.427 16.2391 229.76C15.6257 230.08 14.8924 230.24 14.0391 230.24ZM14.0391 228.78C14.5991 228.78 15.0791 228.673 15.4791 228.46C15.8791 228.233 16.1991 227.92 16.4391 227.52C16.6924 227.12 16.8791 226.64 16.9991 226.08C17.1191 225.507 17.1791 224.867 17.1791 224.16V221.88C17.1791 221.187 17.1191 220.553 16.9991 219.98C16.8791 219.407 16.6924 218.92 16.4391 218.52C16.1991 218.12 15.8791 217.813 15.4791 217.6C15.0791 217.373 14.5991 217.26 14.0391 217.26C13.4791 217.26 12.9991 217.373 12.5991 217.6C12.1991 217.813 11.8724 218.12 11.6191 218.52C11.3791 218.92 11.1991 219.407 11.0791 219.98C10.9591 220.553 10.8991 221.187 10.8991 221.88V224.16C10.8991 224.867 10.9591 225.507 11.0791 226.08C11.1991 226.64 11.3791 227.12 11.6191 227.52C11.8724 227.92 12.1991 228.233 12.5991 228.46C12.9991 228.673 13.4791 228.78 14.0391 228.78ZM14.0391 224.2C13.5724 224.2 13.2457 224.107 13.0591 223.92C12.8857 223.733 12.7991 223.507 12.7991 223.24V222.8C12.7991 222.533 12.8857 222.307 13.0591 222.12C13.2457 221.933 13.5724 221.84 14.0391 221.84C14.5057 221.84 14.8257 221.933 14.9991 222.12C15.1857 222.307 15.2791 222.533 15.2791 222.8V223.24C15.2791 223.507 15.1857 223.733 14.9991 223.92C14.8257 224.107 14.5057 224.2 14.0391 224.2ZM30.0313 230.24C29.1779 230.24 28.4446 230.08 27.8313 229.76C27.2179 229.427 26.7113 228.953 26.3113 228.34C25.9113 227.727 25.6179 226.973 25.4313 226.08C25.2446 225.187 25.1513 224.167 25.1513 223.02C25.1513 221.887 25.2446 220.873 25.4313 219.98C25.6179 219.073 25.9113 218.313 26.3113 217.7C26.7113 217.087 27.2179 216.62 27.8313 216.3C28.4446 215.967 29.1779 215.8 30.0313 215.8C30.8846 215.8 31.6179 215.967 32.2313 216.3C32.8446 216.62 33.3513 217.087 33.7513 217.7C34.1513 218.313 34.4446 219.073 34.6313 219.98C34.8179 220.873 34.9113 221.887 34.9113 223.02C34.9113 224.167 34.8179 225.187 34.6313 226.08C34.4446 226.973 34.1513 227.727 33.7513 228.34C33.3513 228.953 32.8446 229.427 32.2313 229.76C31.6179 230.08 30.8846 230.24 30.0313 230.24ZM30.0313 228.78C30.5913 228.78 31.0713 228.673 31.4713 228.46C31.8713 228.233 32.1913 227.92 32.4313 227.52C32.6846 227.12 32.8713 226.64 32.9913 226.08C33.1113 225.507 33.1713 224.867 33.1713 224.16V221.88C33.1713 221.187 33.1113 220.553 32.9913 219.98C32.8713 219.407 32.6846 218.92 32.4313 218.52C32.1913 218.12 31.8713 217.813 31.4713 217.6C31.0713 217.373 30.5913 217.26 30.0313 217.26C29.4713 217.26 28.9913 217.373 28.5913 217.6C28.1913 217.813 27.8646 218.12 27.6113 218.52C27.3713 218.92 27.1913 219.407 27.0713 219.98C26.9513 220.553 26.8913 221.187 26.8913 221.88V224.16C26.8913 224.867 26.9513 225.507 27.0713 226.08C27.1913 226.64 27.3713 227.12 27.6113 227.52C27.8646 227.92 28.1913 228.233 28.5913 228.46C28.9913 228.673 29.4713 228.78 30.0313 228.78ZM30.0313 224.2C29.5646 224.2 29.2379 224.107 29.0513 223.92C28.8779 223.733 28.7913 223.507 28.7913 223.24V222.8C28.7913 222.533 28.8779 222.307 29.0513 222.12C29.2379 221.933 29.5646 221.84 30.0313 221.84C30.4979 221.84 30.8179 221.933 30.9913 222.12C31.1779 222.307 31.2713 222.533 31.2713 222.8V223.24C31.2713 223.507 31.1779 223.733 30.9913 223.92C30.8179 224.107 30.4979 224.2 30.0313 224.2ZM46.0234 230.24C45.1701 230.24 44.4368 230.08 43.8234 229.76C43.2101 229.427 42.7034 228.953 42.3034 228.34C41.9034 227.727 41.6101 226.973 41.4234 226.08C41.2368 225.187 41.1434 224.167 41.1434 223.02C41.1434 221.887 41.2368 220.873 41.4234 219.98C41.6101 219.073 41.9034 218.313 42.3034 217.7C42.7034 217.087 43.2101 216.62 43.8234 216.3C44.4368 215.967 45.1701 215.8 46.0234 215.8C46.8768 215.8 47.6101 215.967 48.2234 216.3C48.8368 216.62 49.3434 217.087 49.7434 217.7C50.1434 218.313 50.4368 219.073 50.6234 219.98C50.8101 220.873 50.9034 221.887 50.9034 223.02C50.9034 224.167 50.8101 225.187 50.6234 226.08C50.4368 226.973 50.1434 227.727 49.7434 228.34C49.3434 228.953 48.8368 229.427 48.2234 229.76C47.6101 230.08 46.8768 230.24 46.0234 230.24ZM46.0234 228.78C46.5834 228.78 47.0634 228.673 47.4634 228.46C47.8634 228.233 48.1834 227.92 48.4234 227.52C48.6768 227.12 48.8634 226.64 48.9834 226.08C49.1034 225.507 49.1634 224.867 49.1634 224.16V221.88C49.1634 221.187 49.1034 220.553 48.9834 219.98C48.8634 219.407 48.6768 218.92 48.4234 218.52C48.1834 218.12 47.8634 217.813 47.4634 217.6C47.0634 217.373 46.5834 217.26 46.0234 217.26C45.4634 217.26 44.9834 217.373 44.5834 217.6C44.1834 217.813 43.8568 218.12 43.6034 218.52C43.3634 218.92 43.1834 219.407 43.0634 219.98C42.9434 220.553 42.8834 221.187 42.8834 221.88V224.16C42.8834 224.867 42.9434 225.507 43.0634 226.08C43.1834 226.64 43.3634 227.12 43.6034 227.52C43.8568 227.92 44.1834 228.233 44.5834 228.46C44.9834 228.673 45.4634 228.78 46.0234 228.78ZM46.0234 224.2C45.5568 224.2 45.2301 224.107 45.0434 223.92C44.8701 223.733 44.7834 223.507 44.7834 223.24V222.8C44.7834 222.533 44.8701 222.307 45.0434 222.12C45.2301 221.933 45.5568 221.84 46.0234 221.84C46.4901 221.84 46.8101 221.933 46.9834 222.12C47.1701 222.307 47.2634 222.533 47.2634 222.8V223.24C47.2634 223.507 47.1701 223.733 46.9834 223.92C46.8101 224.107 46.4901 224.2 46.0234 224.2ZM57.7156 230V228.54H61.7156V217.28H61.5756L58.0556 220.56L57.0756 219.5L60.7756 216.04H63.3956V228.54H67.0756V230H57.7156ZM73.7078 230V228.54H77.7078V217.28H77.5678L74.0478 220.56L73.0678 219.5L76.7678 216.04H79.3878V228.54H83.0678V230H73.7078Z" fill="black"/>
<path d="M134.56 290V287.26H127.68V285.78L133.72 276.04H136.16V285.88H138.24V287.26H136.16V290H134.56ZM129.18 285.88H134.56V277.34H134.48L129.18 285.88Z" fill="black"/>
<path d="M14.0391 170.24C13.1857 170.24 12.4524 170.08 11.8391 169.76C11.2257 169.427 10.7191 168.953 10.3191 168.34C9.91906 167.727 9.62573 166.973 9.43906 166.08C9.2524 165.187 9.15906 164.167 9.15906 163.02C9.15906 161.887 9.2524 160.873 9.43906 159.98C9.62573 159.073 9.91906 158.313 10.3191 157.7C10.7191 157.087 11.2257 156.62 11.8391 156.3C12.4524 155.967 13.1857 155.8 14.0391 155.8C14.8924 155.8 15.6257 155.967 16.2391 156.3C16.8524 156.62 17.3591 157.087 17.7591 157.7C18.1591 158.313 18.4524 159.073 18.6391 159.98C18.8257 160.873 18.9191 161.887 18.9191 163.02C18.9191 164.167 18.8257 165.187 18.6391 166.08C18.4524 166.973 18.1591 167.727 17.7591 168.34C17.3591 168.953 16.8524 169.427 16.2391 169.76C15.6257 170.08 14.8924 170.24 14.0391 170.24ZM14.0391 168.78C14.5991 168.78 15.0791 168.673 15.4791 168.46C15.8791 168.233 16.1991 167.92 16.4391 167.52C16.6924 167.12 16.8791 166.64 16.9991 166.08C17.1191 165.507 17.1791 164.867 17.1791 164.16V161.88C17.1791 161.187 17.1191 160.553 16.9991 159.98C16.8791 159.407 16.6924 158.92 16.4391 158.52C16.1991 158.12 15.8791 157.813 15.4791 157.6C15.0791 157.373 14.5991 157.26 14.0391 157.26C13.4791 157.26 12.9991 157.373 12.5991 157.6C12.1991 157.813 11.8724 158.12 11.6191 158.52C11.3791 158.92 11.1991 159.407 11.0791 159.98C10.9591 160.553 10.8991 161.187 10.8991 161.88V164.16C10.8991 164.867 10.9591 165.507 11.0791 166.08C11.1991 166.64 11.3791 167.12 11.6191 167.52C11.8724 167.92 12.1991 168.233 12.5991 168.46C12.9991 168.673 13.4791 168.78 14.0391 168.78ZM14.0391 164.2C13.5724 164.2 13.2457 164.107 13.0591 163.92C12.8857 163.733 12.7991 163.507 12.7991 163.24V162.8C12.7991 162.533 12.8857 162.307 13.0591 162.12C13.2457 161.933 13.5724 161.84 14.0391 161.84C14.5057 161.84 14.8257 161.933 14.9991 162.12C15.1857 162.307 15.2791 162.533 15.2791 162.8V163.24C15.2791 163.507 15.1857 163.733 14.9991 163.92C14.8257 164.107 14.5057 164.2 14.0391 164.2ZM30.0313 170.24C29.1779 170.24 28.4446 170.08 27.8313 169.76C27.2179 169.427 26.7113 168.953 26.3113 168.34C25.9113 167.727 25.6179 166.973 25.4313 166.08C25.2446 165.187 25.1513 164.167 25.1513 163.02C25.1513 161.887 25.2446 160.873 25.4313 159.98C25.6179 159.073 25.9113 158.313 26.3113 157.7C26.7113 157.087 27.2179 156.62 27.8313 156.3C28.4446 155.967 29.1779 155.8 30.0313 155.8C30.8846 155.8 31.6179 155.967 32.2313 156.3C32.8446 156.62 33.3513 157.087 33.7513 157.7C34.1513 158.313 34.4446 159.073 34.6313 159.98C34.8179 160.873 34.9113 161.887 34.9113 163.02C34.9113 164.167 34.8179 165.187 34.6313 166.08C34.4446 166.973 34.1513 167.727 33.7513 168.34C33.3513 168.953 32.8446 169.427 32.2313 169.76C31.6179 170.08 30.8846 170.24 30.0313 170.24ZM30.0313 168.78C30.5913 168.78 31.0713 168.673 31.4713 168.46C31.8713 168.233 32.1913 167.92 32.4313 167.52C32.6846 167.12 32.8713 166.64 32.9913 166.08C33.1113 165.507 33.1713 164.867 33.1713 164.16V161.88C33.1713 161.187 33.1113 160.553 32.9913 159.98C32.8713 159.407 32.6846 158.92 32.4313 158.52C32.1913 158.12 31.8713 157.813 31.4713 157.6C31.0713 157.373 30.5913 157.26 30.0313 157.26C29.4713 157.26 28.9913 157.373 28.5913 157.6C28.1913 157.813 27.8646 158.12 27.6113 158.52C27.3713 158.92 27.1913 159.407 27.0713 159.98C26.9513 160.553 26.8913 161.187 26.8913 161.88V164.16C26.8913 164.867 26.9513 165.507 27.0713 166.08C27.1913 166.64 27.3713 167.12 27.6113 167.52C27.8646 167.92 28.1913 168.233 28.5913 168.46C28.9913 168.673 29.4713 168.78 30.0313 168.78ZM30.0313 164.2C29.5646 164.2 29.2379 164.107 29.0513 163.92C28.8779 163.733 28.7913 163.507 28.7913 163.24V162.8C28.7913 162.533 28.8779 162.307 29.0513 162.12C29.2379 161.933 29.5646 161.84 30.0313 161.84C30.4979 161.84 30.8179 161.933 30.9913 162.12C31.1779 162.307 31.2713 162.533 31.2713 162.8V163.24C31.2713 163.507 31.1779 163.733 30.9913 163.92C30.8179 164.107 30.4979 164.2 30.0313 164.2ZM46.0234 170.24C45.1701 170.24 44.4368 170.08 43.8234 169.76C43.2101 169.427 42.7034 168.953 42.3034 168.34C41.9034 167.727 41.6101 166.973 41.4234 166.08C41.2368 165.187 41.1434 164.167 41.1434 163.02C41.1434 161.887 41.2368 160.873 41.4234 159.98C41.6101 159.073 41.9034 158.313 42.3034 157.7C42.7034 157.087 43.2101 156.62 43.8234 156.3C44.4368 155.967 45.1701 155.8 46.0234 155.8C46.8768 155.8 47.6101 155.967 48.2234 156.3C48.8368 156.62 49.3434 157.087 49.7434 157.7C50.1434 158.313 50.4368 159.073 50.6234 159.98C50.8101 160.873 50.9034 161.887 50.9034 163.02C50.9034 164.167 50.8101 165.187 50.6234 166.08C50.4368 166.973 50.1434 167.727 49.7434 168.34C49.3434 168.953 48.8368 169.427 48.2234 169.76C47.6101 170.08 46.8768 170.24 46.0234 170.24ZM46.0234 168.78C46.5834 168.78 47.0634 168.673 47.4634 168.46C47.8634 168.233 48.1834 167.92 48.4234 167.52C48.6768 167.12 48.8634 166.64 48.9834 166.08C49.1034 165.507 49.1634 164.867 49.1634 164.16V161.88C49.1634 161.187 49.1034 160.553 48.9834 159.98C48.8634 159.407 48.6768 158.92 48.4234 158.52C48.1834 158.12 47.8634 157.813 47.4634 157.6C47.0634 157.373 46.5834 157.26 46.0234 157.26C45.4634 157.26 44.9834 157.373 44.5834 157.6C44.1834 157.813 43.8568 158.12 43.6034 158.52C43.3634 158.92 43.1834 159.407 43.0634 159.98C42.9434 160.553 42.8834 161.187 42.8834 161.88V164.16C42.8834 164.867 42.9434 165.507 43.0634 166.08C43.1834 166.64 43.3634 167.12 43.6034 167.52C43.8568 167.92 44.1834 168.233 44.5834 168.46C44.9834 168.673 45.4634 168.78 46.0234 168.78ZM46.0234 164.2C45.5568 164.2 45.2301 164.107 45.0434 163.92C44.8701 163.733 44.7834 163.507 44.7834 163.24V162.8C44.7834 162.533 44.8701 162.307 45.0434 162.12C45.2301 161.933 45.5568 161.84 46.0234 161.84C46.4901 161.84 46.8101 161.933 46.9834 162.12C47.1701 162.307 47.2634 162.533 47.2634 162.8V163.24C47.2634 163.507 47.1701 163.733 46.9834 163.92C46.8101 164.107 46.4901 164.2 46.0234 164.2ZM57.7156 170V168.54H61.7156V157.28H61.5756L58.0556 160.56L57.0756 159.5L60.7756 156.04H63.3956V168.54H67.0756V170H57.7156ZM78.0078 170.24C77.1545 170.24 76.4211 170.08 75.8078 169.76C75.1945 169.427 74.6878 168.953 74.2878 168.34C73.8878 167.727 73.5945 166.973 73.4078 166.08C73.2211 165.187 73.1278 164.167 73.1278 163.02C73.1278 161.887 73.2211 160.873 73.4078 159.98C73.5945 159.073 73.8878 158.313 74.2878 157.7C74.6878 157.087 75.1945 156.62 75.8078 156.3C76.4211 155.967 77.1545 155.8 78.0078 155.8C78.8611 155.8 79.5945 155.967 80.2078 156.3C80.8211 156.62 81.3278 157.087 81.7278 157.7C82.1278 158.313 82.4211 159.073 82.6078 159.98C82.7945 160.873 82.8878 161.887 82.8878 163.02C82.8878 164.167 82.7945 165.187 82.6078 166.08C82.4211 166.973 82.1278 167.727 81.7278 168.34C81.3278 168.953 80.8211 169.427 80.2078 169.76C79.5945 170.08 78.8611 170.24 78.0078 170.24ZM78.0078 168.78C78.5678 168.78 79.0478 168.673 79.4478 168.46C79.8478 168.233 80.1678 167.92 80.4078 167.52C80.6611 167.12 80.8478 166.64 80.9678 166.08C81.0878 165.507 81.1478 164.867 81.1478 164.16V161.88C81.1478 161.187 81.0878 160.553 80.9678 159.98C80.8478 159.407 80.6611 158.92 80.4078 158.52C80.1678 158.12 79.8478 157.813 79.4478 157.6C79.0478 157.373 78.5678 157.26 78.0078 157.26C77.4478 157.26 76.9678 157.373 76.5678 157.6C76.1678 157.813 75.8411 158.12 75.5878 158.52C75.3478 158.92 75.1678 159.407 75.0478 159.98C74.9278 160.553 74.8678 161.187 74.8678 161.88V164.16C74.8678 164.867 74.9278 165.507 75.0478 166.08C75.1678 166.64 75.3478 167.12 75.5878 167.52C75.8411 167.92 76.1678 168.233 76.5678 168.46C76.9678 168.673 77.4478 168.78 78.0078 168.78ZM78.0078 164.2C77.5411 164.2 77.2145 164.107 77.0278 163.92C76.8545 163.733 76.7678 163.507 76.7678 163.24V162.8C76.7678 162.533 76.8545 162.307 77.0278 162.12C77.2145 161.933 77.5411 161.84 78.0078 161.84C78.4745 161.84 78.7945 161.933 78.9678 162.12C79.1545 162.307 79.2478 162.533 79.2478 162.8V163.24C79.2478 163.507 79.1545 163.733 78.9678 163.92C78.7945 164.107 78.4745 164.2 78.0078 164.2Z" fill="black"/>
<path d="M14.0391 290.24C13.1857 290.24 12.4524 290.08 11.8391 289.76C11.2257 289.427 10.7191 288.953 10.3191 288.34C9.91906 287.727 9.62573 286.973 9.43906 286.08C9.2524 285.187 9.15906 284.167 9.15906 283.02C9.15906 281.887 9.2524 280.873 9.43906 279.98C9.62573 279.073 9.91906 278.313 10.3191 277.7C10.7191 277.087 11.2257 276.62 11.8391 276.3C12.4524 275.967 13.1857 275.8 14.0391 275.8C14.8924 275.8 15.6257 275.967 16.2391 276.3C16.8524 276.62 17.3591 277.087 17.7591 277.7C18.1591 278.313 18.4524 279.073 18.6391 279.98C18.8257 280.873 18.9191 281.887 18.9191 283.02C18.9191 284.167 18.8257 285.187 18.6391 286.08C18.4524 286.973 18.1591 287.727 17.7591 288.34C17.3591 288.953 16.8524 289.427 16.2391 289.76C15.6257 290.08 14.8924 290.24 14.0391 290.24ZM14.0391 288.78C14.5991 288.78 15.0791 288.673 15.4791 288.46C15.8791 288.233 16.1991 287.92 16.4391 287.52C16.6924 287.12 16.8791 286.64 16.9991 286.08C17.1191 285.507 17.1791 284.867 17.1791 284.16V281.88C17.1791 281.187 17.1191 280.553 16.9991 279.98C16.8791 279.407 16.6924 278.92 16.4391 278.52C16.1991 278.12 15.8791 277.813 15.4791 277.6C15.0791 277.373 14.5991 277.26 14.0391 277.26C13.4791 277.26 12.9991 277.373 12.5991 277.6C12.1991 277.813 11.8724 278.12 11.6191 278.52C11.3791 278.92 11.1991 279.407 11.0791 279.98C10.9591 280.553 10.8991 281.187 10.8991 281.88V284.16C10.8991 284.867 10.9591 285.507 11.0791 286.08C11.1991 286.64 11.3791 287.12 11.6191 287.52C11.8724 287.92 12.1991 288.233 12.5991 288.46C12.9991 288.673 13.4791 288.78 14.0391 288.78ZM14.0391 284.2C13.5724 284.2 13.2457 284.107 13.0591 283.92C12.8857 283.733 12.7991 283.507 12.7991 283.24V282.8C12.7991 282.533 12.8857 282.307 13.0591 282.12C13.2457 281.933 13.5724 281.84 14.0391 281.84C14.5057 281.84 14.8257 281.933 14.9991 282.12C15.1857 282.307 15.2791 282.533 15.2791 282.8V283.24C15.2791 283.507 15.1857 283.733 14.9991 283.92C14.8257 284.107 14.5057 284.2 14.0391 284.2ZM30.0313 290.24C29.1779 290.24 28.4446 290.08 27.8313 289.76C27.2179 289.427 26.7113 288.953 26.3113 288.34C25.9113 287.727 25.6179 286.973 25.4313 286.08C25.2446 285.187 25.1513 284.167 25.1513 283.02C25.1513 281.887 25.2446 280.873 25.4313 279.98C25.6179 279.073 25.9113 278.313 26.3113 277.7C26.7113 277.087 27.2179 276.62 27.8313 276.3C28.4446 275.967 29.1779 275.8 30.0313 275.8C30.8846 275.8 31.6179 275.967 32.2313 276.3C32.8446 276.62 33.3513 277.087 33.7513 277.7C34.1513 278.313 34.4446 279.073 34.6313 279.98C34.8179 280.873 34.9113 281.887 34.9113 283.02C34.9113 284.167 34.8179 285.187 34.6313 286.08C34.4446 286.973 34.1513 287.727 33.7513 288.34C33.3513 288.953 32.8446 289.427 32.2313 289.76C31.6179 290.08 30.8846 290.24 30.0313 290.24ZM30.0313 288.78C30.5913 288.78 31.0713 288.673 31.4713 288.46C31.8713 288.233 32.1913 287.92 32.4313 287.52C32.6846 287.12 32.8713 286.64 32.9913 286.08C33.1113 285.507 33.1713 284.867 33.1713 284.16V281.88C33.1713 281.187 33.1113 280.553 32.9913 279.98C32.8713 279.407 32.6846 278.92 32.4313 278.52C32.1913 278.12 31.8713 277.813 31.4713 277.6C31.0713 277.373 30.5913 277.26 30.0313 277.26C29.4713 277.26 28.9913 277.373 28.5913 277.6C28.1913 277.813 27.8646 278.12 27.6113 278.52C27.3713 278.92 27.1913 279.407 27.0713 279.98C26.9513 280.553 26.8913 281.187 26.8913 281.88V284.16C26.8913 284.867 26.9513 285.507 27.0713 286.08C27.1913 286.64 27.3713 287.12 27.6113 287.52C27.8646 287.92 28.1913 288.233 28.5913 288.46C28.9913 288.673 29.4713 288.78 30.0313 288.78ZM30.0313 284.2C29.5646 284.2 29.2379 284.107 29.0513 283.92C28.8779 283.733 28.7913 283.507 28.7913 283.24V282.8C28.7913 282.533 28.8779 282.307 29.0513 282.12C29.2379 281.933 29.5646 281.84 30.0313 281.84C30.4979 281.84 30.8179 281.933 30.9913 282.12C31.1779 282.307 31.2713 282.533 31.2713 282.8V283.24C31.2713 283.507 31.1779 283.733 30.9913 283.92C30.8179 284.107 30.4979 284.2 30.0313 284.2ZM41.7234 290V288.54H45.7234V277.28H45.5834L42.0634 280.56L41.0834 279.5L44.7834 276.04H47.4034V288.54H51.0834V290H41.7234ZM62.0156 290.24C61.1623 290.24 60.429 290.08 59.8156 289.76C59.2023 289.427 58.6956 288.953 58.2956 288.34C57.8956 287.727 57.6023 286.973 57.4156 286.08C57.229 285.187 57.1356 284.167 57.1356 283.02C57.1356 281.887 57.229 280.873 57.4156 279.98C57.6023 279.073 57.8956 278.313 58.2956 277.7C58.6956 277.087 59.2023 276.62 59.8156 276.3C60.429 275.967 61.1623 275.8 62.0156 275.8C62.869 275.8 63.6023 275.967 64.2156 276.3C64.829 276.62 65.3356 277.087 65.7356 277.7C66.1356 278.313 66.429 279.073 66.6156 279.98C66.8023 280.873 66.8956 281.887 66.8956 283.02C66.8956 284.167 66.8023 285.187 66.6156 286.08C66.429 286.973 66.1356 287.727 65.7356 288.34C65.3356 288.953 64.829 289.427 64.2156 289.76C63.6023 290.08 62.869 290.24 62.0156 290.24ZM62.0156 288.78C62.5756 288.78 63.0556 288.673 63.4556 288.46C63.8556 288.233 64.1756 287.92 64.4156 287.52C64.669 287.12 64.8556 286.64 64.9756 286.08C65.0956 285.507 65.1556 284.867 65.1556 284.16V281.88C65.1556 281.187 65.0956 280.553 64.9756 279.98C64.8556 279.407 64.669 278.92 64.4156 278.52C64.1756 278.12 63.8556 277.813 63.4556 277.6C63.0556 277.373 62.5756 277.26 62.0156 277.26C61.4556 277.26 60.9756 277.373 60.5756 277.6C60.1756 277.813 59.849 278.12 59.5956 278.52C59.3556 278.92 59.1756 279.407 59.0556 279.98C58.9356 280.553 58.8756 281.187 58.8756 281.88V284.16C58.8756 284.867 58.9356 285.507 59.0556 286.08C59.1756 286.64 59.3556 287.12 59.5956 287.52C59.849 287.92 60.1756 288.233 60.5756 288.46C60.9756 288.673 61.4556 288.78 62.0156 288.78ZM62.0156 284.2C61.549 284.2 61.2223 284.107 61.0356 283.92C60.8623 283.733 60.7756 283.507 60.7756 283.24V282.8C60.7756 282.533 60.8623 282.307 61.0356 282.12C61.2223 281.933 61.549 281.84 62.0156 281.84C62.4823 281.84 62.8023 281.933 62.9756 282.12C63.1623 282.307 63.2556 282.533 63.2556 282.8V283.24C63.2556 283.507 63.1623 283.733 62.9756 283.92C62.8023 284.107 62.4823 284.2 62.0156 284.2ZM78.0078 290.24C77.1545 290.24 76.4211 290.08 75.8078 289.76C75.1945 289.427 74.6878 288.953 74.2878 288.34C73.8878 287.727 73.5945 286.973 73.4078 286.08C73.2211 285.187 73.1278 284.167 73.1278 283.02C73.1278 281.887 73.2211 280.873 73.4078 279.98C73.5945 279.073 73.8878 278.313 74.2878 277.7C74.6878 277.087 75.1945 276.62 75.8078 276.3C76.4211 275.967 77.1545 275.8 78.0078 275.8C78.8611 275.8 79.5945 275.967 80.2078 276.3C80.8211 276.62 81.3278 277.087 81.7278 277.7C82.1278 278.313 82.4211 279.073 82.6078 279.98C82.7945 280.873 82.8878 281.887 82.8878 283.02C82.8878 284.167 82.7945 285.187 82.6078 286.08C82.4211 286.973 82.1278 287.727 81.7278 288.34C81.3278 288.953 80.8211 289.427 80.2078 289.76C79.5945 290.08 78.8611 290.24 78.0078 290.24ZM78.0078 288.78C78.5678 288.78 79.0478 288.673 79.4478 288.46C79.8478 288.233 80.1678 287.92 80.4078 287.52C80.6611 287.12 80.8478 286.64 80.9678 286.08C81.0878 285.507 81.1478 284.867 81.1478 284.16V281.88C81.1478 281.187 81.0878 280.553 80.9678 279.98C80.8478 279.407 80.6611 278.92 80.4078 278.52C80.1678 278.12 79.8478 277.813 79.4478 277.6C79.0478 277.373 78.5678 277.26 78.0078 277.26C77.4478 277.26 76.9678 277.373 76.5678 277.6C76.1678 277.813 75.8411 278.12 75.5878 278.52C75.3478 278.92 75.1678 279.407 75.0478 279.98C74.9278 280.553 74.8678 281.187 74.8678 281.88V284.16C74.8678 284.867 74.9278 285.507 75.0478 286.08C75.1678 286.64 75.3478 287.12 75.5878 287.52C75.8411 287.92 76.1678 288.233 76.5678 288.46C76.9678 288.673 77.4478 288.78 78.0078 288.78ZM78.0078 284.2C77.5411 284.2 77.2145 284.107 77.0278 283.92C76.8545 283.733 76.7678 283.507 76.7678 283.24V282.8C76.7678 282.533 76.8545 282.307 77.0278 282.12C77.2145 281.933 77.5411 281.84 78.0078 281.84C78.4745 281.84 78.7945 281.933 78.9678 282.12C79.1545 282.307 79.2478 282.533 79.2478 282.8V283.24C79.2478 283.507 79.1545 283.733 78.9678 283.92C78.7945 284.107 78.4745 284.2 78.0078 284.2Z" fill="black"/>
<path d="M78.3466 152.368C78.5499 152.729 79.0073 152.857 79.3681 152.653L85.249 149.34C85.6099 149.137 85.7376 148.679 85.5343 148.319C85.331 147.958 84.8736 147.83 84.5127 148.033L79.2853 150.978L76.3402 145.751C76.1369 145.39 75.6795 145.262 75.3186 145.466C74.9577 145.669 74.83 146.126 75.0333 146.487L78.3466 152.368ZM95.7179 151.783C94.5461 147.91 93.2296 144.872 91.8163 142.766C90.4225 140.688 88.8227 139.356 87.0422 139.256C85.2289 139.154 83.5965 140.342 82.1876 142.4C80.7657 144.477 79.4485 147.606 78.2776 151.798L79.7224 152.202C80.8741 148.078 82.1375 145.129 83.4253 143.247C84.726 141.347 85.9324 140.696 86.9578 140.754C88.016 140.813 89.2549 141.64 90.5708 143.601C91.8672 145.534 93.1314 148.414 94.2821 152.217L95.7179 151.783Z" fill="#5158F6"/>
<path d="M62.3466 209.368C62.5499 209.729 63.0073 209.857 63.3681 209.653L69.249 206.34C69.6099 206.137 69.7376 205.679 69.5343 205.319C69.331 204.958 68.8736 204.83 68.5127 205.033L63.2853 207.978L60.3402 202.751C60.1369 202.39 59.6795 202.262 59.3186 202.466C58.9577 202.669 58.83 203.126 59.0333 203.487L62.3466 209.368ZM79.7179 208.783C78.5461 204.91 77.2296 201.872 75.8163 199.766C74.4225 197.688 72.8227 196.356 71.0422 196.256C69.2289 196.154 67.5965 197.342 66.1876 199.4C64.7657 201.477 63.4485 204.606 62.2776 208.798L63.7224 209.202C64.8741 205.078 66.1375 202.129 67.4253 200.247C68.726 198.347 69.9324 197.696 70.9578 197.754C72.016 197.813 73.2549 198.64 74.5708 200.601C75.8672 202.534 77.1314 205.414 78.2821 209.217L79.7179 208.783Z" fill="#5158F6"/>
<path d="M45.3466 209.368C45.5499 209.729 46.0073 209.857 46.3681 209.653L52.249 206.34C52.6099 206.137 52.7376 205.679 52.5343 205.319C52.331 204.958 51.8736 204.83 51.5127 205.033L46.2853 207.978L43.3402 202.751C43.1369 202.39 42.6795 202.262 42.3186 202.466C41.9577 202.669 41.83 203.126 42.0333 203.487L45.3466 209.368ZM62.7179 208.783C61.5461 204.91 60.2296 201.872 58.8163 199.766C57.4225 197.688 55.8227 196.356 54.0422 196.256C52.2289 196.154 50.5965 197.342 49.1876 199.4C47.7657 201.477 46.4485 204.606 45.2776 208.798L46.7224 209.202C47.8741 205.078 49.1375 202.129 50.4253 200.247C51.726 198.347 52.9324 197.696 53.9578 197.754C55.016 197.813 56.2549 198.64 57.5708 200.601C58.8672 202.534 60.1314 205.414 61.2821 209.217L62.7179 208.783Z" fill="#5158F6"/>
</svg>
