<svg width="640" height="345" viewBox="0 0 640 345" fill="none" xmlns="http://www.w3.org/2000/svg">
<path d="M374.7 46V44.54H378.7V33.28H378.56L375.04 36.56L374.06 35.5L377.76 32.04H380.38V44.54H384.06V46H374.7Z" fill="black"/>
<path d="M347.24 38.56V37.2H356.76V38.56H347.24ZM347.24 42.56V41.2H356.76V42.56H347.24Z" fill="black"/>
<path d="M347.24 100.56V99.2H356.76V100.56H347.24ZM347.24 104.56V103.2H356.76V104.56H347.24Z" fill="black"/>
<path d="M347.24 162.56V161.2H356.76V162.56H347.24ZM347.24 166.56V165.2H356.76V166.56H347.24Z" fill="black"/>
<path d="M347.24 222.56V221.2H356.76V222.56H347.24ZM347.24 226.56V225.2H356.76V226.56H347.24Z" fill="black"/>
<path d="M347.24 282.56V281.2H356.76V282.56H347.24ZM347.24 286.56V285.2H356.76V286.56H347.24Z" fill="black"/>
<path d="M260.039 46.24C259.186 46.24 258.452 46.08 257.839 45.76C257.226 45.4267 256.719 44.9533 256.319 44.34C255.919 43.7267 255.626 42.9733 255.439 42.08C255.252 41.1867 255.159 40.1667 255.159 39.02C255.159 37.8867 255.252 36.8733 255.439 35.98C255.626 35.0733 255.919 34.3133 256.319 33.7C256.719 33.0867 257.226 32.62 257.839 32.3C258.452 31.9667 259.186 31.8 260.039 31.8C260.892 31.8 261.626 31.9667 262.239 32.3C262.852 32.62 263.359 33.0867 263.759 33.7C264.159 34.3133 264.452 35.0733 264.639 35.98C264.826 36.8733 264.919 37.8867 264.919 39.02C264.919 40.1667 264.826 41.1867 264.639 42.08C264.452 42.9733 264.159 43.7267 263.759 44.34C263.359 44.9533 262.852 45.4267 262.239 45.76C261.626 46.08 260.892 46.24 260.039 46.24ZM260.039 44.78C260.599 44.78 261.079 44.6733 261.479 44.46C261.879 44.2333 262.199 43.92 262.439 43.52C262.692 43.12 262.879 42.64 262.999 42.08C263.119 41.5067 263.179 40.8667 263.179 40.16V37.88C263.179 37.1867 263.119 36.5533 262.999 35.98C262.879 35.4067 262.692 34.92 262.439 34.52C262.199 34.12 261.879 33.8133 261.479 33.6C261.079 33.3733 260.599 33.26 260.039 33.26C259.479 33.26 258.999 33.3733 258.599 33.6C258.199 33.8133 257.872 34.12 257.619 34.52C257.379 34.92 257.199 35.4067 257.079 35.98C256.959 36.5533 256.899 37.1867 256.899 37.88V40.16C256.899 40.8667 256.959 41.5067 257.079 42.08C257.199 42.64 257.379 43.12 257.619 43.52C257.872 43.92 258.199 44.2333 258.599 44.46C258.999 44.6733 259.479 44.78 260.039 44.78ZM260.039 40.2C259.572 40.2 259.246 40.1067 259.059 39.92C258.886 39.7333 258.799 39.5067 258.799 39.24V38.8C258.799 38.5333 258.886 38.3067 259.059 38.12C259.246 37.9333 259.572 37.84 260.039 37.84C260.506 37.84 260.826 37.9333 260.999 38.12C261.186 38.3067 261.279 38.5333 261.279 38.8V39.24C261.279 39.5067 261.186 39.7333 260.999 39.92C260.826 40.1067 260.506 40.2 260.039 40.2ZM276.031 46.24C275.178 46.24 274.445 46.08 273.831 45.76C273.218 45.4267 272.711 44.9533 272.311 44.34C271.911 43.7267 271.618 42.9733 271.431 42.08C271.245 41.1867 271.151 40.1667 271.151 39.02C271.151 37.8867 271.245 36.8733 271.431 35.98C271.618 35.0733 271.911 34.3133 272.311 33.7C272.711 33.0867 273.218 32.62 273.831 32.3C274.445 31.9667 275.178 31.8 276.031 31.8C276.885 31.8 277.618 31.9667 278.231 32.3C278.845 32.62 279.351 33.0867 279.751 33.7C280.151 34.3133 280.445 35.0733 280.631 35.98C280.818 36.8733 280.911 37.8867 280.911 39.02C280.911 40.1667 280.818 41.1867 280.631 42.08C280.445 42.9733 280.151 43.7267 279.751 44.34C279.351 44.9533 278.845 45.4267 278.231 45.76C277.618 46.08 276.885 46.24 276.031 46.24ZM276.031 44.78C276.591 44.78 277.071 44.6733 277.471 44.46C277.871 44.2333 278.191 43.92 278.431 43.52C278.685 43.12 278.871 42.64 278.991 42.08C279.111 41.5067 279.171 40.8667 279.171 40.16V37.88C279.171 37.1867 279.111 36.5533 278.991 35.98C278.871 35.4067 278.685 34.92 278.431 34.52C278.191 34.12 277.871 33.8133 277.471 33.6C277.071 33.3733 276.591 33.26 276.031 33.26C275.471 33.26 274.991 33.3733 274.591 33.6C274.191 33.8133 273.865 34.12 273.611 34.52C273.371 34.92 273.191 35.4067 273.071 35.98C272.951 36.5533 272.891 37.1867 272.891 37.88V40.16C272.891 40.8667 272.951 41.5067 273.071 42.08C273.191 42.64 273.371 43.12 273.611 43.52C273.865 43.92 274.191 44.2333 274.591 44.46C274.991 44.6733 275.471 44.78 276.031 44.78ZM276.031 40.2C275.565 40.2 275.238 40.1067 275.051 39.92C274.878 39.7333 274.791 39.5067 274.791 39.24V38.8C274.791 38.5333 274.878 38.3067 275.051 38.12C275.238 37.9333 275.565 37.84 276.031 37.84C276.498 37.84 276.818 37.9333 276.991 38.12C277.178 38.3067 277.271 38.5333 277.271 38.8V39.24C277.271 39.5067 277.178 39.7333 276.991 39.92C276.818 40.1067 276.498 40.2 276.031 40.2ZM292.023 46.24C291.17 46.24 290.437 46.08 289.823 45.76C289.21 45.4267 288.703 44.9533 288.303 44.34C287.903 43.7267 287.61 42.9733 287.423 42.08C287.237 41.1867 287.143 40.1667 287.143 39.02C287.143 37.8867 287.237 36.8733 287.423 35.98C287.61 35.0733 287.903 34.3133 288.303 33.7C288.703 33.0867 289.21 32.62 289.823 32.3C290.437 31.9667 291.17 31.8 292.023 31.8C292.877 31.8 293.61 31.9667 294.223 32.3C294.837 32.62 295.343 33.0867 295.743 33.7C296.143 34.3133 296.437 35.0733 296.623 35.98C296.81 36.8733 296.903 37.8867 296.903 39.02C296.903 40.1667 296.81 41.1867 296.623 42.08C296.437 42.9733 296.143 43.7267 295.743 44.34C295.343 44.9533 294.837 45.4267 294.223 45.76C293.61 46.08 292.877 46.24 292.023 46.24ZM292.023 44.78C292.583 44.78 293.063 44.6733 293.463 44.46C293.863 44.2333 294.183 43.92 294.423 43.52C294.677 43.12 294.863 42.64 294.983 42.08C295.103 41.5067 295.163 40.8667 295.163 40.16V37.88C295.163 37.1867 295.103 36.5533 294.983 35.98C294.863 35.4067 294.677 34.92 294.423 34.52C294.183 34.12 293.863 33.8133 293.463 33.6C293.063 33.3733 292.583 33.26 292.023 33.26C291.463 33.26 290.983 33.3733 290.583 33.6C290.183 33.8133 289.857 34.12 289.603 34.52C289.363 34.92 289.183 35.4067 289.063 35.98C288.943 36.5533 288.883 37.1867 288.883 37.88V40.16C288.883 40.8667 288.943 41.5067 289.063 42.08C289.183 42.64 289.363 43.12 289.603 43.52C289.857 43.92 290.183 44.2333 290.583 44.46C290.983 44.6733 291.463 44.78 292.023 44.78ZM292.023 40.2C291.557 40.2 291.23 40.1067 291.043 39.92C290.87 39.7333 290.783 39.5067 290.783 39.24V38.8C290.783 38.5333 290.87 38.3067 291.043 38.12C291.23 37.9333 291.557 37.84 292.023 37.84C292.49 37.84 292.81 37.9333 292.983 38.12C293.17 38.3067 293.263 38.5333 293.263 38.8V39.24C293.263 39.5067 293.17 39.7333 292.983 39.92C292.81 40.1067 292.49 40.2 292.023 40.2ZM308.016 46.24C307.162 46.24 306.429 46.08 305.816 45.76C305.202 45.4267 304.696 44.9533 304.296 44.34C303.896 43.7267 303.602 42.9733 303.416 42.08C303.229 41.1867 303.136 40.1667 303.136 39.02C303.136 37.8867 303.229 36.8733 303.416 35.98C303.602 35.0733 303.896 34.3133 304.296 33.7C304.696 33.0867 305.202 32.62 305.816 32.3C306.429 31.9667 307.162 31.8 308.016 31.8C308.869 31.8 309.602 31.9667 310.216 32.3C310.829 32.62 311.336 33.0867 311.736 33.7C312.136 34.3133 312.429 35.0733 312.616 35.98C312.802 36.8733 312.896 37.8867 312.896 39.02C312.896 40.1667 312.802 41.1867 312.616 42.08C312.429 42.9733 312.136 43.7267 311.736 44.34C311.336 44.9533 310.829 45.4267 310.216 45.76C309.602 46.08 308.869 46.24 308.016 46.24ZM308.016 44.78C308.576 44.78 309.056 44.6733 309.456 44.46C309.856 44.2333 310.176 43.92 310.416 43.52C310.669 43.12 310.856 42.64 310.976 42.08C311.096 41.5067 311.156 40.8667 311.156 40.16V37.88C311.156 37.1867 311.096 36.5533 310.976 35.98C310.856 35.4067 310.669 34.92 310.416 34.52C310.176 34.12 309.856 33.8133 309.456 33.6C309.056 33.3733 308.576 33.26 308.016 33.26C307.456 33.26 306.976 33.3733 306.576 33.6C306.176 33.8133 305.849 34.12 305.596 34.52C305.356 34.92 305.176 35.4067 305.056 35.98C304.936 36.5533 304.876 37.1867 304.876 37.88V40.16C304.876 40.8667 304.936 41.5067 305.056 42.08C305.176 42.64 305.356 43.12 305.596 43.52C305.849 43.92 306.176 44.2333 306.576 44.46C306.976 44.6733 307.456 44.78 308.016 44.78ZM308.016 40.2C307.549 40.2 307.222 40.1067 307.036 39.92C306.862 39.7333 306.776 39.5067 306.776 39.24V38.8C306.776 38.5333 306.862 38.3067 307.036 38.12C307.222 37.9333 307.549 37.84 308.016 37.84C308.482 37.84 308.802 37.9333 308.976 38.12C309.162 38.3067 309.256 38.5333 309.256 38.8V39.24C309.256 39.5067 309.162 39.7333 308.976 39.92C308.802 40.1067 308.482 40.2 308.016 40.2ZM319.708 46V44.54H323.708V33.28H323.568L320.048 36.56L319.068 35.5L322.768 32.04H325.388V44.54H329.068V46H319.708Z" fill="black"/>
<path d="M374.7 108V106.54H378.7V95.28H378.56L375.04 98.56L374.06 97.5L377.76 94.04H380.38V106.54H384.06V108H374.7Z" fill="black"/>
<path d="M260.039 108.24C259.186 108.24 258.452 108.08 257.839 107.76C257.226 107.427 256.719 106.953 256.319 106.34C255.919 105.727 255.626 104.973 255.439 104.08C255.252 103.187 255.159 102.167 255.159 101.02C255.159 99.8867 255.252 98.8733 255.439 97.98C255.626 97.0733 255.919 96.3133 256.319 95.7C256.719 95.0867 257.226 94.62 257.839 94.3C258.452 93.9667 259.186 93.8 260.039 93.8C260.892 93.8 261.626 93.9667 262.239 94.3C262.852 94.62 263.359 95.0867 263.759 95.7C264.159 96.3133 264.452 97.0733 264.639 97.98C264.826 98.8733 264.919 99.8867 264.919 101.02C264.919 102.167 264.826 103.187 264.639 104.08C264.452 104.973 264.159 105.727 263.759 106.34C263.359 106.953 262.852 107.427 262.239 107.76C261.626 108.08 260.892 108.24 260.039 108.24ZM260.039 106.78C260.599 106.78 261.079 106.673 261.479 106.46C261.879 106.233 262.199 105.92 262.439 105.52C262.692 105.12 262.879 104.64 262.999 104.08C263.119 103.507 263.179 102.867 263.179 102.16V99.88C263.179 99.1867 263.119 98.5533 262.999 97.98C262.879 97.4067 262.692 96.92 262.439 96.52C262.199 96.12 261.879 95.8133 261.479 95.6C261.079 95.3733 260.599 95.26 260.039 95.26C259.479 95.26 258.999 95.3733 258.599 95.6C258.199 95.8133 257.872 96.12 257.619 96.52C257.379 96.92 257.199 97.4067 257.079 97.98C256.959 98.5533 256.899 99.1867 256.899 99.88V102.16C256.899 102.867 256.959 103.507 257.079 104.08C257.199 104.64 257.379 105.12 257.619 105.52C257.872 105.92 258.199 106.233 258.599 106.46C258.999 106.673 259.479 106.78 260.039 106.78ZM260.039 102.2C259.572 102.2 259.246 102.107 259.059 101.92C258.886 101.733 258.799 101.507 258.799 101.24V100.8C258.799 100.533 258.886 100.307 259.059 100.12C259.246 99.9333 259.572 99.84 260.039 99.84C260.506 99.84 260.826 99.9333 260.999 100.12C261.186 100.307 261.279 100.533 261.279 100.8V101.24C261.279 101.507 261.186 101.733 260.999 101.92C260.826 102.107 260.506 102.2 260.039 102.2ZM276.031 108.24C275.178 108.24 274.445 108.08 273.831 107.76C273.218 107.427 272.711 106.953 272.311 106.34C271.911 105.727 271.618 104.973 271.431 104.08C271.245 103.187 271.151 102.167 271.151 101.02C271.151 99.8867 271.245 98.8733 271.431 97.98C271.618 97.0733 271.911 96.3133 272.311 95.7C272.711 95.0867 273.218 94.62 273.831 94.3C274.445 93.9667 275.178 93.8 276.031 93.8C276.885 93.8 277.618 93.9667 278.231 94.3C278.845 94.62 279.351 95.0867 279.751 95.7C280.151 96.3133 280.445 97.0733 280.631 97.98C280.818 98.8733 280.911 99.8867 280.911 101.02C280.911 102.167 280.818 103.187 280.631 104.08C280.445 104.973 280.151 105.727 279.751 106.34C279.351 106.953 278.845 107.427 278.231 107.76C277.618 108.08 276.885 108.24 276.031 108.24ZM276.031 106.78C276.591 106.78 277.071 106.673 277.471 106.46C277.871 106.233 278.191 105.92 278.431 105.52C278.685 105.12 278.871 104.64 278.991 104.08C279.111 103.507 279.171 102.867 279.171 102.16V99.88C279.171 99.1867 279.111 98.5533 278.991 97.98C278.871 97.4067 278.685 96.92 278.431 96.52C278.191 96.12 277.871 95.8133 277.471 95.6C277.071 95.3733 276.591 95.26 276.031 95.26C275.471 95.26 274.991 95.3733 274.591 95.6C274.191 95.8133 273.865 96.12 273.611 96.52C273.371 96.92 273.191 97.4067 273.071 97.98C272.951 98.5533 272.891 99.1867 272.891 99.88V102.16C272.891 102.867 272.951 103.507 273.071 104.08C273.191 104.64 273.371 105.12 273.611 105.52C273.865 105.92 274.191 106.233 274.591 106.46C274.991 106.673 275.471 106.78 276.031 106.78ZM276.031 102.2C275.565 102.2 275.238 102.107 275.051 101.92C274.878 101.733 274.791 101.507 274.791 101.24V100.8C274.791 100.533 274.878 100.307 275.051 100.12C275.238 99.9333 275.565 99.84 276.031 99.84C276.498 99.84 276.818 99.9333 276.991 100.12C277.178 100.307 277.271 100.533 277.271 100.8V101.24C277.271 101.507 277.178 101.733 276.991 101.92C276.818 102.107 276.498 102.2 276.031 102.2ZM292.023 108.24C291.17 108.24 290.437 108.08 289.823 107.76C289.21 107.427 288.703 106.953 288.303 106.34C287.903 105.727 287.61 104.973 287.423 104.08C287.237 103.187 287.143 102.167 287.143 101.02C287.143 99.8867 287.237 98.8733 287.423 97.98C287.61 97.0733 287.903 96.3133 288.303 95.7C288.703 95.0867 289.21 94.62 289.823 94.3C290.437 93.9667 291.17 93.8 292.023 93.8C292.877 93.8 293.61 93.9667 294.223 94.3C294.837 94.62 295.343 95.0867 295.743 95.7C296.143 96.3133 296.437 97.0733 296.623 97.98C296.81 98.8733 296.903 99.8867 296.903 101.02C296.903 102.167 296.81 103.187 296.623 104.08C296.437 104.973 296.143 105.727 295.743 106.34C295.343 106.953 294.837 107.427 294.223 107.76C293.61 108.08 292.877 108.24 292.023 108.24ZM292.023 106.78C292.583 106.78 293.063 106.673 293.463 106.46C293.863 106.233 294.183 105.92 294.423 105.52C294.677 105.12 294.863 104.64 294.983 104.08C295.103 103.507 295.163 102.867 295.163 102.16V99.88C295.163 99.1867 295.103 98.5533 294.983 97.98C294.863 97.4067 294.677 96.92 294.423 96.52C294.183 96.12 293.863 95.8133 293.463 95.6C293.063 95.3733 292.583 95.26 292.023 95.26C291.463 95.26 290.983 95.3733 290.583 95.6C290.183 95.8133 289.857 96.12 289.603 96.52C289.363 96.92 289.183 97.4067 289.063 97.98C288.943 98.5533 288.883 99.1867 288.883 99.88V102.16C288.883 102.867 288.943 103.507 289.063 104.08C289.183 104.64 289.363 105.12 289.603 105.52C289.857 105.92 290.183 106.233 290.583 106.46C290.983 106.673 291.463 106.78 292.023 106.78ZM292.023 102.2C291.557 102.2 291.23 102.107 291.043 101.92C290.87 101.733 290.783 101.507 290.783 101.24V100.8C290.783 100.533 290.87 100.307 291.043 100.12C291.23 99.9333 291.557 99.84 292.023 99.84C292.49 99.84 292.81 99.9333 292.983 100.12C293.17 100.307 293.263 100.533 293.263 100.8V101.24C293.263 101.507 293.17 101.733 292.983 101.92C292.81 102.107 292.49 102.2 292.023 102.2ZM308.016 108.24C307.162 108.24 306.429 108.08 305.816 107.76C305.202 107.427 304.696 106.953 304.296 106.34C303.896 105.727 303.602 104.973 303.416 104.08C303.229 103.187 303.136 102.167 303.136 101.02C303.136 99.8867 303.229 98.8733 303.416 97.98C303.602 97.0733 303.896 96.3133 304.296 95.7C304.696 95.0867 305.202 94.62 305.816 94.3C306.429 93.9667 307.162 93.8 308.016 93.8C308.869 93.8 309.602 93.9667 310.216 94.3C310.829 94.62 311.336 95.0867 311.736 95.7C312.136 96.3133 312.429 97.0733 312.616 97.98C312.802 98.8733 312.896 99.8867 312.896 101.02C312.896 102.167 312.802 103.187 312.616 104.08C312.429 104.973 312.136 105.727 311.736 106.34C311.336 106.953 310.829 107.427 310.216 107.76C309.602 108.08 308.869 108.24 308.016 108.24ZM308.016 106.78C308.576 106.78 309.056 106.673 309.456 106.46C309.856 106.233 310.176 105.92 310.416 105.52C310.669 105.12 310.856 104.64 310.976 104.08C311.096 103.507 311.156 102.867 311.156 102.16V99.88C311.156 99.1867 311.096 98.5533 310.976 97.98C310.856 97.4067 310.669 96.92 310.416 96.52C310.176 96.12 309.856 95.8133 309.456 95.6C309.056 95.3733 308.576 95.26 308.016 95.26C307.456 95.26 306.976 95.3733 306.576 95.6C306.176 95.8133 305.849 96.12 305.596 96.52C305.356 96.92 305.176 97.4067 305.056 97.98C304.936 98.5533 304.876 99.1867 304.876 99.88V102.16C304.876 102.867 304.936 103.507 305.056 104.08C305.176 104.64 305.356 105.12 305.596 105.52C305.849 105.92 306.176 106.233 306.576 106.46C306.976 106.673 307.456 106.78 308.016 106.78ZM308.016 102.2C307.549 102.2 307.222 102.107 307.036 101.92C306.862 101.733 306.776 101.507 306.776 101.24V100.8C306.776 100.533 306.862 100.307 307.036 100.12C307.222 99.9333 307.549 99.84 308.016 99.84C308.482 99.84 308.802 99.9333 308.976 100.12C309.162 100.307 309.256 100.533 309.256 100.8V101.24C309.256 101.507 309.162 101.733 308.976 101.92C308.802 102.107 308.482 102.2 308.016 102.2ZM319.708 108V106.54H323.708V95.28H323.568L320.048 98.56L319.068 97.5L322.768 94.04H325.388V106.54H329.068V108H319.708Z" fill="black"/>
<path d="M308.347 91.3681C308.55 91.729 309.007 91.8568 309.368 91.6534L315.249 88.3402C315.61 88.1369 315.738 87.6795 315.534 87.3186C315.331 86.9577 314.874 86.83 314.513 87.0333L309.285 89.9784L306.34 84.751C306.137 84.3901 305.679 84.2624 305.319 84.4657C304.958 84.669 304.83 85.1264 305.033 85.4873L308.347 91.3681ZM325.718 90.7828C324.546 86.9097 323.23 83.872 321.816 81.7657C320.423 79.6884 318.823 78.3564 317.042 78.2561C315.229 78.1539 313.597 79.3418 312.188 81.4C310.766 83.4771 309.448 86.6058 308.278 90.7983L309.722 91.2017C310.874 87.0776 312.137 84.1287 313.425 82.2474C314.726 80.3473 315.932 79.6959 316.958 79.7537C318.016 79.8133 319.255 80.6404 320.571 82.6015C321.867 84.5336 323.131 87.4135 324.282 91.2172L325.718 90.7828Z" fill="#5158F6"/>
<path d="M378.4 221.96C379.373 221.96 380.1 221.747 380.58 221.32C381.073 220.88 381.32 220.32 381.32 219.64V219.5C381.32 218.753 381.08 218.193 380.6 217.82C380.133 217.447 379.52 217.26 378.76 217.26C378.013 217.26 377.407 217.427 376.94 217.76C376.487 218.08 376.113 218.507 375.82 219.04L374.56 218.08C374.733 217.8 374.947 217.527 375.2 217.26C375.453 216.98 375.747 216.733 376.08 216.52C376.427 216.307 376.82 216.133 377.26 216C377.713 215.867 378.227 215.8 378.8 215.8C379.4 215.8 379.96 215.88 380.48 216.04C381 216.187 381.453 216.413 381.84 216.72C382.227 217.013 382.527 217.38 382.74 217.82C382.967 218.26 383.08 218.76 383.08 219.32C383.08 219.773 383.007 220.18 382.86 220.54C382.727 220.9 382.533 221.213 382.28 221.48C382.04 221.747 381.753 221.973 381.42 222.16C381.087 222.347 380.733 222.487 380.36 222.58V222.66C380.747 222.74 381.12 222.873 381.48 223.06C381.84 223.233 382.16 223.467 382.44 223.76C382.72 224.04 382.94 224.387 383.1 224.8C383.273 225.2 383.36 225.66 383.36 226.18C383.36 226.78 383.24 227.333 383 227.84C382.773 228.333 382.447 228.76 382.02 229.12C381.607 229.467 381.1 229.74 380.5 229.94C379.913 230.14 379.26 230.24 378.54 230.24C377.927 230.24 377.38 230.173 376.9 230.04C376.433 229.907 376.013 229.727 375.64 229.5C375.28 229.273 374.96 229.02 374.68 228.74C374.413 228.46 374.173 228.167 373.96 227.86L375.22 226.9C375.407 227.18 375.6 227.433 375.8 227.66C376 227.887 376.227 228.087 376.48 228.26C376.747 228.42 377.047 228.547 377.38 228.64C377.713 228.733 378.1 228.78 378.54 228.78C379.527 228.78 380.28 228.553 380.8 228.1C381.333 227.647 381.6 227 381.6 226.16V226C381.6 225.173 381.34 224.533 380.82 224.08C380.313 223.627 379.547 223.4 378.52 223.4H376.86V221.96H378.4Z" fill="black"/>
<path d="M383.74 170H374.42V168.28L379.08 164.08C379.76 163.467 380.32 162.84 380.76 162.2C381.2 161.547 381.42 160.86 381.42 160.14V159.9C381.42 159.06 381.2 158.413 380.76 157.96C380.32 157.493 379.667 157.26 378.8 157.26C377.947 157.26 377.287 157.48 376.82 157.92C376.367 158.347 376.027 158.92 375.8 159.64L374.3 159.08C374.433 158.667 374.613 158.267 374.84 157.88C375.08 157.48 375.38 157.127 375.74 156.82C376.1 156.513 376.533 156.267 377.04 156.08C377.56 155.893 378.16 155.8 378.84 155.8C379.533 155.8 380.147 155.9 380.68 156.1C381.227 156.3 381.68 156.58 382.04 156.94C382.413 157.3 382.693 157.727 382.88 158.22C383.08 158.713 383.18 159.253 383.18 159.84C383.18 160.373 383.1 160.873 382.94 161.34C382.793 161.807 382.58 162.253 382.3 162.68C382.033 163.107 381.707 163.527 381.32 163.94C380.947 164.34 380.527 164.74 380.06 165.14L376.16 168.54H383.74V170Z" fill="black"/>
<path d="M260.039 230.24C259.186 230.24 258.452 230.08 257.839 229.76C257.226 229.427 256.719 228.953 256.319 228.34C255.919 227.727 255.626 226.973 255.439 226.08C255.252 225.187 255.159 224.167 255.159 223.02C255.159 221.887 255.252 220.873 255.439 219.98C255.626 219.073 255.919 218.313 256.319 217.7C256.719 217.087 257.226 216.62 257.839 216.3C258.452 215.967 259.186 215.8 260.039 215.8C260.892 215.8 261.626 215.967 262.239 216.3C262.852 216.62 263.359 217.087 263.759 217.7C264.159 218.313 264.452 219.073 264.639 219.98C264.826 220.873 264.919 221.887 264.919 223.02C264.919 224.167 264.826 225.187 264.639 226.08C264.452 226.973 264.159 227.727 263.759 228.34C263.359 228.953 262.852 229.427 262.239 229.76C261.626 230.08 260.892 230.24 260.039 230.24ZM260.039 228.78C260.599 228.78 261.079 228.673 261.479 228.46C261.879 228.233 262.199 227.92 262.439 227.52C262.692 227.12 262.879 226.64 262.999 226.08C263.119 225.507 263.179 224.867 263.179 224.16V221.88C263.179 221.187 263.119 220.553 262.999 219.98C262.879 219.407 262.692 218.92 262.439 218.52C262.199 218.12 261.879 217.813 261.479 217.6C261.079 217.373 260.599 217.26 260.039 217.26C259.479 217.26 258.999 217.373 258.599 217.6C258.199 217.813 257.872 218.12 257.619 218.52C257.379 218.92 257.199 219.407 257.079 219.98C256.959 220.553 256.899 221.187 256.899 221.88V224.16C256.899 224.867 256.959 225.507 257.079 226.08C257.199 226.64 257.379 227.12 257.619 227.52C257.872 227.92 258.199 228.233 258.599 228.46C258.999 228.673 259.479 228.78 260.039 228.78ZM260.039 224.2C259.572 224.2 259.246 224.107 259.059 223.92C258.886 223.733 258.799 223.507 258.799 223.24V222.8C258.799 222.533 258.886 222.307 259.059 222.12C259.246 221.933 259.572 221.84 260.039 221.84C260.506 221.84 260.826 221.933 260.999 222.12C261.186 222.307 261.279 222.533 261.279 222.8V223.24C261.279 223.507 261.186 223.733 260.999 223.92C260.826 224.107 260.506 224.2 260.039 224.2ZM276.031 230.24C275.178 230.24 274.445 230.08 273.831 229.76C273.218 229.427 272.711 228.953 272.311 228.34C271.911 227.727 271.618 226.973 271.431 226.08C271.245 225.187 271.151 224.167 271.151 223.02C271.151 221.887 271.245 220.873 271.431 219.98C271.618 219.073 271.911 218.313 272.311 217.7C272.711 217.087 273.218 216.62 273.831 216.3C274.445 215.967 275.178 215.8 276.031 215.8C276.885 215.8 277.618 215.967 278.231 216.3C278.845 216.62 279.351 217.087 279.751 217.7C280.151 218.313 280.445 219.073 280.631 219.98C280.818 220.873 280.911 221.887 280.911 223.02C280.911 224.167 280.818 225.187 280.631 226.08C280.445 226.973 280.151 227.727 279.751 228.34C279.351 228.953 278.845 229.427 278.231 229.76C277.618 230.08 276.885 230.24 276.031 230.24ZM276.031 228.78C276.591 228.78 277.071 228.673 277.471 228.46C277.871 228.233 278.191 227.92 278.431 227.52C278.685 227.12 278.871 226.64 278.991 226.08C279.111 225.507 279.171 224.867 279.171 224.16V221.88C279.171 221.187 279.111 220.553 278.991 219.98C278.871 219.407 278.685 218.92 278.431 218.52C278.191 218.12 277.871 217.813 277.471 217.6C277.071 217.373 276.591 217.26 276.031 217.26C275.471 217.26 274.991 217.373 274.591 217.6C274.191 217.813 273.865 218.12 273.611 218.52C273.371 218.92 273.191 219.407 273.071 219.98C272.951 220.553 272.891 221.187 272.891 221.88V224.16C272.891 224.867 272.951 225.507 273.071 226.08C273.191 226.64 273.371 227.12 273.611 227.52C273.865 227.92 274.191 228.233 274.591 228.46C274.991 228.673 275.471 228.78 276.031 228.78ZM276.031 224.2C275.565 224.2 275.238 224.107 275.051 223.92C274.878 223.733 274.791 223.507 274.791 223.24V222.8C274.791 222.533 274.878 222.307 275.051 222.12C275.238 221.933 275.565 221.84 276.031 221.84C276.498 221.84 276.818 221.933 276.991 222.12C277.178 222.307 277.271 222.533 277.271 222.8V223.24C277.271 223.507 277.178 223.733 276.991 223.92C276.818 224.107 276.498 224.2 276.031 224.2ZM292.023 230.24C291.17 230.24 290.437 230.08 289.823 229.76C289.21 229.427 288.703 228.953 288.303 228.34C287.903 227.727 287.61 226.973 287.423 226.08C287.237 225.187 287.143 224.167 287.143 223.02C287.143 221.887 287.237 220.873 287.423 219.98C287.61 219.073 287.903 218.313 288.303 217.7C288.703 217.087 289.21 216.62 289.823 216.3C290.437 215.967 291.17 215.8 292.023 215.8C292.877 215.8 293.61 215.967 294.223 216.3C294.837 216.62 295.343 217.087 295.743 217.7C296.143 218.313 296.437 219.073 296.623 219.98C296.81 220.873 296.903 221.887 296.903 223.02C296.903 224.167 296.81 225.187 296.623 226.08C296.437 226.973 296.143 227.727 295.743 228.34C295.343 228.953 294.837 229.427 294.223 229.76C293.61 230.08 292.877 230.24 292.023 230.24ZM292.023 228.78C292.583 228.78 293.063 228.673 293.463 228.46C293.863 228.233 294.183 227.92 294.423 227.52C294.677 227.12 294.863 226.64 294.983 226.08C295.103 225.507 295.163 224.867 295.163 224.16V221.88C295.163 221.187 295.103 220.553 294.983 219.98C294.863 219.407 294.677 218.92 294.423 218.52C294.183 218.12 293.863 217.813 293.463 217.6C293.063 217.373 292.583 217.26 292.023 217.26C291.463 217.26 290.983 217.373 290.583 217.6C290.183 217.813 289.857 218.12 289.603 218.52C289.363 218.92 289.183 219.407 289.063 219.98C288.943 220.553 288.883 221.187 288.883 221.88V224.16C288.883 224.867 288.943 225.507 289.063 226.08C289.183 226.64 289.363 227.12 289.603 227.52C289.857 227.92 290.183 228.233 290.583 228.46C290.983 228.673 291.463 228.78 292.023 228.78ZM292.023 224.2C291.557 224.2 291.23 224.107 291.043 223.92C290.87 223.733 290.783 223.507 290.783 223.24V222.8C290.783 222.533 290.87 222.307 291.043 222.12C291.23 221.933 291.557 221.84 292.023 221.84C292.49 221.84 292.81 221.933 292.983 222.12C293.17 222.307 293.263 222.533 293.263 222.8V223.24C293.263 223.507 293.17 223.733 292.983 223.92C292.81 224.107 292.49 224.2 292.023 224.2ZM303.716 230V228.54H307.716V217.28H307.576L304.056 220.56L303.076 219.5L306.776 216.04H309.396V228.54H313.076V230H303.716ZM319.708 230V228.54H323.708V217.28H323.568L320.048 220.56L319.068 219.5L322.768 216.04H325.388V228.54H329.068V230H319.708Z" fill="black"/>
<path d="M380.56 290V287.26H373.68V285.78L379.72 276.04H382.16V285.88H384.24V287.26H382.16V290H380.56ZM375.18 285.88H380.56V277.34H380.48L375.18 285.88Z" fill="black"/>
<path d="M260.039 170.24C259.186 170.24 258.452 170.08 257.839 169.76C257.226 169.427 256.719 168.953 256.319 168.34C255.919 167.727 255.626 166.973 255.439 166.08C255.252 165.187 255.159 164.167 255.159 163.02C255.159 161.887 255.252 160.873 255.439 159.98C255.626 159.073 255.919 158.313 256.319 157.7C256.719 157.087 257.226 156.62 257.839 156.3C258.452 155.967 259.186 155.8 260.039 155.8C260.892 155.8 261.626 155.967 262.239 156.3C262.852 156.62 263.359 157.087 263.759 157.7C264.159 158.313 264.452 159.073 264.639 159.98C264.826 160.873 264.919 161.887 264.919 163.02C264.919 164.167 264.826 165.187 264.639 166.08C264.452 166.973 264.159 167.727 263.759 168.34C263.359 168.953 262.852 169.427 262.239 169.76C261.626 170.08 260.892 170.24 260.039 170.24ZM260.039 168.78C260.599 168.78 261.079 168.673 261.479 168.46C261.879 168.233 262.199 167.92 262.439 167.52C262.692 167.12 262.879 166.64 262.999 166.08C263.119 165.507 263.179 164.867 263.179 164.16V161.88C263.179 161.187 263.119 160.553 262.999 159.98C262.879 159.407 262.692 158.92 262.439 158.52C262.199 158.12 261.879 157.813 261.479 157.6C261.079 157.373 260.599 157.26 260.039 157.26C259.479 157.26 258.999 157.373 258.599 157.6C258.199 157.813 257.872 158.12 257.619 158.52C257.379 158.92 257.199 159.407 257.079 159.98C256.959 160.553 256.899 161.187 256.899 161.88V164.16C256.899 164.867 256.959 165.507 257.079 166.08C257.199 166.64 257.379 167.12 257.619 167.52C257.872 167.92 258.199 168.233 258.599 168.46C258.999 168.673 259.479 168.78 260.039 168.78ZM260.039 164.2C259.572 164.2 259.246 164.107 259.059 163.92C258.886 163.733 258.799 163.507 258.799 163.24V162.8C258.799 162.533 258.886 162.307 259.059 162.12C259.246 161.933 259.572 161.84 260.039 161.84C260.506 161.84 260.826 161.933 260.999 162.12C261.186 162.307 261.279 162.533 261.279 162.8V163.24C261.279 163.507 261.186 163.733 260.999 163.92C260.826 164.107 260.506 164.2 260.039 164.2ZM276.031 170.24C275.178 170.24 274.445 170.08 273.831 169.76C273.218 169.427 272.711 168.953 272.311 168.34C271.911 167.727 271.618 166.973 271.431 166.08C271.245 165.187 271.151 164.167 271.151 163.02C271.151 161.887 271.245 160.873 271.431 159.98C271.618 159.073 271.911 158.313 272.311 157.7C272.711 157.087 273.218 156.62 273.831 156.3C274.445 155.967 275.178 155.8 276.031 155.8C276.885 155.8 277.618 155.967 278.231 156.3C278.845 156.62 279.351 157.087 279.751 157.7C280.151 158.313 280.445 159.073 280.631 159.98C280.818 160.873 280.911 161.887 280.911 163.02C280.911 164.167 280.818 165.187 280.631 166.08C280.445 166.973 280.151 167.727 279.751 168.34C279.351 168.953 278.845 169.427 278.231 169.76C277.618 170.08 276.885 170.24 276.031 170.24ZM276.031 168.78C276.591 168.78 277.071 168.673 277.471 168.46C277.871 168.233 278.191 167.92 278.431 167.52C278.685 167.12 278.871 166.64 278.991 166.08C279.111 165.507 279.171 164.867 279.171 164.16V161.88C279.171 161.187 279.111 160.553 278.991 159.98C278.871 159.407 278.685 158.92 278.431 158.52C278.191 158.12 277.871 157.813 277.471 157.6C277.071 157.373 276.591 157.26 276.031 157.26C275.471 157.26 274.991 157.373 274.591 157.6C274.191 157.813 273.865 158.12 273.611 158.52C273.371 158.92 273.191 159.407 273.071 159.98C272.951 160.553 272.891 161.187 272.891 161.88V164.16C272.891 164.867 272.951 165.507 273.071 166.08C273.191 166.64 273.371 167.12 273.611 167.52C273.865 167.92 274.191 168.233 274.591 168.46C274.991 168.673 275.471 168.78 276.031 168.78ZM276.031 164.2C275.565 164.2 275.238 164.107 275.051 163.92C274.878 163.733 274.791 163.507 274.791 163.24V162.8C274.791 162.533 274.878 162.307 275.051 162.12C275.238 161.933 275.565 161.84 276.031 161.84C276.498 161.84 276.818 161.933 276.991 162.12C277.178 162.307 277.271 162.533 277.271 162.8V163.24C277.271 163.507 277.178 163.733 276.991 163.92C276.818 164.107 276.498 164.2 276.031 164.2ZM292.023 170.24C291.17 170.24 290.437 170.08 289.823 169.76C289.21 169.427 288.703 168.953 288.303 168.34C287.903 167.727 287.61 166.973 287.423 166.08C287.237 165.187 287.143 164.167 287.143 163.02C287.143 161.887 287.237 160.873 287.423 159.98C287.61 159.073 287.903 158.313 288.303 157.7C288.703 157.087 289.21 156.62 289.823 156.3C290.437 155.967 291.17 155.8 292.023 155.8C292.877 155.8 293.61 155.967 294.223 156.3C294.837 156.62 295.343 157.087 295.743 157.7C296.143 158.313 296.437 159.073 296.623 159.98C296.81 160.873 296.903 161.887 296.903 163.02C296.903 164.167 296.81 165.187 296.623 166.08C296.437 166.973 296.143 167.727 295.743 168.34C295.343 168.953 294.837 169.427 294.223 169.76C293.61 170.08 292.877 170.24 292.023 170.24ZM292.023 168.78C292.583 168.78 293.063 168.673 293.463 168.46C293.863 168.233 294.183 167.92 294.423 167.52C294.677 167.12 294.863 166.64 294.983 166.08C295.103 165.507 295.163 164.867 295.163 164.16V161.88C295.163 161.187 295.103 160.553 294.983 159.98C294.863 159.407 294.677 158.92 294.423 158.52C294.183 158.12 293.863 157.813 293.463 157.6C293.063 157.373 292.583 157.26 292.023 157.26C291.463 157.26 290.983 157.373 290.583 157.6C290.183 157.813 289.857 158.12 289.603 158.52C289.363 158.92 289.183 159.407 289.063 159.98C288.943 160.553 288.883 161.187 288.883 161.88V164.16C288.883 164.867 288.943 165.507 289.063 166.08C289.183 166.64 289.363 167.12 289.603 167.52C289.857 167.92 290.183 168.233 290.583 168.46C290.983 168.673 291.463 168.78 292.023 168.78ZM292.023 164.2C291.557 164.2 291.23 164.107 291.043 163.92C290.87 163.733 290.783 163.507 290.783 163.24V162.8C290.783 162.533 290.87 162.307 291.043 162.12C291.23 161.933 291.557 161.84 292.023 161.84C292.49 161.84 292.81 161.933 292.983 162.12C293.17 162.307 293.263 162.533 293.263 162.8V163.24C293.263 163.507 293.17 163.733 292.983 163.92C292.81 164.107 292.49 164.2 292.023 164.2ZM303.716 170V168.54H307.716V157.28H307.576L304.056 160.56L303.076 159.5L306.776 156.04H309.396V168.54H313.076V170H303.716ZM324.008 170.24C323.154 170.24 322.421 170.08 321.808 169.76C321.194 169.427 320.688 168.953 320.288 168.34C319.888 167.727 319.594 166.973 319.408 166.08C319.221 165.187 319.128 164.167 319.128 163.02C319.128 161.887 319.221 160.873 319.408 159.98C319.594 159.073 319.888 158.313 320.288 157.7C320.688 157.087 321.194 156.62 321.808 156.3C322.421 155.967 323.154 155.8 324.008 155.8C324.861 155.8 325.594 155.967 326.208 156.3C326.821 156.62 327.328 157.087 327.728 157.7C328.128 158.313 328.421 159.073 328.608 159.98C328.794 160.873 328.888 161.887 328.888 163.02C328.888 164.167 328.794 165.187 328.608 166.08C328.421 166.973 328.128 167.727 327.728 168.34C327.328 168.953 326.821 169.427 326.208 169.76C325.594 170.08 324.861 170.24 324.008 170.24ZM324.008 168.78C324.568 168.78 325.048 168.673 325.448 168.46C325.848 168.233 326.168 167.92 326.408 167.52C326.661 167.12 326.848 166.64 326.968 166.08C327.088 165.507 327.148 164.867 327.148 164.16V161.88C327.148 161.187 327.088 160.553 326.968 159.98C326.848 159.407 326.661 158.92 326.408 158.52C326.168 158.12 325.848 157.813 325.448 157.6C325.048 157.373 324.568 157.26 324.008 157.26C323.448 157.26 322.968 157.373 322.568 157.6C322.168 157.813 321.841 158.12 321.588 158.52C321.348 158.92 321.168 159.407 321.048 159.98C320.928 160.553 320.868 161.187 320.868 161.88V164.16C320.868 164.867 320.928 165.507 321.048 166.08C321.168 166.64 321.348 167.12 321.588 167.52C321.841 167.92 322.168 168.233 322.568 168.46C322.968 168.673 323.448 168.78 324.008 168.78ZM324.008 164.2C323.541 164.2 323.214 164.107 323.028 163.92C322.854 163.733 322.768 163.507 322.768 163.24V162.8C322.768 162.533 322.854 162.307 323.028 162.12C323.214 161.933 323.541 161.84 324.008 161.84C324.474 161.84 324.794 161.933 324.968 162.12C325.154 162.307 325.248 162.533 325.248 162.8V163.24C325.248 163.507 325.154 163.733 324.968 163.92C324.794 164.107 324.474 164.2 324.008 164.2Z" fill="black"/>
<path d="M260.039 290.24C259.186 290.24 258.452 290.08 257.839 289.76C257.226 289.427 256.719 288.953 256.319 288.34C255.919 287.727 255.626 286.973 255.439 286.08C255.252 285.187 255.159 284.167 255.159 283.02C255.159 281.887 255.252 280.873 255.439 279.98C255.626 279.073 255.919 278.313 256.319 277.7C256.719 277.087 257.226 276.62 257.839 276.3C258.452 275.967 259.186 275.8 260.039 275.8C260.892 275.8 261.626 275.967 262.239 276.3C262.852 276.62 263.359 277.087 263.759 277.7C264.159 278.313 264.452 279.073 264.639 279.98C264.826 280.873 264.919 281.887 264.919 283.02C264.919 284.167 264.826 285.187 264.639 286.08C264.452 286.973 264.159 287.727 263.759 288.34C263.359 288.953 262.852 289.427 262.239 289.76C261.626 290.08 260.892 290.24 260.039 290.24ZM260.039 288.78C260.599 288.78 261.079 288.673 261.479 288.46C261.879 288.233 262.199 287.92 262.439 287.52C262.692 287.12 262.879 286.64 262.999 286.08C263.119 285.507 263.179 284.867 263.179 284.16V281.88C263.179 281.187 263.119 280.553 262.999 279.98C262.879 279.407 262.692 278.92 262.439 278.52C262.199 278.12 261.879 277.813 261.479 277.6C261.079 277.373 260.599 277.26 260.039 277.26C259.479 277.26 258.999 277.373 258.599 277.6C258.199 277.813 257.872 278.12 257.619 278.52C257.379 278.92 257.199 279.407 257.079 279.98C256.959 280.553 256.899 281.187 256.899 281.88V284.16C256.899 284.867 256.959 285.507 257.079 286.08C257.199 286.64 257.379 287.12 257.619 287.52C257.872 287.92 258.199 288.233 258.599 288.46C258.999 288.673 259.479 288.78 260.039 288.78ZM260.039 284.2C259.572 284.2 259.246 284.107 259.059 283.92C258.886 283.733 258.799 283.507 258.799 283.24V282.8C258.799 282.533 258.886 282.307 259.059 282.12C259.246 281.933 259.572 281.84 260.039 281.84C260.506 281.84 260.826 281.933 260.999 282.12C261.186 282.307 261.279 282.533 261.279 282.8V283.24C261.279 283.507 261.186 283.733 260.999 283.92C260.826 284.107 260.506 284.2 260.039 284.2ZM276.031 290.24C275.178 290.24 274.445 290.08 273.831 289.76C273.218 289.427 272.711 288.953 272.311 288.34C271.911 287.727 271.618 286.973 271.431 286.08C271.245 285.187 271.151 284.167 271.151 283.02C271.151 281.887 271.245 280.873 271.431 279.98C271.618 279.073 271.911 278.313 272.311 277.7C272.711 277.087 273.218 276.62 273.831 276.3C274.445 275.967 275.178 275.8 276.031 275.8C276.885 275.8 277.618 275.967 278.231 276.3C278.845 276.62 279.351 277.087 279.751 277.7C280.151 278.313 280.445 279.073 280.631 279.98C280.818 280.873 280.911 281.887 280.911 283.02C280.911 284.167 280.818 285.187 280.631 286.08C280.445 286.973 280.151 287.727 279.751 288.34C279.351 288.953 278.845 289.427 278.231 289.76C277.618 290.08 276.885 290.24 276.031 290.24ZM276.031 288.78C276.591 288.78 277.071 288.673 277.471 288.46C277.871 288.233 278.191 287.92 278.431 287.52C278.685 287.12 278.871 286.64 278.991 286.08C279.111 285.507 279.171 284.867 279.171 284.16V281.88C279.171 281.187 279.111 280.553 278.991 279.98C278.871 279.407 278.685 278.92 278.431 278.52C278.191 278.12 277.871 277.813 277.471 277.6C277.071 277.373 276.591 277.26 276.031 277.26C275.471 277.26 274.991 277.373 274.591 277.6C274.191 277.813 273.865 278.12 273.611 278.52C273.371 278.92 273.191 279.407 273.071 279.98C272.951 280.553 272.891 281.187 272.891 281.88V284.16C272.891 284.867 272.951 285.507 273.071 286.08C273.191 286.64 273.371 287.12 273.611 287.52C273.865 287.92 274.191 288.233 274.591 288.46C274.991 288.673 275.471 288.78 276.031 288.78ZM276.031 284.2C275.565 284.2 275.238 284.107 275.051 283.92C274.878 283.733 274.791 283.507 274.791 283.24V282.8C274.791 282.533 274.878 282.307 275.051 282.12C275.238 281.933 275.565 281.84 276.031 281.84C276.498 281.84 276.818 281.933 276.991 282.12C277.178 282.307 277.271 282.533 277.271 282.8V283.24C277.271 283.507 277.178 283.733 276.991 283.92C276.818 284.107 276.498 284.2 276.031 284.2ZM287.723 290V288.54H291.723V277.28H291.583L288.063 280.56L287.083 279.5L290.783 276.04H293.403V288.54H297.083V290H287.723ZM308.016 290.24C307.162 290.24 306.429 290.08 305.816 289.76C305.202 289.427 304.696 288.953 304.296 288.34C303.896 287.727 303.602 286.973 303.416 286.08C303.229 285.187 303.136 284.167 303.136 283.02C303.136 281.887 303.229 280.873 303.416 279.98C303.602 279.073 303.896 278.313 304.296 277.7C304.696 277.087 305.202 276.62 305.816 276.3C306.429 275.967 307.162 275.8 308.016 275.8C308.869 275.8 309.602 275.967 310.216 276.3C310.829 276.62 311.336 277.087 311.736 277.7C312.136 278.313 312.429 279.073 312.616 279.98C312.802 280.873 312.896 281.887 312.896 283.02C312.896 284.167 312.802 285.187 312.616 286.08C312.429 286.973 312.136 287.727 311.736 288.34C311.336 288.953 310.829 289.427 310.216 289.76C309.602 290.08 308.869 290.24 308.016 290.24ZM308.016 288.78C308.576 288.78 309.056 288.673 309.456 288.46C309.856 288.233 310.176 287.92 310.416 287.52C310.669 287.12 310.856 286.64 310.976 286.08C311.096 285.507 311.156 284.867 311.156 284.16V281.88C311.156 281.187 311.096 280.553 310.976 279.98C310.856 279.407 310.669 278.92 310.416 278.52C310.176 278.12 309.856 277.813 309.456 277.6C309.056 277.373 308.576 277.26 308.016 277.26C307.456 277.26 306.976 277.373 306.576 277.6C306.176 277.813 305.849 278.12 305.596 278.52C305.356 278.92 305.176 279.407 305.056 279.98C304.936 280.553 304.876 281.187 304.876 281.88V284.16C304.876 284.867 304.936 285.507 305.056 286.08C305.176 286.64 305.356 287.12 305.596 287.52C305.849 287.92 306.176 288.233 306.576 288.46C306.976 288.673 307.456 288.78 308.016 288.78ZM308.016 284.2C307.549 284.2 307.222 284.107 307.036 283.92C306.862 283.733 306.776 283.507 306.776 283.24V282.8C306.776 282.533 306.862 282.307 307.036 282.12C307.222 281.933 307.549 281.84 308.016 281.84C308.482 281.84 308.802 281.933 308.976 282.12C309.162 282.307 309.256 282.533 309.256 282.8V283.24C309.256 283.507 309.162 283.733 308.976 283.92C308.802 284.107 308.482 284.2 308.016 284.2ZM324.008 290.24C323.154 290.24 322.421 290.08 321.808 289.76C321.194 289.427 320.688 288.953 320.288 288.34C319.888 287.727 319.594 286.973 319.408 286.08C319.221 285.187 319.128 284.167 319.128 283.02C319.128 281.887 319.221 280.873 319.408 279.98C319.594 279.073 319.888 278.313 320.288 277.7C320.688 277.087 321.194 276.62 321.808 276.3C322.421 275.967 323.154 275.8 324.008 275.8C324.861 275.8 325.594 275.967 326.208 276.3C326.821 276.62 327.328 277.087 327.728 277.7C328.128 278.313 328.421 279.073 328.608 279.98C328.794 280.873 328.888 281.887 328.888 283.02C328.888 284.167 328.794 285.187 328.608 286.08C328.421 286.973 328.128 287.727 327.728 288.34C327.328 288.953 326.821 289.427 326.208 289.76C325.594 290.08 324.861 290.24 324.008 290.24ZM324.008 288.78C324.568 288.78 325.048 288.673 325.448 288.46C325.848 288.233 326.168 287.92 326.408 287.52C326.661 287.12 326.848 286.64 326.968 286.08C327.088 285.507 327.148 284.867 327.148 284.16V281.88C327.148 281.187 327.088 280.553 326.968 279.98C326.848 279.407 326.661 278.92 326.408 278.52C326.168 278.12 325.848 277.813 325.448 277.6C325.048 277.373 324.568 277.26 324.008 277.26C323.448 277.26 322.968 277.373 322.568 277.6C322.168 277.813 321.841 278.12 321.588 278.52C321.348 278.92 321.168 279.407 321.048 279.98C320.928 280.553 320.868 281.187 320.868 281.88V284.16C320.868 284.867 320.928 285.507 321.048 286.08C321.168 286.64 321.348 287.12 321.588 287.52C321.841 287.92 322.168 288.233 322.568 288.46C322.968 288.673 323.448 288.78 324.008 288.78ZM324.008 284.2C323.541 284.2 323.214 284.107 323.028 283.92C322.854 283.733 322.768 283.507 322.768 283.24V282.8C322.768 282.533 322.854 282.307 323.028 282.12C323.214 281.933 323.541 281.84 324.008 281.84C324.474 281.84 324.794 281.933 324.968 282.12C325.154 282.307 325.248 282.533 325.248 282.8V283.24C325.248 283.507 325.154 283.733 324.968 283.92C324.794 284.107 324.474 284.2 324.008 284.2Z" fill="black"/>
<path d="M324.347 152.368C324.55 152.729 325.007 152.857 325.368 152.653L331.249 149.34C331.61 149.137 331.738 148.679 331.534 148.319C331.331 147.958 330.874 147.83 330.513 148.033L325.285 150.978L322.34 145.751C322.137 145.39 321.679 145.262 321.319 145.466C320.958 145.669 320.83 146.126 321.033 146.487L324.347 152.368ZM341.718 151.783C340.546 147.91 339.23 144.872 337.816 142.766C336.423 140.688 334.823 139.356 333.042 139.256C331.229 139.154 329.597 140.342 328.188 142.4C326.766 144.477 325.448 147.606 324.278 151.798L325.722 152.202C326.874 148.078 328.137 145.129 329.425 143.247C330.726 141.347 331.932 140.696 332.958 140.754C334.016 140.813 335.255 141.64 336.571 143.601C337.867 145.534 339.131 148.414 340.282 152.217L341.718 151.783Z" fill="#5158F6"/>
<path d="M308.347 209.368C308.55 209.729 309.007 209.857 309.368 209.653L315.249 206.34C315.61 206.137 315.738 205.679 315.534 205.319C315.331 204.958 314.874 204.83 314.513 205.033L309.285 207.978L306.34 202.751C306.137 202.39 305.679 202.262 305.319 202.466C304.958 202.669 304.83 203.126 305.033 203.487L308.347 209.368ZM325.718 208.783C324.546 204.91 323.23 201.872 321.816 199.766C320.423 197.688 318.823 196.356 317.042 196.256C315.229 196.154 313.597 197.342 312.188 199.4C310.766 201.477 309.448 204.606 308.278 208.798L309.722 209.202C310.874 205.078 312.137 202.129 313.425 200.247C314.726 198.347 315.932 197.696 316.958 197.754C318.016 197.813 319.255 198.64 320.571 200.601C321.867 202.534 323.131 205.414 324.282 209.217L325.718 208.783Z" fill="#5158F6"/>
<path d="M291.347 209.368C291.55 209.729 292.007 209.857 292.368 209.653L298.249 206.34C298.61 206.137 298.738 205.679 298.534 205.319C298.331 204.958 297.874 204.83 297.513 205.033L292.285 207.978L289.34 202.751C289.137 202.39 288.679 202.262 288.319 202.466C287.958 202.669 287.83 203.126 288.033 203.487L291.347 209.368ZM308.718 208.783C307.546 204.91 306.23 201.872 304.816 199.766C303.423 197.688 301.823 196.356 300.042 196.256C298.229 196.154 296.597 197.342 295.188 199.4C293.766 201.477 292.448 204.606 291.278 208.798L292.722 209.202C293.874 205.078 295.137 202.129 296.425 200.247C297.726 198.347 298.932 197.696 299.958 197.754C301.016 197.813 302.255 198.64 303.571 200.601C304.867 202.534 306.131 205.414 307.282 209.217L308.718 208.783Z" fill="#5158F6"/>
</svg>
