<svg width="419" height="239" viewBox="0 0 419 239" fill="none" xmlns="http://www.w3.org/2000/svg">
<path fill-rule="evenodd" clip-rule="evenodd" d="M75.402 209.599C73.839 210.114 72.1438 210.673 69.7809 211.218L69.2188 208.782C71.4644 208.264 72.9969 207.758 74.5225 207.255C75.1682 207.042 75.8127 206.83 76.5096 206.617C78.8427 205.904 82.6778 205.008 87.5 204.5L86.6307 207.243C81.9528 207.736 79.4069 208.346 77.2401 209.008C76.6258 209.196 76.0244 209.394 75.402 209.599Z" fill="white" stroke="black"/>
<path d="M391 60.5L393.5 202L349 215.5L239.5 211L234 185H211.5L214.924 31.4067C214.968 29.4434 216.43 27.8023 218.375 27.5335L338 11L387 39.5L391 60.5Z" fill="white" stroke="black"/>
<path d="M220 167V159.5C220 158.948 220.448 158.5 221 158.5H227C227.552 158.5 228 158.948 228 159.5V167C228 167.552 227.552 168 227 168H221C220.448 168 220 167.552 220 167Z" fill="white" stroke="black"/>
<path d="M340.5 12.5L337 189L211.5 184.5" stroke="black"/>
<path d="M345 14.5L342.075 170.009C342.03 172.383 343.534 174.511 345.787 175.262V175.262C348.004 176.001 349.5 178.077 349.5 180.414V216" stroke="black" stroke-width="0.5"/>
<path d="M220.156 123.249L223.881 45.4913C223.95 44.0474 225.039 42.8581 226.471 42.6625L323.02 29.4753C324.847 29.2258 326.465 30.668 326.425 32.5115L324.56 120.161C324.527 121.753 323.254 123.042 321.662 123.095L223.253 126.391C221.501 126.45 220.072 125 220.156 123.249Z" fill="white" stroke="black"/>
<path d="M317.381 120.209L235.938 122.781C232.097 122.902 228.876 119.904 228.723 116.064L228.135 101.381C227.712 90.8107 228.142 80.2239 229.419 69.7228L231.373 53.658C231.745 50.5951 234.079 48.1374 237.119 47.6072L275 41L318.131 36.7715C322.313 36.3614 325.912 39.7033 325.812 43.9047L324.158 113.379C324.069 117.094 321.094 120.092 317.381 120.209Z" fill="white" stroke="black"/>
<path d="M337.5 189L339.854 189.841C342.64 190.836 344.5 193.475 344.5 196.433V215" stroke="black"/>
<path d="M324 157V145C324 144.448 323.552 144 323 144H301C300.448 144 300 144.448 300 145V147C300 147.552 299.552 148 299 148H266C265.448 148 265 148.448 265 149V153.5C265 154.052 265.448 154.5 266 154.5H299C299.552 154.5 300 154.948 300 155.5V157C300 157.552 300.448 158 301 158H323C323.552 158 324 157.552 324 157Z" fill="white" stroke="black"/>
<path d="M304 150H271C270.448 150 270 150.448 270 151V151.5C270 152.052 270.448 152.5 271 152.5H304C304.552 152.5 305 152.948 305 153.5V155C305 155.552 305.448 156 306 156H319C319.552 156 320 155.552 320 155V147C320 146.448 319.552 146 319 146H306C305.448 146 305 146.448 305 147V149C305 149.552 304.552 150 304 150Z" fill="white" stroke="black"/>
<path d="M70.416 219.576L69.0661 204.727C69.0267 204.294 68.7118 203.936 68.2872 203.842L60.1072 202.024C60.0359 202.008 59.9632 202 59.8902 202H38.1288C38.0433 202 37.9581 202.011 37.8754 202.033L17.1474 207.461C17.0497 207.487 16.9564 207.527 16.8708 207.581L9.40329 212.248C9.14812 212.407 8.97833 212.673 8.94101 212.972L8 220.5V223.12C8 223.623 8.37409 224.048 8.87337 224.111L31.3541 226.981C31.4508 226.994 31.5489 226.992 31.6451 226.976L69.5845 220.653C70.1008 220.567 70.4634 220.097 70.416 219.576Z" fill="white" stroke="black"/>
<path d="M51.8418 203.994L38.5838 203.521C38.2581 203.509 38 203.242 38 202.916C38 202.665 38.1543 202.441 38.3881 202.351L44.31 200.073C44.4354 200.025 44.5692 200.002 44.7034 200.007L58.8837 200.496C58.961 200.499 59.0377 200.51 59.1123 200.531L64.1244 201.898C64.3462 201.958 64.5 202.159 64.5 202.389C64.5 202.707 64.212 202.948 63.8991 202.891L59.2294 202.042C59.0785 202.014 58.9233 202.022 58.7758 202.064L52.1522 203.957C52.0514 203.985 51.9466 203.998 51.8418 203.994Z" fill="white" stroke="black"/>
<path d="M70.5 217.5L33.4121 223.28C32.4746 223.426 31.5222 223.45 30.5786 223.352L8 221" stroke="black" stroke-width="0.5"/>
<path d="M68.5 204L31.8084 214.007C30.6114 214.333 29.3679 214.455 28.1304 214.366L9 213" stroke="black" stroke-width="0.5"/>
<path d="M287.506 189.501L283.815 188.579C283.605 188.526 283.391 188.497 283.176 188.49L132.167 184.02C131.728 184.007 131.291 184.09 130.888 184.265L91.4643 201.299C91.1569 201.432 90.874 201.616 90.6271 201.842L86.1009 205.991C85.4076 206.626 85.0524 207.55 85.1416 208.487L85.759 214.97C85.8981 216.43 87.0725 217.575 88.5356 217.678L245.951 228.716C248.577 228.9 251.191 228.216 253.39 226.768L289.442 203.026C290.396 202.398 290.91 201.282 290.769 200.149L289.755 192.04C289.601 190.81 288.708 189.802 287.506 189.501Z" fill="white" stroke="black"/>
<path d="M290.5 195.5L253.655 220.063C251.284 221.644 248.46 222.402 245.616 222.22L85.5 212" stroke="black" stroke-width="0.5"/>
<path d="M276 221L278 210.5L254.5 226L276 221Z" fill="white" stroke="black"/>
<path d="M245.722 203.557L264.79 191.856C266.059 191.077 266.565 189.486 265.979 188.117L264.756 185.264C264.295 184.189 263.251 183.479 262.082 183.447L138.659 180.018C138.225 180.006 137.793 180.089 137.394 180.26L114.841 189.925C113.994 190.288 113.361 191.02 113.124 191.91L111.755 197.043C111.626 197.526 111.991 198 112.491 198C112.997 198 113.362 198.484 113.223 198.97L112.988 199.793C112.738 200.665 113.367 201.542 114.273 201.585L226.348 206.969C226.778 206.989 227.207 206.917 227.606 206.758L233.964 204.215C234.318 204.073 234.696 204 235.078 204H244.153C244.707 204 245.25 203.847 245.722 203.557Z" fill="white" stroke="black"/>
<path d="M264 184L242.727 195.873C242.578 195.956 242.41 196 242.24 196H233.736C233.581 196 233.428 196.036 233.289 196.106L225.733 199.884C225.58 199.96 225.411 199.996 225.24 199.988L117.55 195.137C116.585 195.094 116.236 193.842 117.04 193.306L118.396 192.403C119.15 191.9 118.9 190.733 118.006 190.584L114.5 190" stroke="black" stroke-width="0.5"/>
<path fill-rule="evenodd" clip-rule="evenodd" d="M327.056 200.37C327.056 200.37 329.558 199.238 331 201.868C332.442 204.499 329.944 205.63 329.944 205.63L329.941 205.631L329.919 205.644C329.897 205.656 329.862 205.676 329.815 205.703C329.72 205.757 329.577 205.839 329.397 205.946C329.036 206.161 328.532 206.473 327.968 206.851C326.796 207.637 325.545 208.596 324.736 209.5C324.63 209.619 324.54 209.727 324.466 209.823C325.037 210.06 325.973 210.323 327.424 210.53C331.02 211.044 335.314 211.861 339.267 212.836C343.148 213.794 346.959 214.965 349.431 216.253C350.067 216.584 350.697 216.964 351.247 217.405C351.764 217.82 352.409 218.444 352.809 219.319C353.27 220.328 353.339 221.551 352.764 222.703C352.268 223.696 351.45 224.319 350.793 224.706C349.486 225.476 347.615 226.004 345.383 226.419C343.066 226.849 340.045 227.209 336.222 227.492C329.255 228.008 324.14 227.661 319.811 226.82C315.875 226.056 312.662 224.892 309.527 223.757C309.241 223.654 308.956 223.55 308.67 223.447C302.016 221.049 293.807 218.513 276.5 219L277.5 212.5C295.693 211.988 303.484 215.201 310.705 217.803C310.98 217.902 311.252 218 311.521 218.098C314.7 219.247 317.496 220.259 320.955 220.93C324.673 221.652 329.245 221.992 335.778 221.508C339.436 221.237 342.193 220.903 344.206 220.534C342.472 219.906 340.276 219.265 337.83 218.662C334.076 217.735 329.98 216.956 326.576 216.47C324.673 216.198 323.067 215.791 321.785 215.197C320.512 214.608 319.29 213.708 318.622 212.31C317.919 210.841 318.087 209.376 318.515 208.241C318.923 207.159 319.61 206.231 320.264 205.5C321.58 204.029 323.329 202.738 324.626 201.868C325.296 201.418 325.893 201.05 326.325 200.792C326.542 200.663 326.719 200.561 326.844 200.49C326.907 200.454 326.957 200.426 326.993 200.405L327.036 200.381L327.05 200.374L327.056 200.37Z" fill="white"/>
<path d="M323.9 209.517C323.9 209.517 323.902 209.519 323.905 209.522M331 201.868C329.558 199.238 327.056 200.37 327.056 200.37L327.05 200.374L327.036 200.381L326.993 200.405C326.957 200.426 326.907 200.454 326.844 200.49C326.719 200.561 326.542 200.663 326.325 200.792C325.893 201.05 325.296 201.418 324.626 201.868C323.329 202.738 321.58 204.029 320.264 205.5C319.61 206.231 318.923 207.159 318.515 208.241C318.087 209.376 317.919 210.841 318.622 212.31C319.29 213.708 320.512 214.608 321.785 215.197C323.067 215.791 324.673 216.198 326.576 216.47C329.98 216.956 334.076 217.735 337.83 218.662C340.276 219.265 342.472 219.906 344.206 220.534C342.193 220.903 339.436 221.237 335.778 221.508C329.245 221.992 324.673 221.652 320.955 220.93C317.496 220.259 314.7 219.247 311.521 218.098C311.252 218 310.98 217.902 310.705 217.803C303.484 215.201 295.693 211.988 277.5 212.5L276.5 219C293.807 218.513 302.016 221.049 308.67 223.447C308.956 223.55 309.241 223.654 309.527 223.757C312.662 224.892 315.875 226.056 319.811 226.82C324.14 227.661 329.255 228.008 336.222 227.492C340.045 227.209 343.066 226.849 345.383 226.419C347.615 226.004 349.486 225.476 350.793 224.706C351.45 224.319 352.268 223.696 352.764 222.703C353.339 221.551 353.27 220.328 352.809 219.319C352.409 218.444 351.764 217.82 351.247 217.405C350.697 216.964 350.067 216.584 349.431 216.253C346.959 214.965 343.148 213.794 339.267 212.836C335.314 211.861 331.02 211.044 327.424 210.53C325.973 210.323 325.037 210.06 324.466 209.823C324.54 209.727 324.63 209.619 324.736 209.5C325.545 208.596 326.796 207.637 327.968 206.851C328.532 206.473 329.036 206.161 329.397 205.946C329.577 205.839 329.72 205.757 329.815 205.703C329.862 205.676 329.897 205.656 329.919 205.644L329.941 205.631L329.944 205.63C329.944 205.63 332.442 204.499 331 201.868Z" stroke="black"/>
</svg>
