<svg width="640" height="300" viewBox="0 0 640 300" fill="none" xmlns="http://www.w3.org/2000/svg">
<path fill-rule="evenodd" clip-rule="evenodd" d="M256.402 239.599C254.839 240.114 253.144 240.673 250.781 241.218L250.219 238.782C252.464 238.264 253.997 237.758 255.522 237.255C256.168 237.042 256.813 236.83 257.51 236.617C259.843 235.904 263.678 235.008 268.5 234.5L267.631 237.243C262.953 237.736 260.407 238.346 258.24 239.008C257.626 239.196 257.024 239.394 256.402 239.599Z" fill="white" stroke="black"/>
<path d="M572 90.5L574.5 232L530 245.5L420.5 241L415 215H392.5L395.924 61.4067C395.968 59.4434 397.43 57.8023 399.375 57.5335L519 41L568 69.5L572 90.5Z" fill="white" stroke="black"/>
<path d="M401 197V189.5C401 188.948 401.448 188.5 402 188.5H408C408.552 188.5 409 188.948 409 189.5V197C409 197.552 408.552 198 408 198H402C401.448 198 401 197.552 401 197Z" fill="white" stroke="black"/>
<path d="M521.5 42.5L518 219L392.5 214.5" stroke="black"/>
<path d="M526 44.5L523.075 200.009C523.03 202.383 524.534 204.511 526.787 205.262V205.262C529.004 206.001 530.5 208.077 530.5 210.414V246" stroke="black" stroke-width="0.5"/>
<path d="M401.156 153.249L404.881 75.4913C404.95 74.0474 406.039 72.8581 407.471 72.6625L504.02 59.4753C505.847 59.2258 507.465 60.668 507.425 62.5115L505.56 150.161C505.527 151.753 504.254 153.042 502.662 153.095L404.253 156.391C402.501 156.45 401.072 155 401.156 153.249Z" fill="white" stroke="black"/>
<path d="M498.381 150.209L416.938 152.781C413.097 152.902 409.876 149.904 409.723 146.064L409.135 131.381C408.712 120.811 409.142 110.224 410.419 99.7228L412.373 83.658C412.745 80.5951 415.079 78.1374 418.119 77.6072L456 71L499.131 66.7715C503.313 66.3614 506.912 69.7033 506.812 73.9047L505.158 143.379C505.069 147.094 502.094 150.092 498.381 150.209Z" fill="white" stroke="black"/>
<path d="M518.5 219L520.854 219.841C523.64 220.836 525.5 223.475 525.5 226.433V245" stroke="black"/>
<path d="M505 187V175C505 174.448 504.552 174 504 174H482C481.448 174 481 174.448 481 175V177C481 177.552 480.552 178 480 178H447C446.448 178 446 178.448 446 179V183.5C446 184.052 446.448 184.5 447 184.5H480C480.552 184.5 481 184.948 481 185.5V187C481 187.552 481.448 188 482 188H504C504.552 188 505 187.552 505 187Z" fill="white" stroke="black"/>
<path d="M485 180H452C451.448 180 451 180.448 451 181V181.5C451 182.052 451.448 182.5 452 182.5H485C485.552 182.5 486 182.948 486 183.5V185C486 185.552 486.448 186 487 186H500C500.552 186 501 185.552 501 185V177C501 176.448 500.552 176 500 176H487C486.448 176 486 176.448 486 177V179C486 179.552 485.552 180 485 180Z" fill="white" stroke="black"/>
<path d="M251.416 249.576L250.066 234.727C250.027 234.294 249.712 233.936 249.287 233.842L241.107 232.024C241.036 232.008 240.963 232 240.89 232H219.129C219.043 232 218.958 232.011 218.875 232.033L198.147 237.461C198.05 237.487 197.956 237.527 197.871 237.581L190.403 242.248C190.148 242.407 189.978 242.673 189.941 242.972L189 250.5V253.12C189 253.623 189.374 254.048 189.873 254.111L212.354 256.981C212.451 256.994 212.549 256.992 212.645 256.976L250.584 250.653C251.101 250.567 251.463 250.097 251.416 249.576Z" fill="white" stroke="black"/>
<path d="M232.842 233.994L219.584 233.521C219.258 233.509 219 233.242 219 232.916C219 232.665 219.154 232.441 219.388 232.351L225.31 230.073C225.435 230.025 225.569 230.002 225.703 230.007L239.884 230.496C239.961 230.499 240.038 230.51 240.112 230.531L245.124 231.898C245.346 231.958 245.5 232.159 245.5 232.389C245.5 232.707 245.212 232.948 244.899 232.891L240.229 232.042C240.078 232.014 239.923 232.022 239.776 232.064L233.152 233.957C233.051 233.985 232.947 233.998 232.842 233.994Z" fill="white" stroke="black"/>
<path d="M251.5 247.5L214.412 253.28C213.475 253.426 212.522 253.45 211.579 253.352L189 251" stroke="black" stroke-width="0.5"/>
<path d="M249.5 234L212.808 244.007C211.611 244.333 210.368 244.455 209.13 244.366L190 243" stroke="black" stroke-width="0.5"/>
<path d="M468.506 219.501L464.815 218.579C464.605 218.526 464.391 218.497 464.176 218.49L313.167 214.02C312.728 214.007 312.291 214.09 311.888 214.265L272.464 231.299C272.157 231.432 271.874 231.616 271.627 231.842L267.101 235.991C266.408 236.626 266.052 237.55 266.142 238.487L266.759 244.97C266.898 246.43 268.072 247.575 269.536 247.678L426.951 258.716C429.577 258.9 432.191 258.216 434.39 256.768L470.442 233.026C471.396 232.398 471.91 231.282 471.769 230.149L470.755 222.04C470.601 220.81 469.708 219.802 468.506 219.501Z" fill="white" stroke="black"/>
<path d="M471.5 225.5L434.655 250.063C432.284 251.644 429.46 252.402 426.616 252.22L266.5 242" stroke="black" stroke-width="0.5"/>
<path d="M457 251L459 240.5L435.5 256L457 251Z" fill="white" stroke="black"/>
<path d="M426.722 233.557L445.79 221.856C447.059 221.077 447.565 219.486 446.979 218.117L445.756 215.264C445.295 214.189 444.251 213.479 443.082 213.447L319.659 210.018C319.225 210.006 318.793 210.089 318.394 210.26L295.841 219.925C294.994 220.288 294.361 221.02 294.124 221.91L292.755 227.043C292.626 227.526 292.991 228 293.491 228C293.997 228 294.362 228.484 294.223 228.97L293.988 229.793C293.738 230.665 294.367 231.542 295.273 231.585L407.348 236.969C407.778 236.989 408.207 236.917 408.606 236.758L414.964 234.215C415.318 234.073 415.696 234 416.078 234H425.153C425.707 234 426.25 233.847 426.722 233.557Z" fill="white" stroke="black"/>
<path d="M445 214L423.727 225.873C423.578 225.956 423.41 226 423.24 226H414.736C414.581 226 414.428 226.036 414.289 226.106L406.733 229.884C406.58 229.96 406.411 229.996 406.24 229.988L298.55 225.137C297.585 225.094 297.236 223.842 298.04 223.306L299.396 222.403C300.15 221.9 299.9 220.733 299.006 220.584L295.5 220" stroke="black" stroke-width="0.5"/>
<path fill-rule="evenodd" clip-rule="evenodd" d="M508.056 230.37C508.056 230.37 510.558 229.238 512 231.868C513.442 234.499 510.944 235.63 510.944 235.63L510.941 235.631L510.919 235.644C510.897 235.656 510.862 235.676 510.815 235.703C510.72 235.757 510.577 235.839 510.397 235.946C510.036 236.161 509.532 236.473 508.968 236.851C507.796 237.637 506.545 238.596 505.736 239.5C505.63 239.619 505.54 239.727 505.466 239.823C506.037 240.06 506.973 240.323 508.424 240.53C512.02 241.044 516.314 241.861 520.267 242.836C524.148 243.794 527.959 244.965 530.431 246.253C531.067 246.584 531.697 246.964 532.247 247.405C532.764 247.82 533.409 248.444 533.809 249.319C534.27 250.328 534.339 251.551 533.764 252.703C533.268 253.696 532.45 254.319 531.793 254.706C530.486 255.476 528.615 256.004 526.383 256.419C524.066 256.849 521.045 257.209 517.222 257.492C510.255 258.008 505.14 257.661 500.811 256.82C496.875 256.056 493.662 254.892 490.527 253.757C490.241 253.654 489.956 253.55 489.67 253.447C483.016 251.049 474.807 248.513 457.5 249L458.5 242.5C476.693 241.988 484.484 245.201 491.705 247.803C491.98 247.902 492.252 248 492.521 248.098C495.7 249.247 498.496 250.259 501.955 250.93C505.673 251.652 510.245 251.992 516.778 251.508C520.436 251.237 523.193 250.903 525.206 250.534C523.472 249.906 521.276 249.265 518.83 248.662C515.076 247.735 510.98 246.956 507.576 246.47C505.673 246.198 504.067 245.791 502.785 245.197C501.512 244.608 500.29 243.708 499.622 242.31C498.919 240.841 499.087 239.376 499.515 238.241C499.923 237.159 500.61 236.231 501.264 235.5C502.58 234.029 504.329 232.738 505.626 231.868C506.296 231.418 506.893 231.05 507.325 230.792C507.542 230.663 507.719 230.561 507.844 230.49C507.907 230.454 507.957 230.426 507.993 230.405L508.036 230.381L508.05 230.374L508.056 230.37Z" fill="white"/>
<path d="M504.9 239.517C504.9 239.517 504.902 239.519 504.905 239.522M512 231.868C510.558 229.238 508.056 230.37 508.056 230.37L508.05 230.374L508.036 230.381L507.993 230.405C507.957 230.426 507.907 230.454 507.844 230.49C507.719 230.561 507.542 230.663 507.325 230.792C506.893 231.05 506.296 231.418 505.626 231.868C504.329 232.738 502.58 234.029 501.264 235.5C500.61 236.231 499.923 237.159 499.515 238.241C499.087 239.376 498.919 240.841 499.622 242.31C500.29 243.708 501.512 244.608 502.785 245.197C504.067 245.791 505.673 246.198 507.576 246.47C510.98 246.956 515.076 247.735 518.83 248.662C521.276 249.265 523.472 249.906 525.206 250.534C523.193 250.903 520.436 251.237 516.778 251.508C510.245 251.992 505.673 251.652 501.955 250.93C498.496 250.259 495.7 249.247 492.521 248.098C492.252 248 491.98 247.902 491.705 247.803C484.484 245.201 476.693 241.988 458.5 242.5L457.5 249C474.807 248.513 483.016 251.049 489.67 253.447C489.956 253.55 490.241 253.654 490.527 253.757C493.662 254.892 496.875 256.056 500.811 256.82C505.14 257.661 510.255 258.008 517.222 257.492C521.045 257.209 524.066 256.849 526.383 256.419C528.615 256.004 530.486 255.476 531.793 254.706C532.45 254.319 533.268 253.696 533.764 252.703C534.339 251.551 534.27 250.328 533.809 249.319C533.409 248.444 532.764 247.82 532.247 247.405C531.697 246.964 531.067 246.584 530.431 246.253C527.959 244.965 524.148 243.794 520.267 242.836C516.314 241.861 512.02 241.044 508.424 240.53C506.973 240.323 506.037 240.06 505.466 239.823C505.54 239.727 505.63 239.619 505.736 239.5C506.545 238.596 507.796 237.637 508.968 236.851C509.532 236.473 510.036 236.161 510.397 235.946C510.577 235.839 510.72 235.757 510.815 235.703C510.862 235.676 510.897 235.656 510.919 235.644L510.941 235.631L510.944 235.63C510.944 235.63 513.442 234.499 512 231.868Z" stroke="black"/>
</svg>
