<svg width="422" height="415" viewBox="0 0 422 415" fill="none" xmlns="http://www.w3.org/2000/svg">
<path d="M170.4 306.31H174.841C182.29 306.31 189.425 309.314 194.63 314.642L226.617 347.382C231.823 352.71 238.957 355.714 246.407 355.714H249.448" stroke="black" stroke-width="1.38333"/>
<path d="M12.3054 207.5V207.5C32.883 207.5 52.5913 199.202 66.9715 184.483L120.488 129.706C133.618 116.267 151.612 108.691 170.401 108.691V108.691" stroke="black" stroke-width="1.38333"/>
<path d="M170.4 306.31H174.841C182.29 306.31 189.425 303.306 194.63 297.978L226.617 265.238C231.823 259.909 238.957 256.905 246.407 256.905H249.448" stroke="#5158F6" stroke-width="4.15"/>
<path d="M170.4 108.691H174.841C182.29 108.691 189.425 105.687 194.63 100.358L226.617 67.6183C231.823 62.2899 238.957 59.2859 246.407 59.2859H249.448" stroke="black" stroke-width="1.38333"/>
<path d="M170.4 108.69H174.841C182.29 108.69 189.425 111.694 194.63 117.023L226.617 149.763C231.823 155.091 238.957 158.095 246.407 158.095H249.448" stroke="black" stroke-width="1.38333"/>
<path d="M249.449 256.905V256.905C254.593 256.905 259.52 254.83 263.115 251.151L276.494 237.456C279.777 234.097 284.275 232.202 288.973 232.202V232.202" stroke="black" stroke-width="1.38333"/>
<path d="M249.448 256.905V256.905C254.593 256.905 259.52 258.979 263.115 262.659L276.494 276.353C279.776 279.713 284.275 281.607 288.972 281.607V281.607" stroke="#5158F6" stroke-width="4.15" stroke-linecap="round"/>
<path d="M249.449 355.715V355.715C254.593 355.715 259.52 353.64 263.115 349.96L276.494 336.266C279.777 332.906 284.275 331.012 288.973 331.012V331.012" stroke="black" stroke-width="1.38333"/>
<path d="M249.448 355.715V355.715C254.593 355.715 259.52 357.789 263.115 361.469L276.494 375.163C279.776 378.523 284.275 380.417 288.972 380.417V380.417" stroke="black" stroke-width="1.38333"/>
<path d="M249.449 59.2856V59.2856C254.593 59.2856 259.52 57.2111 263.115 53.5314L276.494 39.8371C279.777 36.4774 284.275 34.5833 288.973 34.5833V34.5833" stroke="black" stroke-width="1.38333"/>
<path d="M249.448 59.2857V59.2857C254.593 59.2857 259.52 61.3602 263.115 65.0399L276.494 78.7342C279.776 82.0939 284.275 83.988 288.972 83.988V83.988" stroke="black" stroke-width="1.38333"/>
<path d="M249.449 158.095V158.095C254.593 158.095 259.52 156.021 263.115 152.341L276.494 138.647C279.777 135.287 284.275 133.393 288.973 133.393V133.393" stroke="black" stroke-width="1.38333"/>
<path d="M249.448 158.095V158.095C254.593 158.095 259.52 160.17 263.115 163.849L276.494 177.544C279.776 180.903 284.275 182.798 288.972 182.798V182.798" stroke="black" stroke-width="1.38333"/>
<path d="M12.3054 207.5V207.5C32.883 207.5 52.5913 215.798 66.9715 230.517L120.488 285.294C133.618 298.733 151.612 306.309 170.401 306.309V306.309" stroke="#5158F6" stroke-width="4.15" stroke-linecap="round"/>
<path d="M300.185 40.1333V38.8193H303.785V28.6853H303.659L300.491 31.6373L299.609 30.6833L302.939 27.5693H305.297V38.8193H308.609V40.1333H300.185ZM310.978 40.1333V38.8193H314.578V28.6853H314.452L311.284 31.6373L310.402 30.6833L313.732 27.5693H316.09V38.8193H319.402V40.1333H310.978ZM321.771 40.1333V38.8193H325.371V28.6853H325.245L322.077 31.6373L321.195 30.6833L324.525 27.5693H326.883V38.8193H330.195V40.1333H321.771Z" fill="black"/>
<path d="M391.686 40.1333L396.6 28.8653H391.092V31.2053H389.742V27.5693H398.13V28.9013L393.306 40.1333H391.686Z" fill="black"/>
<path d="M393.99 90.1496C393.33 90.1496 392.736 90.0416 392.208 89.8256C391.68 89.5976 391.23 89.2796 390.858 88.8716C390.498 88.4516 390.216 87.9416 390.012 87.3416C389.82 86.7416 389.724 86.0696 389.724 85.3256C389.724 84.3896 389.862 83.5136 390.138 82.6976C390.426 81.8696 390.786 81.1196 391.218 80.4476C391.662 79.7636 392.154 79.1636 392.694 78.6476C393.234 78.1196 393.762 77.6936 394.278 77.3696H396.222C395.538 77.8616 394.926 78.3416 394.386 78.8096C393.858 79.2776 393.39 79.7696 392.982 80.2856C392.574 80.7896 392.232 81.3356 391.956 81.9236C391.68 82.4996 391.452 83.1536 391.272 83.8856L391.362 83.9216C391.662 83.4056 392.058 82.9796 392.55 82.6436C393.042 82.2956 393.678 82.1216 394.458 82.1216C395.01 82.1216 395.514 82.2116 395.97 82.3916C396.426 82.5716 396.822 82.8296 397.158 83.1656C397.494 83.5016 397.752 83.9096 397.932 84.3896C398.124 84.8696 398.22 85.4036 398.22 85.9916C398.22 86.6036 398.118 87.1676 397.914 87.6836C397.71 88.1876 397.422 88.6256 397.05 88.9976C396.69 89.3576 396.246 89.6396 395.718 89.8436C395.202 90.0476 394.626 90.1496 393.99 90.1496ZM393.972 88.8716C394.836 88.8716 395.502 88.6376 395.97 88.1696C396.45 87.7016 396.69 87.0416 396.69 86.1896V86.0456C396.69 85.1936 396.45 84.5336 395.97 84.0656C395.502 83.5976 394.836 83.3636 393.972 83.3636C393.108 83.3636 392.436 83.5976 391.956 84.0656C391.488 84.5336 391.254 85.1936 391.254 86.0456V86.1896C391.254 87.0416 391.488 87.7016 391.956 88.1696C392.436 88.6376 393.108 88.8716 393.972 88.8716Z" fill="black"/>
<path d="M397.59 128.483H391.974L391.614 133.289H391.74C392.052 132.869 392.4 132.539 392.784 132.299C393.168 132.047 393.696 131.921 394.368 131.921C394.92 131.921 395.424 132.011 395.88 132.191C396.348 132.359 396.75 132.611 397.086 132.947C397.422 133.283 397.686 133.691 397.878 134.171C398.07 134.639 398.166 135.179 398.166 135.791C398.166 136.403 398.07 136.967 397.878 137.483C397.686 137.987 397.404 138.425 397.032 138.797C396.66 139.157 396.21 139.439 395.682 139.643C395.154 139.847 394.554 139.949 393.882 139.949C393.354 139.949 392.88 139.889 392.46 139.769C392.052 139.649 391.686 139.487 391.362 139.283C391.05 139.079 390.774 138.851 390.534 138.599C390.294 138.347 390.078 138.083 389.886 137.807L391.02 136.943C391.188 137.195 391.356 137.423 391.524 137.627C391.704 137.831 391.908 138.011 392.136 138.167C392.364 138.311 392.622 138.425 392.91 138.509C393.198 138.593 393.534 138.635 393.918 138.635C394.782 138.635 395.442 138.401 395.898 137.933C396.366 137.465 396.6 136.817 396.6 135.989V135.845C396.6 135.017 396.366 134.369 395.898 133.901C395.43 133.433 394.758 133.199 393.882 133.199C393.282 133.199 392.814 133.301 392.478 133.505C392.154 133.709 391.854 133.961 391.578 134.261L390.3 134.081L390.75 127.169H397.59V128.483Z" fill="black"/>
<path d="M395.376 189.533V187.067H389.184V185.735L394.62 176.969H396.816V185.825H398.688V187.067H396.816V189.533H395.376ZM390.534 185.825H395.376V178.139H395.304L390.534 185.825Z" fill="black"/>
<path d="M393.432 232.097C394.308 232.097 394.962 231.905 395.394 231.521C395.838 231.125 396.06 230.621 396.06 230.009V229.883C396.06 229.211 395.844 228.707 395.412 228.371C394.992 228.035 394.44 227.867 393.756 227.867C393.084 227.867 392.538 228.017 392.118 228.317C391.71 228.605 391.374 228.989 391.11 229.469L389.976 228.605C390.132 228.353 390.324 228.107 390.552 227.867C390.78 227.615 391.044 227.393 391.344 227.201C391.656 227.009 392.01 226.853 392.406 226.733C392.814 226.613 393.276 226.553 393.792 226.553C394.332 226.553 394.836 226.625 395.304 226.769C395.772 226.901 396.18 227.105 396.528 227.381C396.876 227.645 397.146 227.975 397.338 228.371C397.542 228.767 397.644 229.217 397.644 229.721C397.644 230.129 397.578 230.495 397.446 230.819C397.326 231.143 397.152 231.425 396.924 231.665C396.708 231.905 396.45 232.109 396.15 232.277C395.85 232.445 395.532 232.571 395.196 232.655V232.727C395.544 232.799 395.88 232.919 396.204 233.087C396.528 233.243 396.816 233.453 397.068 233.717C397.32 233.969 397.518 234.281 397.662 234.653C397.818 235.013 397.896 235.427 397.896 235.895C397.896 236.435 397.788 236.933 397.572 237.389C397.368 237.833 397.074 238.217 396.69 238.541C396.318 238.853 395.862 239.099 395.322 239.279C394.794 239.459 394.206 239.549 393.558 239.549C393.006 239.549 392.514 239.489 392.082 239.369C391.662 239.249 391.284 239.087 390.948 238.883C390.624 238.679 390.336 238.451 390.084 238.199C389.844 237.947 389.628 237.683 389.436 237.407L390.57 236.543C390.738 236.795 390.912 237.023 391.092 237.227C391.272 237.431 391.476 237.611 391.704 237.767C391.944 237.911 392.214 238.025 392.514 238.109C392.814 238.193 393.162 238.235 393.558 238.235C394.446 238.235 395.124 238.031 395.592 237.623C396.072 237.215 396.312 236.633 396.312 235.877V235.733C396.312 234.989 396.078 234.413 395.61 234.005C395.154 233.597 394.464 233.393 393.54 233.393H392.046V232.097H393.432Z" fill="black"/>
<path d="M398.562 289.133H389.526V286.667L393.486 283.373C394.17 282.785 394.662 282.275 394.962 281.843C395.262 281.411 395.412 280.955 395.412 280.475V280.295C395.412 279.767 395.256 279.371 394.944 279.107C394.632 278.831 394.212 278.693 393.684 278.693C393.084 278.693 392.622 278.867 392.298 279.215C391.974 279.563 391.746 279.977 391.614 280.457L389.256 279.557C389.4 279.125 389.598 278.717 389.85 278.333C390.102 277.937 390.42 277.595 390.804 277.307C391.2 277.019 391.656 276.791 392.172 276.623C392.688 276.443 393.282 276.353 393.954 276.353C394.638 276.353 395.25 276.449 395.79 276.641C396.33 276.833 396.786 277.097 397.158 277.433C397.53 277.769 397.812 278.171 398.004 278.639C398.196 279.095 398.292 279.593 398.292 280.133C398.292 280.661 398.202 281.147 398.022 281.591C397.854 282.023 397.614 282.431 397.302 282.815C397.002 283.199 396.642 283.571 396.222 283.931C395.814 284.291 395.376 284.651 394.908 285.011L392.514 286.865H398.562V289.133Z" fill="#5158F6"/>
<path d="M390.102 338.933V337.619H393.702V327.485H393.576L390.408 330.437L389.526 329.483L392.856 326.369H395.214V337.619H398.526V338.933H390.102Z" fill="black"/>
<path d="M393.972 388.949C393.204 388.949 392.544 388.805 391.992 388.517C391.44 388.217 390.984 387.791 390.624 387.239C390.264 386.687 390 386.009 389.832 385.205C389.664 384.401 389.58 383.483 389.58 382.451C389.58 381.431 389.664 380.519 389.832 379.715C390 378.899 390.264 378.215 390.624 377.663C390.984 377.111 391.44 376.691 391.992 376.403C392.544 376.103 393.204 375.953 393.972 375.953C394.74 375.953 395.4 376.103 395.952 376.403C396.504 376.691 396.96 377.111 397.32 377.663C397.68 378.215 397.944 378.899 398.112 379.715C398.28 380.519 398.364 381.431 398.364 382.451C398.364 383.483 398.28 384.401 398.112 385.205C397.944 386.009 397.68 386.687 397.32 387.239C396.96 387.791 396.504 388.217 395.952 388.517C395.4 388.805 394.74 388.949 393.972 388.949ZM393.972 387.635C394.476 387.635 394.908 387.539 395.268 387.347C395.628 387.143 395.916 386.861 396.132 386.501C396.36 386.141 396.528 385.709 396.636 385.205C396.744 384.689 396.798 384.113 396.798 383.477V381.425C396.798 380.801 396.744 380.231 396.636 379.715C396.528 379.199 396.36 378.761 396.132 378.401C395.916 378.041 395.628 377.765 395.268 377.573C394.908 377.369 394.476 377.267 393.972 377.267C393.468 377.267 393.036 377.369 392.676 377.573C392.316 377.765 392.022 378.041 391.794 378.401C391.578 378.761 391.416 379.199 391.308 379.715C391.2 380.231 391.146 380.801 391.146 381.425V383.477C391.146 384.113 391.2 384.689 391.308 385.205C391.416 385.709 391.578 386.141 391.794 386.501C392.022 386.861 392.316 387.143 392.676 387.347C393.036 387.539 393.468 387.635 393.972 387.635ZM393.972 383.513C393.552 383.513 393.258 383.429 393.09 383.261C392.934 383.093 392.856 382.889 392.856 382.649V382.253C392.856 382.013 392.934 381.809 393.09 381.641C393.258 381.473 393.552 381.389 393.972 381.389C394.392 381.389 394.68 381.473 394.836 381.641C395.004 381.809 395.088 382.013 395.088 382.253V382.649C395.088 382.889 395.004 383.093 394.836 383.261C394.68 383.429 394.392 383.513 393.972 383.513Z" fill="black"/>
<path d="M300.185 89.9336V88.6196H303.785V78.4856H303.659L300.491 81.4376L299.609 80.4836L302.939 77.3696H305.297V88.6196H308.609V89.9336H300.185ZM310.978 89.9336V88.6196H314.578V78.4856H314.452L311.284 81.4376L310.402 80.4836L313.732 77.3696H316.09V88.6196H319.402V89.9336H310.978ZM325.641 90.1496C324.873 90.1496 324.213 90.0056 323.661 89.7176C323.109 89.4176 322.653 88.9916 322.293 88.4396C321.933 87.8876 321.669 87.2096 321.501 86.4056C321.333 85.6016 321.249 84.6836 321.249 83.6516C321.249 82.6316 321.333 81.7196 321.501 80.9156C321.669 80.0996 321.933 79.4156 322.293 78.8636C322.653 78.3116 323.109 77.8916 323.661 77.6036C324.213 77.3036 324.873 77.1536 325.641 77.1536C326.409 77.1536 327.069 77.3036 327.621 77.6036C328.173 77.8916 328.629 78.3116 328.989 78.8636C329.349 79.4156 329.613 80.0996 329.781 80.9156C329.949 81.7196 330.033 82.6316 330.033 83.6516C330.033 84.6836 329.949 85.6016 329.781 86.4056C329.613 87.2096 329.349 87.8876 328.989 88.4396C328.629 88.9916 328.173 89.4176 327.621 89.7176C327.069 90.0056 326.409 90.1496 325.641 90.1496ZM325.641 88.8356C326.145 88.8356 326.577 88.7396 326.937 88.5476C327.297 88.3436 327.585 88.0616 327.801 87.7016C328.029 87.3416 328.197 86.9096 328.305 86.4056C328.413 85.8896 328.467 85.3136 328.467 84.6776V82.6256C328.467 82.0016 328.413 81.4316 328.305 80.9156C328.197 80.3996 328.029 79.9616 327.801 79.6016C327.585 79.2416 327.297 78.9656 326.937 78.7736C326.577 78.5696 326.145 78.4676 325.641 78.4676C325.137 78.4676 324.705 78.5696 324.345 78.7736C323.985 78.9656 323.691 79.2416 323.463 79.6016C323.247 79.9616 323.085 80.3996 322.977 80.9156C322.869 81.4316 322.815 82.0016 322.815 82.6256V84.6776C322.815 85.3136 322.869 85.8896 322.977 86.4056C323.085 86.9096 323.247 87.3416 323.463 87.7016C323.691 88.0616 323.985 88.3436 324.345 88.5476C324.705 88.7396 325.137 88.8356 325.641 88.8356ZM325.641 84.7136C325.221 84.7136 324.927 84.6296 324.759 84.4616C324.603 84.2936 324.525 84.0896 324.525 83.8496V83.4536C324.525 83.2136 324.603 83.0096 324.759 82.8416C324.927 82.6736 325.221 82.5896 325.641 82.5896C326.061 82.5896 326.349 82.6736 326.505 82.8416C326.673 83.0096 326.757 83.2136 326.757 83.4536V83.8496C326.757 84.0896 326.673 84.2936 326.505 84.4616C326.349 84.6296 326.061 84.7136 325.641 84.7136Z" fill="black"/>
<path d="M304.055 239.549C303.287 239.549 302.627 239.405 302.075 239.117C301.523 238.817 301.067 238.391 300.707 237.839C300.347 237.287 300.083 236.609 299.915 235.805C299.747 235.001 299.663 234.083 299.663 233.051C299.663 232.031 299.747 231.119 299.915 230.315C300.083 229.499 300.347 228.815 300.707 228.263C301.067 227.711 301.523 227.291 302.075 227.003C302.627 226.703 303.287 226.553 304.055 226.553C304.823 226.553 305.483 226.703 306.035 227.003C306.587 227.291 307.043 227.711 307.403 228.263C307.763 228.815 308.027 229.499 308.195 230.315C308.363 231.119 308.447 232.031 308.447 233.051C308.447 234.083 308.363 235.001 308.195 235.805C308.027 236.609 307.763 237.287 307.403 237.839C307.043 238.391 306.587 238.817 306.035 239.117C305.483 239.405 304.823 239.549 304.055 239.549ZM304.055 238.235C304.559 238.235 304.991 238.139 305.351 237.947C305.711 237.743 305.999 237.461 306.215 237.101C306.443 236.741 306.611 236.309 306.719 235.805C306.827 235.289 306.881 234.713 306.881 234.077V232.025C306.881 231.401 306.827 230.831 306.719 230.315C306.611 229.799 306.443 229.361 306.215 229.001C305.999 228.641 305.711 228.365 305.351 228.173C304.991 227.969 304.559 227.867 304.055 227.867C303.551 227.867 303.119 227.969 302.759 228.173C302.399 228.365 302.105 228.641 301.877 229.001C301.661 229.361 301.499 229.799 301.391 230.315C301.283 230.831 301.229 231.401 301.229 232.025V234.077C301.229 234.713 301.283 235.289 301.391 235.805C301.499 236.309 301.661 236.741 301.877 237.101C302.105 237.461 302.399 237.743 302.759 237.947C303.119 238.139 303.551 238.235 304.055 238.235ZM304.055 234.113C303.635 234.113 303.341 234.029 303.173 233.861C303.017 233.693 302.939 233.489 302.939 233.249V232.853C302.939 232.613 303.017 232.409 303.173 232.241C303.341 232.073 303.635 231.989 304.055 231.989C304.475 231.989 304.763 232.073 304.919 232.241C305.087 232.409 305.171 232.613 305.171 232.853V233.249C305.171 233.489 305.087 233.693 304.919 233.861C304.763 234.029 304.475 234.113 304.055 234.113ZM310.978 239.333V238.019H314.578V227.885H314.452L311.284 230.837L310.402 229.883L313.732 226.769H316.09V238.019H319.402V239.333H310.978ZM321.771 239.333V238.019H325.371V227.885H325.245L322.077 230.837L321.195 229.883L324.525 226.769H326.883V238.019H330.195V239.333H321.771Z" fill="black"/>
<path d="M304.055 289.349C302.375 289.349 301.133 288.779 300.329 287.639C299.537 286.499 299.141 284.903 299.141 282.851C299.141 280.799 299.537 279.203 300.329 278.063C301.133 276.923 302.375 276.353 304.055 276.353C305.735 276.353 306.971 276.923 307.763 278.063C308.567 279.203 308.969 280.799 308.969 282.851C308.969 284.903 308.567 286.499 307.763 287.639C306.971 288.779 305.735 289.349 304.055 289.349ZM304.055 287.225C304.859 287.225 305.417 286.943 305.729 286.379C306.053 285.815 306.215 285.029 306.215 284.021V281.681C306.215 280.673 306.053 279.887 305.729 279.323C305.417 278.759 304.859 278.477 304.055 278.477C303.251 278.477 302.687 278.759 302.363 279.323C302.051 279.887 301.895 280.673 301.895 281.681V284.021C301.895 285.029 302.051 285.815 302.363 286.379C302.687 286.943 303.251 287.225 304.055 287.225ZM304.055 283.913C303.635 283.913 303.341 283.829 303.173 283.661C303.017 283.493 302.939 283.289 302.939 283.049V282.653C302.939 282.413 303.017 282.209 303.173 282.041C303.341 281.873 303.635 281.789 304.055 281.789C304.475 281.789 304.763 281.873 304.919 282.041C305.087 282.209 305.171 282.413 305.171 282.653V283.049C305.171 283.289 305.087 283.493 304.919 283.661C304.763 283.829 304.475 283.913 304.055 283.913ZM311.14 289.133V286.955H314.524V278.531H314.362L311.806 281.879L310.078 280.529L313.084 276.569H317.224V286.955H319.888V289.133H311.14ZM325.641 289.349C323.961 289.349 322.719 288.779 321.915 287.639C321.123 286.499 320.727 284.903 320.727 282.851C320.727 280.799 321.123 279.203 321.915 278.063C322.719 276.923 323.961 276.353 325.641 276.353C327.321 276.353 328.557 276.923 329.349 278.063C330.153 279.203 330.555 280.799 330.555 282.851C330.555 284.903 330.153 286.499 329.349 287.639C328.557 288.779 327.321 289.349 325.641 289.349ZM325.641 287.225C326.445 287.225 327.003 286.943 327.315 286.379C327.639 285.815 327.801 285.029 327.801 284.021V281.681C327.801 280.673 327.639 279.887 327.315 279.323C327.003 278.759 326.445 278.477 325.641 278.477C324.837 278.477 324.273 278.759 323.949 279.323C323.637 279.887 323.481 280.673 323.481 281.681V284.021C323.481 285.029 323.637 285.815 323.949 286.379C324.273 286.943 324.837 287.225 325.641 287.225ZM325.641 283.913C325.221 283.913 324.927 283.829 324.759 283.661C324.603 283.493 324.525 283.289 324.525 283.049V282.653C324.525 282.413 324.603 282.209 324.759 282.041C324.927 281.873 325.221 281.789 325.641 281.789C326.061 281.789 326.349 281.873 326.505 282.041C326.673 282.209 326.757 282.413 326.757 282.653V283.049C326.757 283.289 326.673 283.493 326.505 283.661C326.349 283.829 326.061 283.913 325.641 283.913Z" fill="#5158F6"/>
<path d="M300.185 139.733V138.419H303.785V128.285H303.659L300.491 131.237L299.609 130.283L302.939 127.169H305.297V138.419H308.609V139.733H300.185ZM314.848 139.949C314.08 139.949 313.42 139.805 312.868 139.517C312.316 139.217 311.86 138.791 311.5 138.239C311.14 137.687 310.876 137.009 310.708 136.205C310.54 135.401 310.456 134.483 310.456 133.451C310.456 132.431 310.54 131.519 310.708 130.715C310.876 129.899 311.14 129.215 311.5 128.663C311.86 128.111 312.316 127.691 312.868 127.403C313.42 127.103 314.08 126.953 314.848 126.953C315.616 126.953 316.276 127.103 316.828 127.403C317.38 127.691 317.836 128.111 318.196 128.663C318.556 129.215 318.82 129.899 318.988 130.715C319.156 131.519 319.24 132.431 319.24 133.451C319.24 134.483 319.156 135.401 318.988 136.205C318.82 137.009 318.556 137.687 318.196 138.239C317.836 138.791 317.38 139.217 316.828 139.517C316.276 139.805 315.616 139.949 314.848 139.949ZM314.848 138.635C315.352 138.635 315.784 138.539 316.144 138.347C316.504 138.143 316.792 137.861 317.008 137.501C317.236 137.141 317.404 136.709 317.512 136.205C317.62 135.689 317.674 135.113 317.674 134.477V132.425C317.674 131.801 317.62 131.231 317.512 130.715C317.404 130.199 317.236 129.761 317.008 129.401C316.792 129.041 316.504 128.765 316.144 128.573C315.784 128.369 315.352 128.267 314.848 128.267C314.344 128.267 313.912 128.369 313.552 128.573C313.192 128.765 312.898 129.041 312.67 129.401C312.454 129.761 312.292 130.199 312.184 130.715C312.076 131.231 312.022 131.801 312.022 132.425V134.477C312.022 135.113 312.076 135.689 312.184 136.205C312.292 136.709 312.454 137.141 312.67 137.501C312.898 137.861 313.192 138.143 313.552 138.347C313.912 138.539 314.344 138.635 314.848 138.635ZM314.848 134.513C314.428 134.513 314.134 134.429 313.966 134.261C313.81 134.093 313.732 133.889 313.732 133.649V133.253C313.732 133.013 313.81 132.809 313.966 132.641C314.134 132.473 314.428 132.389 314.848 132.389C315.268 132.389 315.556 132.473 315.712 132.641C315.88 132.809 315.964 133.013 315.964 133.253V133.649C315.964 133.889 315.88 134.093 315.712 134.261C315.556 134.429 315.268 134.513 314.848 134.513ZM321.771 139.733V138.419H325.371V128.285H325.245L322.077 131.237L321.195 130.283L324.525 127.169H326.883V138.419H330.195V139.733H321.771Z" fill="black"/>
<path d="M300.185 189.533V188.219H303.785V178.085H303.659L300.491 181.037L299.609 180.083L302.939 176.969H305.297V188.219H308.609V189.533H300.185ZM314.848 189.749C314.08 189.749 313.42 189.605 312.868 189.317C312.316 189.017 311.86 188.591 311.5 188.039C311.14 187.487 310.876 186.809 310.708 186.005C310.54 185.201 310.456 184.283 310.456 183.251C310.456 182.231 310.54 181.319 310.708 180.515C310.876 179.699 311.14 179.015 311.5 178.463C311.86 177.911 312.316 177.491 312.868 177.203C313.42 176.903 314.08 176.753 314.848 176.753C315.616 176.753 316.276 176.903 316.828 177.203C317.38 177.491 317.836 177.911 318.196 178.463C318.556 179.015 318.82 179.699 318.988 180.515C319.156 181.319 319.24 182.231 319.24 183.251C319.24 184.283 319.156 185.201 318.988 186.005C318.82 186.809 318.556 187.487 318.196 188.039C317.836 188.591 317.38 189.017 316.828 189.317C316.276 189.605 315.616 189.749 314.848 189.749ZM314.848 188.435C315.352 188.435 315.784 188.339 316.144 188.147C316.504 187.943 316.792 187.661 317.008 187.301C317.236 186.941 317.404 186.509 317.512 186.005C317.62 185.489 317.674 184.913 317.674 184.277V182.225C317.674 181.601 317.62 181.031 317.512 180.515C317.404 179.999 317.236 179.561 317.008 179.201C316.792 178.841 316.504 178.565 316.144 178.373C315.784 178.169 315.352 178.067 314.848 178.067C314.344 178.067 313.912 178.169 313.552 178.373C313.192 178.565 312.898 178.841 312.67 179.201C312.454 179.561 312.292 179.999 312.184 180.515C312.076 181.031 312.022 181.601 312.022 182.225V184.277C312.022 184.913 312.076 185.489 312.184 186.005C312.292 186.509 312.454 186.941 312.67 187.301C312.898 187.661 313.192 187.943 313.552 188.147C313.912 188.339 314.344 188.435 314.848 188.435ZM314.848 184.313C314.428 184.313 314.134 184.229 313.966 184.061C313.81 183.893 313.732 183.689 313.732 183.449V183.053C313.732 182.813 313.81 182.609 313.966 182.441C314.134 182.273 314.428 182.189 314.848 182.189C315.268 182.189 315.556 182.273 315.712 182.441C315.88 182.609 315.964 182.813 315.964 183.053V183.449C315.964 183.689 315.88 183.893 315.712 184.061C315.556 184.229 315.268 184.313 314.848 184.313ZM325.641 189.749C324.873 189.749 324.213 189.605 323.661 189.317C323.109 189.017 322.653 188.591 322.293 188.039C321.933 187.487 321.669 186.809 321.501 186.005C321.333 185.201 321.249 184.283 321.249 183.251C321.249 182.231 321.333 181.319 321.501 180.515C321.669 179.699 321.933 179.015 322.293 178.463C322.653 177.911 323.109 177.491 323.661 177.203C324.213 176.903 324.873 176.753 325.641 176.753C326.409 176.753 327.069 176.903 327.621 177.203C328.173 177.491 328.629 177.911 328.989 178.463C329.349 179.015 329.613 179.699 329.781 180.515C329.949 181.319 330.033 182.231 330.033 183.251C330.033 184.283 329.949 185.201 329.781 186.005C329.613 186.809 329.349 187.487 328.989 188.039C328.629 188.591 328.173 189.017 327.621 189.317C327.069 189.605 326.409 189.749 325.641 189.749ZM325.641 188.435C326.145 188.435 326.577 188.339 326.937 188.147C327.297 187.943 327.585 187.661 327.801 187.301C328.029 186.941 328.197 186.509 328.305 186.005C328.413 185.489 328.467 184.913 328.467 184.277V182.225C328.467 181.601 328.413 181.031 328.305 180.515C328.197 179.999 328.029 179.561 327.801 179.201C327.585 178.841 327.297 178.565 326.937 178.373C326.577 178.169 326.145 178.067 325.641 178.067C325.137 178.067 324.705 178.169 324.345 178.373C323.985 178.565 323.691 178.841 323.463 179.201C323.247 179.561 323.085 179.999 322.977 180.515C322.869 181.031 322.815 181.601 322.815 182.225V184.277C322.815 184.913 322.869 185.489 322.977 186.005C323.085 186.509 323.247 186.941 323.463 187.301C323.691 187.661 323.985 187.943 324.345 188.147C324.705 188.339 325.137 188.435 325.641 188.435ZM325.641 184.313C325.221 184.313 324.927 184.229 324.759 184.061C324.603 183.893 324.525 183.689 324.525 183.449V183.053C324.525 182.813 324.603 182.609 324.759 182.441C324.927 182.273 325.221 182.189 325.641 182.189C326.061 182.189 326.349 182.273 326.505 182.441C326.673 182.609 326.757 182.813 326.757 183.053V183.449C326.757 183.689 326.673 183.893 326.505 184.061C326.349 184.229 326.061 184.313 325.641 184.313Z" fill="black"/>
<path d="M304.055 339.149C303.287 339.149 302.627 339.005 302.075 338.717C301.523 338.417 301.067 337.991 300.707 337.439C300.347 336.887 300.083 336.209 299.915 335.405C299.747 334.601 299.663 333.683 299.663 332.651C299.663 331.631 299.747 330.719 299.915 329.915C300.083 329.099 300.347 328.415 300.707 327.863C301.067 327.311 301.523 326.891 302.075 326.603C302.627 326.303 303.287 326.153 304.055 326.153C304.823 326.153 305.483 326.303 306.035 326.603C306.587 326.891 307.043 327.311 307.403 327.863C307.763 328.415 308.027 329.099 308.195 329.915C308.363 330.719 308.447 331.631 308.447 332.651C308.447 333.683 308.363 334.601 308.195 335.405C308.027 336.209 307.763 336.887 307.403 337.439C307.043 337.991 306.587 338.417 306.035 338.717C305.483 339.005 304.823 339.149 304.055 339.149ZM304.055 337.835C304.559 337.835 304.991 337.739 305.351 337.547C305.711 337.343 305.999 337.061 306.215 336.701C306.443 336.341 306.611 335.909 306.719 335.405C306.827 334.889 306.881 334.313 306.881 333.677V331.625C306.881 331.001 306.827 330.431 306.719 329.915C306.611 329.399 306.443 328.961 306.215 328.601C305.999 328.241 305.711 327.965 305.351 327.773C304.991 327.569 304.559 327.467 304.055 327.467C303.551 327.467 303.119 327.569 302.759 327.773C302.399 327.965 302.105 328.241 301.877 328.601C301.661 328.961 301.499 329.399 301.391 329.915C301.283 330.431 301.229 331.001 301.229 331.625V333.677C301.229 334.313 301.283 334.889 301.391 335.405C301.499 335.909 301.661 336.341 301.877 336.701C302.105 337.061 302.399 337.343 302.759 337.547C303.119 337.739 303.551 337.835 304.055 337.835ZM304.055 333.713C303.635 333.713 303.341 333.629 303.173 333.461C303.017 333.293 302.939 333.089 302.939 332.849V332.453C302.939 332.213 303.017 332.009 303.173 331.841C303.341 331.673 303.635 331.589 304.055 331.589C304.475 331.589 304.763 331.673 304.919 331.841C305.087 332.009 305.171 332.213 305.171 332.453V332.849C305.171 333.089 305.087 333.293 304.919 333.461C304.763 333.629 304.475 333.713 304.055 333.713ZM314.848 339.149C314.08 339.149 313.42 339.005 312.868 338.717C312.316 338.417 311.86 337.991 311.5 337.439C311.14 336.887 310.876 336.209 310.708 335.405C310.54 334.601 310.456 333.683 310.456 332.651C310.456 331.631 310.54 330.719 310.708 329.915C310.876 329.099 311.14 328.415 311.5 327.863C311.86 327.311 312.316 326.891 312.868 326.603C313.42 326.303 314.08 326.153 314.848 326.153C315.616 326.153 316.276 326.303 316.828 326.603C317.38 326.891 317.836 327.311 318.196 327.863C318.556 328.415 318.82 329.099 318.988 329.915C319.156 330.719 319.24 331.631 319.24 332.651C319.24 333.683 319.156 334.601 318.988 335.405C318.82 336.209 318.556 336.887 318.196 337.439C317.836 337.991 317.38 338.417 316.828 338.717C316.276 339.005 315.616 339.149 314.848 339.149ZM314.848 337.835C315.352 337.835 315.784 337.739 316.144 337.547C316.504 337.343 316.792 337.061 317.008 336.701C317.236 336.341 317.404 335.909 317.512 335.405C317.62 334.889 317.674 334.313 317.674 333.677V331.625C317.674 331.001 317.62 330.431 317.512 329.915C317.404 329.399 317.236 328.961 317.008 328.601C316.792 328.241 316.504 327.965 316.144 327.773C315.784 327.569 315.352 327.467 314.848 327.467C314.344 327.467 313.912 327.569 313.552 327.773C313.192 327.965 312.898 328.241 312.67 328.601C312.454 328.961 312.292 329.399 312.184 329.915C312.076 330.431 312.022 331.001 312.022 331.625V333.677C312.022 334.313 312.076 334.889 312.184 335.405C312.292 335.909 312.454 336.341 312.67 336.701C312.898 337.061 313.192 337.343 313.552 337.547C313.912 337.739 314.344 337.835 314.848 337.835ZM314.848 333.713C314.428 333.713 314.134 333.629 313.966 333.461C313.81 333.293 313.732 333.089 313.732 332.849V332.453C313.732 332.213 313.81 332.009 313.966 331.841C314.134 331.673 314.428 331.589 314.848 331.589C315.268 331.589 315.556 331.673 315.712 331.841C315.88 332.009 315.964 332.213 315.964 332.453V332.849C315.964 333.089 315.88 333.293 315.712 333.461C315.556 333.629 315.268 333.713 314.848 333.713ZM321.771 338.933V337.619H325.371V327.485H325.245L322.077 330.437L321.195 329.483L324.525 326.369H326.883V337.619H330.195V338.933H321.771Z" fill="black"/>
<path d="M304.055 388.949C303.287 388.949 302.627 388.805 302.075 388.517C301.523 388.217 301.067 387.791 300.707 387.239C300.347 386.687 300.083 386.009 299.915 385.205C299.747 384.401 299.663 383.483 299.663 382.451C299.663 381.431 299.747 380.519 299.915 379.715C300.083 378.899 300.347 378.215 300.707 377.663C301.067 377.111 301.523 376.691 302.075 376.403C302.627 376.103 303.287 375.953 304.055 375.953C304.823 375.953 305.483 376.103 306.035 376.403C306.587 376.691 307.043 377.111 307.403 377.663C307.763 378.215 308.027 378.899 308.195 379.715C308.363 380.519 308.447 381.431 308.447 382.451C308.447 383.483 308.363 384.401 308.195 385.205C308.027 386.009 307.763 386.687 307.403 387.239C307.043 387.791 306.587 388.217 306.035 388.517C305.483 388.805 304.823 388.949 304.055 388.949ZM304.055 387.635C304.559 387.635 304.991 387.539 305.351 387.347C305.711 387.143 305.999 386.861 306.215 386.501C306.443 386.141 306.611 385.709 306.719 385.205C306.827 384.689 306.881 384.113 306.881 383.477V381.425C306.881 380.801 306.827 380.231 306.719 379.715C306.611 379.199 306.443 378.761 306.215 378.401C305.999 378.041 305.711 377.765 305.351 377.573C304.991 377.369 304.559 377.267 304.055 377.267C303.551 377.267 303.119 377.369 302.759 377.573C302.399 377.765 302.105 378.041 301.877 378.401C301.661 378.761 301.499 379.199 301.391 379.715C301.283 380.231 301.229 380.801 301.229 381.425V383.477C301.229 384.113 301.283 384.689 301.391 385.205C301.499 385.709 301.661 386.141 301.877 386.501C302.105 386.861 302.399 387.143 302.759 387.347C303.119 387.539 303.551 387.635 304.055 387.635ZM304.055 383.513C303.635 383.513 303.341 383.429 303.173 383.261C303.017 383.093 302.939 382.889 302.939 382.649V382.253C302.939 382.013 303.017 381.809 303.173 381.641C303.341 381.473 303.635 381.389 304.055 381.389C304.475 381.389 304.763 381.473 304.919 381.641C305.087 381.809 305.171 382.013 305.171 382.253V382.649C305.171 382.889 305.087 383.093 304.919 383.261C304.763 383.429 304.475 383.513 304.055 383.513ZM314.848 388.949C314.08 388.949 313.42 388.805 312.868 388.517C312.316 388.217 311.86 387.791 311.5 387.239C311.14 386.687 310.876 386.009 310.708 385.205C310.54 384.401 310.456 383.483 310.456 382.451C310.456 381.431 310.54 380.519 310.708 379.715C310.876 378.899 311.14 378.215 311.5 377.663C311.86 377.111 312.316 376.691 312.868 376.403C313.42 376.103 314.08 375.953 314.848 375.953C315.616 375.953 316.276 376.103 316.828 376.403C317.38 376.691 317.836 377.111 318.196 377.663C318.556 378.215 318.82 378.899 318.988 379.715C319.156 380.519 319.24 381.431 319.24 382.451C319.24 383.483 319.156 384.401 318.988 385.205C318.82 386.009 318.556 386.687 318.196 387.239C317.836 387.791 317.38 388.217 316.828 388.517C316.276 388.805 315.616 388.949 314.848 388.949ZM314.848 387.635C315.352 387.635 315.784 387.539 316.144 387.347C316.504 387.143 316.792 386.861 317.008 386.501C317.236 386.141 317.404 385.709 317.512 385.205C317.62 384.689 317.674 384.113 317.674 383.477V381.425C317.674 380.801 317.62 380.231 317.512 379.715C317.404 379.199 317.236 378.761 317.008 378.401C316.792 378.041 316.504 377.765 316.144 377.573C315.784 377.369 315.352 377.267 314.848 377.267C314.344 377.267 313.912 377.369 313.552 377.573C313.192 377.765 312.898 378.041 312.67 378.401C312.454 378.761 312.292 379.199 312.184 379.715C312.076 380.231 312.022 380.801 312.022 381.425V383.477C312.022 384.113 312.076 384.689 312.184 385.205C312.292 385.709 312.454 386.141 312.67 386.501C312.898 386.861 313.192 387.143 313.552 387.347C313.912 387.539 314.344 387.635 314.848 387.635ZM314.848 383.513C314.428 383.513 314.134 383.429 313.966 383.261C313.81 383.093 313.732 382.889 313.732 382.649V382.253C313.732 382.013 313.81 381.809 313.966 381.641C314.134 381.473 314.428 381.389 314.848 381.389C315.268 381.389 315.556 381.473 315.712 381.641C315.88 381.809 315.964 382.013 315.964 382.253V382.649C315.964 382.889 315.88 383.093 315.712 383.261C315.556 383.429 315.268 383.513 314.848 383.513ZM325.641 388.949C324.873 388.949 324.213 388.805 323.661 388.517C323.109 388.217 322.653 387.791 322.293 387.239C321.933 386.687 321.669 386.009 321.501 385.205C321.333 384.401 321.249 383.483 321.249 382.451C321.249 381.431 321.333 380.519 321.501 379.715C321.669 378.899 321.933 378.215 322.293 377.663C322.653 377.111 323.109 376.691 323.661 376.403C324.213 376.103 324.873 375.953 325.641 375.953C326.409 375.953 327.069 376.103 327.621 376.403C328.173 376.691 328.629 377.111 328.989 377.663C329.349 378.215 329.613 378.899 329.781 379.715C329.949 380.519 330.033 381.431 330.033 382.451C330.033 383.483 329.949 384.401 329.781 385.205C329.613 386.009 329.349 386.687 328.989 387.239C328.629 387.791 328.173 388.217 327.621 388.517C327.069 388.805 326.409 388.949 325.641 388.949ZM325.641 387.635C326.145 387.635 326.577 387.539 326.937 387.347C327.297 387.143 327.585 386.861 327.801 386.501C328.029 386.141 328.197 385.709 328.305 385.205C328.413 384.689 328.467 384.113 328.467 383.477V381.425C328.467 380.801 328.413 380.231 328.305 379.715C328.197 379.199 328.029 378.761 327.801 378.401C327.585 378.041 327.297 377.765 326.937 377.573C326.577 377.369 326.145 377.267 325.641 377.267C325.137 377.267 324.705 377.369 324.345 377.573C323.985 377.765 323.691 378.041 323.463 378.401C323.247 378.761 323.085 379.199 322.977 379.715C322.869 380.231 322.815 380.801 322.815 381.425V383.477C322.815 384.113 322.869 384.689 322.977 385.205C323.085 385.709 323.247 386.141 323.463 386.501C323.691 386.861 323.985 387.143 324.345 387.347C324.705 387.539 325.137 387.635 325.641 387.635ZM325.641 383.513C325.221 383.513 324.927 383.429 324.759 383.261C324.603 383.093 324.525 382.889 324.525 382.649V382.253C324.525 382.013 324.603 381.809 324.759 381.641C324.927 381.473 325.221 381.389 325.641 381.389C326.061 381.389 326.349 381.473 326.505 381.641C326.673 381.809 326.757 382.013 326.757 382.253V382.649C326.757 382.889 326.673 383.093 326.505 383.261C326.349 383.429 326.061 383.513 325.641 383.513Z" fill="black"/>
<path d="M266.39 37.2832V36.4802H268.59V30.2872H268.513L266.577 32.0912L266.038 31.5082L268.073 29.6052H269.514V36.4802H271.538V37.2832H266.39Z" fill="black"/>
<path d="M268.755 88.5988C268.286 88.5988 267.882 88.5108 267.545 88.3348C267.208 88.1515 266.929 87.8911 266.709 87.5538C266.489 87.2165 266.328 86.8021 266.225 86.3108C266.122 85.8195 266.071 85.2585 266.071 84.6278C266.071 84.0045 266.122 83.4471 266.225 82.9558C266.328 82.4571 266.489 82.0391 266.709 81.7018C266.929 81.3645 267.208 81.1078 267.545 80.9318C267.882 80.7485 268.286 80.6568 268.755 80.6568C269.224 80.6568 269.628 80.7485 269.965 80.9318C270.302 81.1078 270.581 81.3645 270.801 81.7018C271.021 82.0391 271.182 82.4571 271.285 82.9558C271.388 83.4471 271.439 84.0045 271.439 84.6278C271.439 85.2585 271.388 85.8195 271.285 86.3108C271.182 86.8021 271.021 87.2165 270.801 87.5538C270.581 87.8911 270.302 88.1515 269.965 88.3348C269.628 88.5108 269.224 88.5988 268.755 88.5988ZM268.755 87.7958C269.063 87.7958 269.327 87.7371 269.547 87.6198C269.767 87.4951 269.943 87.3228 270.075 87.1028C270.214 86.8828 270.317 86.6188 270.383 86.3108C270.449 85.9955 270.482 85.6435 270.482 85.2548V84.0008C270.482 83.6195 270.449 83.2711 270.383 82.9558C270.317 82.6405 270.214 82.3728 270.075 82.1528C269.943 81.9328 269.767 81.7641 269.547 81.6468C269.327 81.5221 269.063 81.4598 268.755 81.4598C268.447 81.4598 268.183 81.5221 267.963 81.6468C267.743 81.7641 267.563 81.9328 267.424 82.1528C267.292 82.3728 267.193 82.6405 267.127 82.9558C267.061 83.2711 267.028 83.6195 267.028 84.0008V85.2548C267.028 85.6435 267.061 85.9955 267.127 86.3108C267.193 86.6188 267.292 86.8828 267.424 87.1028C267.563 87.3228 267.743 87.4951 267.963 87.6198C268.183 87.7371 268.447 87.7958 268.755 87.7958ZM268.755 85.2768C268.498 85.2768 268.319 85.2255 268.216 85.1228C268.121 85.0201 268.073 84.8955 268.073 84.7488V84.5068C268.073 84.3601 268.121 84.2355 268.216 84.1328C268.319 84.0301 268.498 83.9788 268.755 83.9788C269.012 83.9788 269.188 84.0301 269.283 84.1328C269.386 84.2355 269.437 84.3601 269.437 84.5068V84.7488C269.437 84.8955 269.386 85.0201 269.283 85.1228C269.188 85.2255 269.012 85.2768 268.755 85.2768Z" fill="black"/>
<path d="M266.39 135.5V134.697H268.59V128.504H268.513L266.577 130.308L266.038 129.725L268.073 127.822H269.514V134.697H271.538V135.5H266.39Z" fill="black"/>
<path d="M268.755 186.816C268.286 186.816 267.882 186.728 267.545 186.552C267.208 186.368 266.929 186.108 266.709 185.771C266.489 185.433 266.328 185.019 266.225 184.528C266.122 184.036 266.071 183.475 266.071 182.845C266.071 182.221 266.122 181.664 266.225 181.173C266.328 180.674 266.489 180.256 266.709 179.919C266.929 179.581 267.208 179.325 267.545 179.149C267.882 178.965 268.286 178.874 268.755 178.874C269.224 178.874 269.628 178.965 269.965 179.149C270.302 179.325 270.581 179.581 270.801 179.919C271.021 180.256 271.182 180.674 271.285 181.173C271.388 181.664 271.439 182.221 271.439 182.845C271.439 183.475 271.388 184.036 271.285 184.528C271.182 185.019 271.021 185.433 270.801 185.771C270.581 186.108 270.302 186.368 269.965 186.552C269.628 186.728 269.224 186.816 268.755 186.816ZM268.755 186.013C269.063 186.013 269.327 185.954 269.547 185.837C269.767 185.712 269.943 185.54 270.075 185.32C270.214 185.1 270.317 184.836 270.383 184.528C270.449 184.212 270.482 183.86 270.482 183.472V182.218C270.482 181.836 270.449 181.488 270.383 181.173C270.317 180.857 270.214 180.59 270.075 180.37C269.943 180.15 269.767 179.981 269.547 179.864C269.327 179.739 269.063 179.677 268.755 179.677C268.447 179.677 268.183 179.739 267.963 179.864C267.743 179.981 267.563 180.15 267.424 180.37C267.292 180.59 267.193 180.857 267.127 181.173C267.061 181.488 267.028 181.836 267.028 182.218V183.472C267.028 183.86 267.061 184.212 267.127 184.528C267.193 184.836 267.292 185.1 267.424 185.32C267.563 185.54 267.743 185.712 267.963 185.837C268.183 185.954 268.447 186.013 268.755 186.013ZM268.755 183.494C268.498 183.494 268.319 183.442 268.216 183.34C268.121 183.237 268.073 183.112 268.073 182.966V182.724C268.073 182.577 268.121 182.452 268.216 182.35C268.319 182.247 268.498 182.196 268.755 182.196C269.012 182.196 269.188 182.247 269.283 182.35C269.386 182.452 269.437 182.577 269.437 182.724V182.966C269.437 183.112 269.386 183.237 269.283 183.34C269.188 183.442 269.012 183.494 268.755 183.494Z" fill="black"/>
<path d="M266.39 235.1V234.297H268.59V228.104H268.513L266.577 229.908L266.038 229.325L268.073 227.422H269.514V234.297H271.538V235.1H266.39Z" fill="black"/>
<path d="M268.755 286.415C268.256 286.415 267.824 286.327 267.457 286.151C267.09 285.968 266.786 285.708 266.544 285.37C266.309 285.033 266.133 284.619 266.016 284.127C265.906 283.636 265.851 283.075 265.851 282.444C265.851 281.821 265.906 281.264 266.016 280.772C266.133 280.274 266.309 279.856 266.544 279.518C266.786 279.181 267.09 278.924 267.457 278.748C267.824 278.565 268.256 278.473 268.755 278.473C269.752 278.473 270.486 278.822 270.955 279.518C271.424 280.215 271.659 281.19 271.659 282.444C271.659 283.698 271.424 284.674 270.955 285.37C270.486 286.067 269.752 286.415 268.755 286.415ZM268.755 285.26C269.283 285.26 269.653 285.073 269.866 284.699C270.086 284.318 270.196 283.794 270.196 283.126V281.762C270.196 281.095 270.086 280.574 269.866 280.2C269.653 279.819 269.283 279.628 268.755 279.628C268.227 279.628 267.853 279.819 267.633 280.2C267.42 280.574 267.314 281.095 267.314 281.762V283.126C267.314 283.794 267.42 284.318 267.633 284.699C267.853 285.073 268.227 285.26 268.755 285.26ZM268.755 283.093C268.498 283.093 268.319 283.042 268.216 282.939C268.121 282.837 268.073 282.712 268.073 282.565V282.323C268.073 282.177 268.121 282.052 268.216 281.949C268.319 281.847 268.498 281.795 268.755 281.795C269.012 281.795 269.188 281.847 269.283 281.949C269.386 282.052 269.437 282.177 269.437 282.323V282.565C269.437 282.712 269.386 282.837 269.283 282.939C269.188 283.042 269.012 283.093 268.755 283.093Z" fill="#5158F6"/>
<path d="M266.39 334.7V333.897H268.59V327.704H268.513L266.577 329.508L266.038 328.925L268.073 327.022H269.514V333.897H271.538V334.7H266.39Z" fill="black"/>
<path d="M268.755 386.015C268.286 386.015 267.882 385.927 267.545 385.751C267.208 385.568 266.929 385.307 266.709 384.97C266.489 384.633 266.328 384.218 266.225 383.727C266.122 383.236 266.071 382.675 266.071 382.044C266.071 381.421 266.122 380.863 266.225 380.372C266.328 379.873 266.489 379.455 266.709 379.118C266.929 378.781 267.208 378.524 267.545 378.348C267.882 378.165 268.286 378.073 268.755 378.073C269.224 378.073 269.628 378.165 269.965 378.348C270.302 378.524 270.581 378.781 270.801 379.118C271.021 379.455 271.182 379.873 271.285 380.372C271.388 380.863 271.439 381.421 271.439 382.044C271.439 382.675 271.388 383.236 271.285 383.727C271.182 384.218 271.021 384.633 270.801 384.97C270.581 385.307 270.302 385.568 269.965 385.751C269.628 385.927 269.224 386.015 268.755 386.015ZM268.755 385.212C269.063 385.212 269.327 385.153 269.547 385.036C269.767 384.911 269.943 384.739 270.075 384.519C270.214 384.299 270.317 384.035 270.383 383.727C270.449 383.412 270.482 383.06 270.482 382.671V381.417C270.482 381.036 270.449 380.687 270.383 380.372C270.317 380.057 270.214 379.789 270.075 379.569C269.943 379.349 269.767 379.18 269.547 379.063C269.327 378.938 269.063 378.876 268.755 378.876C268.447 378.876 268.183 378.938 267.963 379.063C267.743 379.18 267.563 379.349 267.424 379.569C267.292 379.789 267.193 380.057 267.127 380.372C267.061 380.687 267.028 381.036 267.028 381.417V382.671C267.028 383.06 267.061 383.412 267.127 383.727C267.193 384.035 267.292 384.299 267.424 384.519C267.563 384.739 267.743 384.911 267.963 385.036C268.183 385.153 268.447 385.212 268.755 385.212ZM268.755 382.693C268.498 382.693 268.319 382.642 268.216 382.539C268.121 382.436 268.073 382.312 268.073 382.165V381.923C268.073 381.776 268.121 381.652 268.216 381.549C268.319 381.446 268.498 381.395 268.755 381.395C269.012 381.395 269.188 381.446 269.283 381.549C269.386 381.652 269.437 381.776 269.437 381.923V382.165C269.437 382.312 269.386 382.436 269.283 382.539C269.188 382.642 269.012 382.693 268.755 382.693Z" fill="black"/>
<path d="M202.823 273.833V272.656H204.935V267.2H204.836L203.164 269.18L202.262 268.421L204.165 266.155H206.376V272.656H208.114V273.833H202.823Z" fill="#5158F6"/>
<path d="M205.122 345.898C204.652 345.898 204.249 345.81 203.912 345.634C203.574 345.451 203.296 345.191 203.076 344.853C202.856 344.516 202.694 344.102 202.592 343.61C202.489 343.119 202.438 342.558 202.438 341.927C202.438 341.304 202.489 340.747 202.592 340.255C202.694 339.757 202.856 339.339 203.076 339.001C203.296 338.664 203.574 338.407 203.912 338.231C204.249 338.048 204.652 337.956 205.122 337.956C205.591 337.956 205.994 338.048 206.332 338.231C206.669 338.407 206.948 338.664 207.168 339.001C207.388 339.339 207.549 339.757 207.652 340.255C207.754 340.747 207.806 341.304 207.806 341.927C207.806 342.558 207.754 343.119 207.652 343.61C207.549 344.102 207.388 344.516 207.168 344.853C206.948 345.191 206.669 345.451 206.332 345.634C205.994 345.81 205.591 345.898 205.122 345.898ZM205.122 345.095C205.43 345.095 205.694 345.037 205.914 344.919C206.134 344.795 206.31 344.622 206.442 344.402C206.581 344.182 206.684 343.918 206.75 343.61C206.816 343.295 206.849 342.943 206.849 342.554V341.3C206.849 340.919 206.816 340.571 206.75 340.255C206.684 339.94 206.581 339.672 206.442 339.452C206.31 339.232 206.134 339.064 205.914 338.946C205.694 338.822 205.43 338.759 205.122 338.759C204.814 338.759 204.55 338.822 204.33 338.946C204.11 339.064 203.93 339.232 203.791 339.452C203.659 339.672 203.56 339.94 203.494 340.255C203.428 340.571 203.395 340.919 203.395 341.3V342.554C203.395 342.943 203.428 343.295 203.494 343.61C203.56 343.918 203.659 344.182 203.791 344.402C203.93 344.622 204.11 344.795 204.33 344.919C204.55 345.037 204.814 345.095 205.122 345.095ZM205.122 342.576C204.865 342.576 204.685 342.525 204.583 342.422C204.487 342.32 204.44 342.195 204.44 342.048V341.806C204.44 341.66 204.487 341.535 204.583 341.432C204.685 341.33 204.865 341.278 205.122 341.278C205.378 341.278 205.554 341.33 205.65 341.432C205.752 341.535 205.804 341.66 205.804 341.806V342.048C205.804 342.195 205.752 342.32 205.65 342.422C205.554 342.525 205.378 342.576 205.122 342.576Z" fill="black"/>
<path d="M202.757 77.3999V76.5969H204.957V70.4039H204.88L202.944 72.2079L202.405 71.6249L204.44 69.7219H205.881V76.5969H207.905V77.3999H202.757Z" fill="black"/>
<path d="M96.2404 138.267V137.464H98.4404V131.271H98.3634L96.4274 133.075L95.8884 132.492L97.9234 130.589H99.3644V137.464H101.388V138.267H96.2404Z" fill="black"/>
<path d="M205.122 149.465C204.652 149.465 204.249 149.377 203.912 149.201C203.574 149.018 203.296 148.757 203.076 148.42C202.856 148.083 202.694 147.668 202.592 147.177C202.489 146.686 202.438 146.125 202.438 145.494C202.438 144.871 202.489 144.313 202.592 143.822C202.694 143.323 202.856 142.905 203.076 142.568C203.296 142.231 203.574 141.974 203.912 141.798C204.249 141.615 204.652 141.523 205.122 141.523C205.591 141.523 205.994 141.615 206.332 141.798C206.669 141.974 206.948 142.231 207.168 142.568C207.388 142.905 207.549 143.323 207.652 143.822C207.754 144.313 207.806 144.871 207.806 145.494C207.806 146.125 207.754 146.686 207.652 147.177C207.549 147.668 207.388 148.083 207.168 148.42C206.948 148.757 206.669 149.018 206.332 149.201C205.994 149.377 205.591 149.465 205.122 149.465ZM205.122 148.662C205.43 148.662 205.694 148.603 205.914 148.486C206.134 148.361 206.31 148.189 206.442 147.969C206.581 147.749 206.684 147.485 206.75 147.177C206.816 146.862 206.849 146.51 206.849 146.121V144.867C206.849 144.486 206.816 144.137 206.75 143.822C206.684 143.507 206.581 143.239 206.442 143.019C206.31 142.799 206.134 142.63 205.914 142.513C205.694 142.388 205.43 142.326 205.122 142.326C204.814 142.326 204.55 142.388 204.33 142.513C204.11 142.63 203.93 142.799 203.791 143.019C203.659 143.239 203.56 143.507 203.494 143.822C203.428 144.137 203.395 144.486 203.395 144.867V146.121C203.395 146.51 203.428 146.862 203.494 147.177C203.56 147.485 203.659 147.749 203.791 147.969C203.93 148.189 204.11 148.361 204.33 148.486C204.55 148.603 204.814 148.662 205.122 148.662ZM205.122 146.143C204.865 146.143 204.685 146.092 204.583 145.989C204.487 145.886 204.44 145.762 204.44 145.615V145.373C204.44 145.226 204.487 145.102 204.583 144.999C204.685 144.896 204.865 144.845 205.122 144.845C205.378 144.845 205.554 144.896 205.65 144.999C205.752 145.102 205.804 145.226 205.804 145.373V145.615C205.804 145.762 205.752 145.886 205.65 145.989C205.554 146.092 205.378 146.143 205.122 146.143Z" fill="black"/>
<path d="M98.6054 283.649C98.1068 283.649 97.6741 283.561 97.3074 283.385C96.9408 283.201 96.6364 282.941 96.3944 282.604C96.1598 282.266 95.9838 281.852 95.8664 281.361C95.7564 280.869 95.7014 280.308 95.7014 279.678C95.7014 279.054 95.7564 278.497 95.8664 278.006C95.9838 277.507 96.1598 277.089 96.3944 276.752C96.6364 276.414 96.9408 276.158 97.3074 275.982C97.6741 275.798 98.1068 275.707 98.6054 275.707C99.6028 275.707 100.336 276.055 100.805 276.752C101.275 277.448 101.509 278.424 101.509 279.678C101.509 280.932 101.275 281.907 100.805 282.604C100.336 283.3 99.6028 283.649 98.6054 283.649ZM98.6054 282.494C99.1334 282.494 99.5038 282.307 99.7164 281.933C99.9364 281.551 100.046 281.027 100.046 280.36V278.996C100.046 278.328 99.9364 277.808 99.7164 277.434C99.5038 277.052 99.1334 276.862 98.6054 276.862C98.0774 276.862 97.7034 277.052 97.4834 277.434C97.2708 277.808 97.1644 278.328 97.1644 278.996V280.36C97.1644 281.027 97.2708 281.551 97.4834 281.933C97.7034 282.307 98.0774 282.494 98.6054 282.494ZM98.6054 280.327C98.3488 280.327 98.1691 280.275 98.0664 280.173C97.9711 280.07 97.9234 279.945 97.9234 279.799V279.557C97.9234 279.41 97.9711 279.285 98.0664 279.183C98.1691 279.08 98.3488 279.029 98.6054 279.029C98.8621 279.029 99.0381 279.08 99.1334 279.183C99.2361 279.285 99.2874 279.41 99.2874 279.557V279.799C99.2874 279.945 99.2361 280.07 99.1334 280.173C99.0381 280.275 98.8621 280.327 98.6054 280.327Z" fill="#5158F6"/>
<path d="M379.377 284.073C379.647 283.802 379.647 283.365 379.377 283.094L374.976 278.693C374.705 278.423 374.267 278.423 373.997 278.693C373.727 278.963 373.727 279.401 373.997 279.671L377.91 283.583L373.997 287.496C373.727 287.766 373.727 288.204 373.997 288.474C374.267 288.744 374.705 288.744 374.976 288.474L379.377 284.073ZM337.388 284.275H378.888V282.892H337.388V284.275Z" fill="#5158F6"/>
<path d="M379.377 234.273C379.647 234.002 379.647 233.564 379.377 233.294L374.976 228.893C374.705 228.623 374.267 228.623 373.997 228.893C373.727 229.163 373.727 229.601 373.997 229.871L377.91 233.783L373.997 237.696C373.727 237.966 373.727 238.404 373.997 238.674C374.267 238.944 374.705 238.944 374.976 238.674L379.377 234.273ZM337.388 234.475H378.888V233.092H337.388V234.475Z" fill="black"/>
<path d="M379.377 184.472C379.647 184.202 379.647 183.764 379.377 183.494L374.976 179.092C374.705 178.822 374.267 178.822 373.997 179.092C373.727 179.362 373.727 179.8 373.997 180.07L377.91 183.983L373.997 187.896C373.727 188.166 373.727 188.604 373.997 188.874C374.267 189.144 374.705 189.144 374.976 188.874L379.377 184.472ZM337.388 184.675H378.888V183.291H337.388V184.675Z" fill="black"/>
<path d="M379.377 134.672C379.647 134.402 379.647 133.964 379.377 133.694L374.976 129.293C374.705 129.022 374.267 129.022 373.997 129.293C373.727 129.563 373.727 130.001 373.997 130.271L377.91 134.183L373.997 138.096C373.727 138.366 373.727 138.804 373.997 139.074C374.267 139.344 374.705 139.344 374.976 139.074L379.377 134.672ZM337.388 134.875H378.888V133.492H337.388V134.875Z" fill="black"/>
<path d="M379.377 84.8726C379.647 84.6025 379.647 84.1646 379.377 83.8945L374.976 79.4927C374.705 79.2226 374.267 79.2226 373.997 79.4927C373.727 79.7628 373.727 80.2008 373.997 80.4709L377.91 84.3835L373.997 88.2962C373.727 88.5663 373.727 89.0043 373.997 89.2744C374.267 89.5445 374.705 89.5445 374.976 89.2744L379.377 84.8726ZM337.388 85.0752H378.888V83.6919H337.388V85.0752Z" fill="black"/>
<path d="M379.377 35.0721C379.647 34.802 379.647 34.364 379.377 34.0939L374.976 29.6922C374.705 29.4221 374.267 29.4221 373.997 29.6922C373.727 29.9623 373.727 30.4002 373.997 30.6703L377.91 34.583L373.997 38.4957C373.727 38.7658 373.727 39.2037 373.997 39.4738C374.267 39.7439 374.705 39.7439 374.976 39.4738L379.377 35.0721ZM337.388 35.2747H378.888V33.8913H337.388V35.2747Z" fill="black"/>
<path d="M379.377 333.872C379.647 333.602 379.647 333.164 379.377 332.894L374.976 328.492C374.705 328.222 374.267 328.222 373.997 328.492C373.727 328.763 373.727 329.201 373.997 329.471L377.91 333.383L373.997 337.296C373.727 337.566 373.727 338.004 373.997 338.274C374.267 338.544 374.705 338.544 374.976 338.274L379.377 333.872ZM337.388 334.075H378.888V332.692H337.388V334.075Z" fill="black"/>
<path d="M379.377 383.672C379.647 383.402 379.647 382.964 379.377 382.694L374.976 378.293C374.705 378.022 374.267 378.022 373.997 378.293C373.727 378.563 373.727 379.001 373.997 379.271L377.91 383.183L373.997 387.096C373.727 387.366 373.727 387.804 373.997 388.074C374.267 388.344 374.705 388.344 374.976 388.074L379.377 383.672ZM337.388 383.875H378.888V382.492H337.388V383.875Z" fill="black"/>
</svg>
