<svg width="640" height="300" viewBox="0 0 640 300" fill="none" xmlns="http://www.w3.org/2000/svg">
<path d="M391 15L331 45L391 75" stroke="black"/>
<path d="M331 45L261 80L331 115" stroke="black"/>
<path d="M331 185L261 220L331 255" stroke="black"/>
<path d="M261 80L121 150L261 220" stroke="black"/>
<path d="M391 85L331 115L391 145" stroke="black"/>
<path d="M391 155L331 185L391 215" stroke="black"/>
<path d="M391 225L331 255L391 285" stroke="black"/>
<path d="M391.5 215L331.445 185.22C331.164 185.082 330.836 185.082 330.556 185.221L260.949 219.777C260.666 219.917 260.334 219.916 260.053 219.774L121 149.5" stroke="#5158F6" stroke-width="3" stroke-linecap="round" stroke-linejoin="round"/>
<path d="M179.85 112V111.27H181.85V105.64H181.78L180.02 107.28L179.53 106.75L181.38 105.02H182.69V111.27H184.53V112H179.85Z" fill="black"/>
<path d="M182 174.12C181.067 174.12 180.377 173.803 179.93 173.17C179.49 172.537 179.27 171.65 179.27 170.51C179.27 169.37 179.49 168.483 179.93 167.85C180.377 167.217 181.067 166.9 182 166.9C182.933 166.9 183.62 167.217 184.06 167.85C184.507 168.483 184.73 169.37 184.73 170.51C184.73 171.65 184.507 172.537 184.06 173.17C183.62 173.803 182.933 174.12 182 174.12ZM182 172.94C182.447 172.94 182.757 172.783 182.93 172.47C183.11 172.157 183.2 171.72 183.2 171.16V169.86C183.2 169.3 183.11 168.863 182.93 168.55C182.757 168.237 182.447 168.08 182 168.08C181.553 168.08 181.24 168.237 181.06 168.55C180.887 168.863 180.8 169.3 180.8 169.86V171.16C180.8 171.72 180.887 172.157 181.06 172.47C181.24 172.783 181.553 172.94 182 172.94ZM182 171.1C181.767 171.1 181.603 171.053 181.51 170.96C181.423 170.867 181.38 170.753 181.38 170.62V170.4C181.38 170.267 181.423 170.153 181.51 170.06C181.603 169.967 181.767 169.92 182 169.92C182.233 169.92 182.393 169.967 182.48 170.06C182.573 170.153 182.62 170.267 182.62 170.4V170.62C182.62 170.753 182.573 170.867 182.48 170.96C182.393 171.053 182.233 171.1 182 171.1Z" fill="#5158F6"/>
<path d="M402.85 18V17.27H404.85V11.64H404.78L403.02 13.28L402.53 12.75L404.38 11.02H405.69V17.27H407.53V18H402.85ZM408.846 18V17.27H410.846V11.64H410.776L409.016 13.28L408.526 12.75L410.376 11.02H411.686V17.27H413.526V18H408.846ZM414.842 18V17.27H416.842V11.64H416.772L415.012 13.28L414.522 12.75L416.372 11.02H417.682V17.27H419.522V18H414.842Z" fill="black"/>
<path d="M455.73 18L458.46 11.74H455.4V13.04H454.65V11.02H459.31V11.76L456.63 18H455.73Z" fill="black"/>
<path d="M457.01 75.12C456.643 75.12 456.313 75.06 456.02 74.94C455.727 74.8133 455.477 74.6367 455.27 74.41C455.07 74.1767 454.913 73.8933 454.8 73.56C454.693 73.2267 454.64 72.8533 454.64 72.44C454.64 71.92 454.717 71.4333 454.87 70.98C455.03 70.52 455.23 70.1033 455.47 69.73C455.717 69.35 455.99 69.0167 456.29 68.73C456.59 68.4367 456.883 68.2 457.17 68.02H458.25C457.87 68.2933 457.53 68.56 457.23 68.82C456.937 69.08 456.677 69.3533 456.45 69.64C456.223 69.92 456.033 70.2233 455.88 70.55C455.727 70.87 455.6 71.2333 455.5 71.64L455.55 71.66C455.717 71.3733 455.937 71.1367 456.21 70.95C456.483 70.7567 456.837 70.66 457.27 70.66C457.577 70.66 457.857 70.71 458.11 70.81C458.363 70.91 458.583 71.0533 458.77 71.24C458.957 71.4267 459.1 71.6533 459.2 71.92C459.307 72.1867 459.36 72.4833 459.36 72.81C459.36 73.15 459.303 73.4633 459.19 73.75C459.077 74.03 458.917 74.2733 458.71 74.48C458.51 74.68 458.263 74.8367 457.97 74.95C457.683 75.0633 457.363 75.12 457.01 75.12ZM457 74.41C457.48 74.41 457.85 74.28 458.11 74.02C458.377 73.76 458.51 73.3933 458.51 72.92V72.84C458.51 72.3667 458.377 72 458.11 71.74C457.85 71.48 457.48 71.35 457 71.35C456.52 71.35 456.147 71.48 455.88 71.74C455.62 72 455.49 72.3667 455.49 72.84V72.92C455.49 73.3933 455.62 73.76 455.88 74.02C456.147 74.28 456.52 74.41 457 74.41Z" fill="black"/>
<path d="M459.01 84.75H455.89L455.69 87.42H455.76C455.933 87.1867 456.127 87.0033 456.34 86.87C456.553 86.73 456.847 86.66 457.22 86.66C457.527 86.66 457.807 86.71 458.06 86.81C458.32 86.9033 458.543 87.0433 458.73 87.23C458.917 87.4167 459.063 87.6433 459.17 87.91C459.277 88.17 459.33 88.47 459.33 88.81C459.33 89.15 459.277 89.4633 459.17 89.75C459.063 90.03 458.907 90.2733 458.7 90.48C458.493 90.68 458.243 90.8367 457.95 90.95C457.657 91.0633 457.323 91.12 456.95 91.12C456.657 91.12 456.393 91.0867 456.16 91.02C455.933 90.9533 455.73 90.8633 455.55 90.75C455.377 90.6367 455.223 90.51 455.09 90.37C454.957 90.23 454.837 90.0833 454.73 89.93L455.36 89.45C455.453 89.59 455.547 89.7167 455.64 89.83C455.74 89.9433 455.853 90.0433 455.98 90.13C456.107 90.21 456.25 90.2733 456.41 90.32C456.57 90.3667 456.757 90.39 456.97 90.39C457.45 90.39 457.817 90.26 458.07 90C458.33 89.74 458.46 89.38 458.46 88.92V88.84C458.46 88.38 458.33 88.02 458.07 87.76C457.81 87.5 457.437 87.37 456.95 87.37C456.617 87.37 456.357 87.4267 456.17 87.54C455.99 87.6533 455.823 87.7933 455.67 87.96L454.96 87.86L455.21 84.02H459.01V84.75Z" fill="black"/>
<path d="M457.78 142V140.63H454.34V139.89L457.36 135.02H458.58V139.94H459.62V140.63H458.58V142H457.78ZM455.09 139.94H457.78V135.67H457.74L455.09 139.94Z" fill="black"/>
<path d="M456.7 155.98C457.187 155.98 457.55 155.873 457.79 155.66C458.037 155.44 458.16 155.16 458.16 154.82V154.75C458.16 154.377 458.04 154.097 457.8 153.91C457.567 153.723 457.26 153.63 456.88 153.63C456.507 153.63 456.203 153.713 455.97 153.88C455.743 154.04 455.557 154.253 455.41 154.52L454.78 154.04C454.867 153.9 454.973 153.763 455.1 153.63C455.227 153.49 455.373 153.367 455.54 153.26C455.713 153.153 455.91 153.067 456.13 153C456.357 152.933 456.613 152.9 456.9 152.9C457.2 152.9 457.48 152.94 457.74 153.02C458 153.093 458.227 153.207 458.42 153.36C458.613 153.507 458.763 153.69 458.87 153.91C458.983 154.13 459.04 154.38 459.04 154.66C459.04 154.887 459.003 155.09 458.93 155.27C458.863 155.45 458.767 155.607 458.64 155.74C458.52 155.873 458.377 155.987 458.21 156.08C458.043 156.173 457.867 156.243 457.68 156.29V156.33C457.873 156.37 458.06 156.437 458.24 156.53C458.42 156.617 458.58 156.733 458.72 156.88C458.86 157.02 458.97 157.193 459.05 157.4C459.137 157.6 459.18 157.83 459.18 158.09C459.18 158.39 459.12 158.667 459 158.92C458.887 159.167 458.723 159.38 458.51 159.56C458.303 159.733 458.05 159.87 457.75 159.97C457.457 160.07 457.13 160.12 456.77 160.12C456.463 160.12 456.19 160.087 455.95 160.02C455.717 159.953 455.507 159.863 455.32 159.75C455.14 159.637 454.98 159.51 454.84 159.37C454.707 159.23 454.587 159.083 454.48 158.93L455.11 158.45C455.203 158.59 455.3 158.717 455.4 158.83C455.5 158.943 455.613 159.043 455.74 159.13C455.873 159.21 456.023 159.273 456.19 159.32C456.357 159.367 456.55 159.39 456.77 159.39C457.263 159.39 457.64 159.277 457.9 159.05C458.167 158.823 458.3 158.5 458.3 158.08V158C458.3 157.587 458.17 157.267 457.91 157.04C457.657 156.813 457.273 156.7 456.76 156.7H455.93V155.98H456.7Z" fill="black"/>
<path d="M459.55 217H454.53V215.63L456.73 213.8C457.11 213.473 457.383 213.19 457.55 212.95C457.717 212.71 457.8 212.457 457.8 212.19V212.09C457.8 211.797 457.713 211.577 457.54 211.43C457.367 211.277 457.133 211.2 456.84 211.2C456.507 211.2 456.25 211.297 456.07 211.49C455.89 211.683 455.763 211.913 455.69 212.18L454.38 211.68C454.46 211.44 454.57 211.213 454.71 211C454.85 210.78 455.027 210.59 455.24 210.43C455.46 210.27 455.713 210.143 456 210.05C456.287 209.95 456.617 209.9 456.99 209.9C457.37 209.9 457.71 209.953 458.01 210.06C458.31 210.167 458.563 210.313 458.77 210.5C458.977 210.687 459.133 210.91 459.24 211.17C459.347 211.423 459.4 211.7 459.4 212C459.4 212.293 459.35 212.563 459.25 212.81C459.157 213.05 459.023 213.277 458.85 213.49C458.683 213.703 458.483 213.91 458.25 214.11C458.023 214.31 457.78 214.51 457.52 214.71L456.19 215.74H459.55V217Z" fill="#5158F6"/>
<path d="M454.85 230V229.27H456.85V223.64H456.78L455.02 225.28L454.53 224.75L456.38 223.02H457.69V229.27H459.53V230H454.85Z" fill="black"/>
<path d="M457 287.12C456.573 287.12 456.207 287.04 455.9 286.88C455.593 286.713 455.34 286.477 455.14 286.17C454.94 285.863 454.793 285.487 454.7 285.04C454.607 284.593 454.56 284.083 454.56 283.51C454.56 282.943 454.607 282.437 454.7 281.99C454.793 281.537 454.94 281.157 455.14 280.85C455.34 280.543 455.593 280.31 455.9 280.15C456.207 279.983 456.573 279.9 457 279.9C457.427 279.9 457.793 279.983 458.1 280.15C458.407 280.31 458.66 280.543 458.86 280.85C459.06 281.157 459.207 281.537 459.3 281.99C459.393 282.437 459.44 282.943 459.44 283.51C459.44 284.083 459.393 284.593 459.3 285.04C459.207 285.487 459.06 285.863 458.86 286.17C458.66 286.477 458.407 286.713 458.1 286.88C457.793 287.04 457.427 287.12 457 287.12ZM457 286.39C457.28 286.39 457.52 286.337 457.72 286.23C457.92 286.117 458.08 285.96 458.2 285.76C458.327 285.56 458.42 285.32 458.48 285.04C458.54 284.753 458.57 284.433 458.57 284.08V282.94C458.57 282.593 458.54 282.277 458.48 281.99C458.42 281.703 458.327 281.46 458.2 281.26C458.08 281.06 457.92 280.907 457.72 280.8C457.52 280.687 457.28 280.63 457 280.63C456.72 280.63 456.48 280.687 456.28 280.8C456.08 280.907 455.917 281.06 455.79 281.26C455.67 281.46 455.58 281.703 455.52 281.99C455.46 282.277 455.43 282.593 455.43 282.94V284.08C455.43 284.433 455.46 284.753 455.52 285.04C455.58 285.32 455.67 285.56 455.79 285.76C455.917 285.96 456.08 286.117 456.28 286.23C456.48 286.337 456.72 286.39 457 286.39ZM457 284.1C456.767 284.1 456.603 284.053 456.51 283.96C456.423 283.867 456.38 283.753 456.38 283.62V283.4C456.38 283.267 456.423 283.153 456.51 283.06C456.603 282.967 456.767 282.92 457 282.92C457.233 282.92 457.393 282.967 457.48 283.06C457.573 283.153 457.62 283.267 457.62 283.4V283.62C457.62 283.753 457.573 283.867 457.48 283.96C457.393 284.053 457.233 284.1 457 284.1Z" fill="black"/>
<path d="M402.85 75V74.27H404.85V68.64H404.78L403.02 70.28L402.53 69.75L404.38 68.02H405.69V74.27H407.53V75H402.85ZM408.846 75V74.27H410.846V68.64H410.776L409.016 70.28L408.526 69.75L410.376 68.02H411.686V74.27H413.526V75H408.846ZM416.992 75.12C416.566 75.12 416.199 75.04 415.892 74.88C415.586 74.7133 415.332 74.4767 415.132 74.17C414.932 73.8633 414.786 73.4867 414.692 73.04C414.599 72.5933 414.552 72.0833 414.552 71.51C414.552 70.9433 414.599 70.4367 414.692 69.99C414.786 69.5367 414.932 69.1567 415.132 68.85C415.332 68.5433 415.586 68.31 415.892 68.15C416.199 67.9833 416.566 67.9 416.992 67.9C417.419 67.9 417.786 67.9833 418.092 68.15C418.399 68.31 418.652 68.5433 418.852 68.85C419.052 69.1567 419.199 69.5367 419.292 69.99C419.386 70.4367 419.432 70.9433 419.432 71.51C419.432 72.0833 419.386 72.5933 419.292 73.04C419.199 73.4867 419.052 73.8633 418.852 74.17C418.652 74.4767 418.399 74.7133 418.092 74.88C417.786 75.04 417.419 75.12 416.992 75.12ZM416.992 74.39C417.272 74.39 417.512 74.3367 417.712 74.23C417.912 74.1167 418.072 73.96 418.192 73.76C418.319 73.56 418.412 73.32 418.472 73.04C418.532 72.7533 418.562 72.4333 418.562 72.08V70.94C418.562 70.5933 418.532 70.2767 418.472 69.99C418.412 69.7033 418.319 69.46 418.192 69.26C418.072 69.06 417.912 68.9067 417.712 68.8C417.512 68.6867 417.272 68.63 416.992 68.63C416.712 68.63 416.472 68.6867 416.272 68.8C416.072 68.9067 415.909 69.06 415.782 69.26C415.662 69.46 415.572 69.7033 415.512 69.99C415.452 70.2767 415.422 70.5933 415.422 70.94V72.08C415.422 72.4333 415.452 72.7533 415.512 73.04C415.572 73.32 415.662 73.56 415.782 73.76C415.909 73.96 416.072 74.1167 416.272 74.23C416.472 74.3367 416.712 74.39 416.992 74.39ZM416.992 72.1C416.759 72.1 416.596 72.0533 416.502 71.96C416.416 71.8667 416.372 71.7533 416.372 71.62V71.4C416.372 71.2667 416.416 71.1533 416.502 71.06C416.596 70.9667 416.759 70.92 416.992 70.92C417.226 70.92 417.386 70.9667 417.472 71.06C417.566 71.1533 417.612 71.2667 417.612 71.4V71.62C417.612 71.7533 417.566 71.8667 417.472 71.96C417.386 72.0533 417.226 72.1 416.992 72.1Z" fill="black"/>
<path d="M405 160.12C404.573 160.12 404.207 160.04 403.9 159.88C403.593 159.713 403.34 159.477 403.14 159.17C402.94 158.863 402.793 158.487 402.7 158.04C402.607 157.593 402.56 157.083 402.56 156.51C402.56 155.943 402.607 155.437 402.7 154.99C402.793 154.537 402.94 154.157 403.14 153.85C403.34 153.543 403.593 153.31 403.9 153.15C404.207 152.983 404.573 152.9 405 152.9C405.427 152.9 405.793 152.983 406.1 153.15C406.407 153.31 406.66 153.543 406.86 153.85C407.06 154.157 407.207 154.537 407.3 154.99C407.393 155.437 407.44 155.943 407.44 156.51C407.44 157.083 407.393 157.593 407.3 158.04C407.207 158.487 407.06 158.863 406.86 159.17C406.66 159.477 406.407 159.713 406.1 159.88C405.793 160.04 405.427 160.12 405 160.12ZM405 159.39C405.28 159.39 405.52 159.337 405.72 159.23C405.92 159.117 406.08 158.96 406.2 158.76C406.327 158.56 406.42 158.32 406.48 158.04C406.54 157.753 406.57 157.433 406.57 157.08V155.94C406.57 155.593 406.54 155.277 406.48 154.99C406.42 154.703 406.327 154.46 406.2 154.26C406.08 154.06 405.92 153.907 405.72 153.8C405.52 153.687 405.28 153.63 405 153.63C404.72 153.63 404.48 153.687 404.28 153.8C404.08 153.907 403.917 154.06 403.79 154.26C403.67 154.46 403.58 154.703 403.52 154.99C403.46 155.277 403.43 155.593 403.43 155.94V157.08C403.43 157.433 403.46 157.753 403.52 158.04C403.58 158.32 403.67 158.56 403.79 158.76C403.917 158.96 404.08 159.117 404.28 159.23C404.48 159.337 404.72 159.39 405 159.39ZM405 157.1C404.767 157.1 404.603 157.053 404.51 156.96C404.423 156.867 404.38 156.753 404.38 156.62V156.4C404.38 156.267 404.423 156.153 404.51 156.06C404.603 155.967 404.767 155.92 405 155.92C405.233 155.92 405.393 155.967 405.48 156.06C405.573 156.153 405.62 156.267 405.62 156.4V156.62C405.62 156.753 405.573 156.867 405.48 156.96C405.393 157.053 405.233 157.1 405 157.1ZM408.846 160V159.27H410.846V153.64H410.776L409.016 155.28L408.526 154.75L410.376 153.02H411.686V159.27H413.526V160H408.846ZM414.842 160V159.27H416.842V153.64H416.772L415.012 155.28L414.522 154.75L416.372 153.02H417.682V159.27H419.522V160H414.842Z" fill="black"/>
<path d="M405 217.12C404.067 217.12 403.377 216.803 402.93 216.17C402.49 215.537 402.27 214.65 402.27 213.51C402.27 212.37 402.49 211.483 402.93 210.85C403.377 210.217 404.067 209.9 405 209.9C405.933 209.9 406.62 210.217 407.06 210.85C407.507 211.483 407.73 212.37 407.73 213.51C407.73 214.65 407.507 215.537 407.06 216.17C406.62 216.803 405.933 217.12 405 217.12ZM405 215.94C405.447 215.94 405.757 215.783 405.93 215.47C406.11 215.157 406.2 214.72 406.2 214.16V212.86C406.2 212.3 406.11 211.863 405.93 211.55C405.757 211.237 405.447 211.08 405 211.08C404.553 211.08 404.24 211.237 404.06 211.55C403.887 211.863 403.8 212.3 403.8 212.86V214.16C403.8 214.72 403.887 215.157 404.06 215.47C404.24 215.783 404.553 215.94 405 215.94ZM405 214.1C404.767 214.1 404.603 214.053 404.51 213.96C404.423 213.867 404.38 213.753 404.38 213.62V213.4C404.38 213.267 404.423 213.153 404.51 213.06C404.603 212.967 404.767 212.92 405 212.92C405.233 212.92 405.393 212.967 405.48 213.06C405.573 213.153 405.62 213.267 405.62 213.4V213.62C405.62 213.753 405.573 213.867 405.48 213.96C405.393 214.053 405.233 214.1 405 214.1ZM408.936 217V215.79H410.816V211.11H410.726L409.306 212.97L408.346 212.22L410.016 210.02H412.316V215.79H413.796V217H408.936ZM416.992 217.12C416.059 217.12 415.369 216.803 414.922 216.17C414.482 215.537 414.262 214.65 414.262 213.51C414.262 212.37 414.482 211.483 414.922 210.85C415.369 210.217 416.059 209.9 416.992 209.9C417.926 209.9 418.612 210.217 419.052 210.85C419.499 211.483 419.722 212.37 419.722 213.51C419.722 214.65 419.499 215.537 419.052 216.17C418.612 216.803 417.926 217.12 416.992 217.12ZM416.992 215.94C417.439 215.94 417.749 215.783 417.922 215.47C418.102 215.157 418.192 214.72 418.192 214.16V212.86C418.192 212.3 418.102 211.863 417.922 211.55C417.749 211.237 417.439 211.08 416.992 211.08C416.546 211.08 416.232 211.237 416.052 211.55C415.879 211.863 415.792 212.3 415.792 212.86V214.16C415.792 214.72 415.879 215.157 416.052 215.47C416.232 215.783 416.546 215.94 416.992 215.94ZM416.992 214.1C416.759 214.1 416.596 214.053 416.502 213.96C416.416 213.867 416.372 213.753 416.372 213.62V213.4C416.372 213.267 416.416 213.153 416.502 213.06C416.596 212.967 416.759 212.92 416.992 212.92C417.226 212.92 417.386 212.967 417.472 213.06C417.566 213.153 417.612 213.267 417.612 213.4V213.62C417.612 213.753 417.566 213.867 417.472 213.96C417.386 214.053 417.226 214.1 416.992 214.1Z" fill="#5158F6"/>
<path d="M402.85 91V90.27H404.85V84.64H404.78L403.02 86.28L402.53 85.75L404.38 84.02H405.69V90.27H407.53V91H402.85ZM410.996 91.12C410.569 91.12 410.203 91.04 409.896 90.88C409.589 90.7133 409.336 90.4767 409.136 90.17C408.936 89.8633 408.789 89.4867 408.696 89.04C408.603 88.5933 408.556 88.0833 408.556 87.51C408.556 86.9433 408.603 86.4367 408.696 85.99C408.789 85.5367 408.936 85.1567 409.136 84.85C409.336 84.5433 409.589 84.31 409.896 84.15C410.203 83.9833 410.569 83.9 410.996 83.9C411.423 83.9 411.789 83.9833 412.096 84.15C412.403 84.31 412.656 84.5433 412.856 84.85C413.056 85.1567 413.203 85.5367 413.296 85.99C413.389 86.4367 413.436 86.9433 413.436 87.51C413.436 88.0833 413.389 88.5933 413.296 89.04C413.203 89.4867 413.056 89.8633 412.856 90.17C412.656 90.4767 412.403 90.7133 412.096 90.88C411.789 91.04 411.423 91.12 410.996 91.12ZM410.996 90.39C411.276 90.39 411.516 90.3367 411.716 90.23C411.916 90.1167 412.076 89.96 412.196 89.76C412.323 89.56 412.416 89.32 412.476 89.04C412.536 88.7533 412.566 88.4333 412.566 88.08V86.94C412.566 86.5933 412.536 86.2767 412.476 85.99C412.416 85.7033 412.323 85.46 412.196 85.26C412.076 85.06 411.916 84.9067 411.716 84.8C411.516 84.6867 411.276 84.63 410.996 84.63C410.716 84.63 410.476 84.6867 410.276 84.8C410.076 84.9067 409.913 85.06 409.786 85.26C409.666 85.46 409.576 85.7033 409.516 85.99C409.456 86.2767 409.426 86.5933 409.426 86.94V88.08C409.426 88.4333 409.456 88.7533 409.516 89.04C409.576 89.32 409.666 89.56 409.786 89.76C409.913 89.96 410.076 90.1167 410.276 90.23C410.476 90.3367 410.716 90.39 410.996 90.39ZM410.996 88.1C410.763 88.1 410.599 88.0533 410.506 87.96C410.419 87.8667 410.376 87.7533 410.376 87.62V87.4C410.376 87.2667 410.419 87.1533 410.506 87.06C410.599 86.9667 410.763 86.92 410.996 86.92C411.229 86.92 411.389 86.9667 411.476 87.06C411.569 87.1533 411.616 87.2667 411.616 87.4V87.62C411.616 87.7533 411.569 87.8667 411.476 87.96C411.389 88.0533 411.229 88.1 410.996 88.1ZM414.842 91V90.27H416.842V84.64H416.772L415.012 86.28L414.522 85.75L416.372 84.02H417.682V90.27H419.522V91H414.842Z" fill="black"/>
<path d="M402.85 144V143.27H404.85V137.64H404.78L403.02 139.28L402.53 138.75L404.38 137.02H405.69V143.27H407.53V144H402.85ZM410.996 144.12C410.569 144.12 410.203 144.04 409.896 143.88C409.589 143.713 409.336 143.477 409.136 143.17C408.936 142.863 408.789 142.487 408.696 142.04C408.603 141.593 408.556 141.083 408.556 140.51C408.556 139.943 408.603 139.437 408.696 138.99C408.789 138.537 408.936 138.157 409.136 137.85C409.336 137.543 409.589 137.31 409.896 137.15C410.203 136.983 410.569 136.9 410.996 136.9C411.423 136.9 411.789 136.983 412.096 137.15C412.403 137.31 412.656 137.543 412.856 137.85C413.056 138.157 413.203 138.537 413.296 138.99C413.389 139.437 413.436 139.943 413.436 140.51C413.436 141.083 413.389 141.593 413.296 142.04C413.203 142.487 413.056 142.863 412.856 143.17C412.656 143.477 412.403 143.713 412.096 143.88C411.789 144.04 411.423 144.12 410.996 144.12ZM410.996 143.39C411.276 143.39 411.516 143.337 411.716 143.23C411.916 143.117 412.076 142.96 412.196 142.76C412.323 142.56 412.416 142.32 412.476 142.04C412.536 141.753 412.566 141.433 412.566 141.08V139.94C412.566 139.593 412.536 139.277 412.476 138.99C412.416 138.703 412.323 138.46 412.196 138.26C412.076 138.06 411.916 137.907 411.716 137.8C411.516 137.687 411.276 137.63 410.996 137.63C410.716 137.63 410.476 137.687 410.276 137.8C410.076 137.907 409.913 138.06 409.786 138.26C409.666 138.46 409.576 138.703 409.516 138.99C409.456 139.277 409.426 139.593 409.426 139.94V141.08C409.426 141.433 409.456 141.753 409.516 142.04C409.576 142.32 409.666 142.56 409.786 142.76C409.913 142.96 410.076 143.117 410.276 143.23C410.476 143.337 410.716 143.39 410.996 143.39ZM410.996 141.1C410.763 141.1 410.599 141.053 410.506 140.96C410.419 140.867 410.376 140.753 410.376 140.62V140.4C410.376 140.267 410.419 140.153 410.506 140.06C410.599 139.967 410.763 139.92 410.996 139.92C411.229 139.92 411.389 139.967 411.476 140.06C411.569 140.153 411.616 140.267 411.616 140.4V140.62C411.616 140.753 411.569 140.867 411.476 140.96C411.389 141.053 411.229 141.1 410.996 141.1ZM416.992 144.12C416.566 144.12 416.199 144.04 415.892 143.88C415.586 143.713 415.332 143.477 415.132 143.17C414.932 142.863 414.786 142.487 414.692 142.04C414.599 141.593 414.552 141.083 414.552 140.51C414.552 139.943 414.599 139.437 414.692 138.99C414.786 138.537 414.932 138.157 415.132 137.85C415.332 137.543 415.586 137.31 415.892 137.15C416.199 136.983 416.566 136.9 416.992 136.9C417.419 136.9 417.786 136.983 418.092 137.15C418.399 137.31 418.652 137.543 418.852 137.85C419.052 138.157 419.199 138.537 419.292 138.99C419.386 139.437 419.432 139.943 419.432 140.51C419.432 141.083 419.386 141.593 419.292 142.04C419.199 142.487 419.052 142.863 418.852 143.17C418.652 143.477 418.399 143.713 418.092 143.88C417.786 144.04 417.419 144.12 416.992 144.12ZM416.992 143.39C417.272 143.39 417.512 143.337 417.712 143.23C417.912 143.117 418.072 142.96 418.192 142.76C418.319 142.56 418.412 142.32 418.472 142.04C418.532 141.753 418.562 141.433 418.562 141.08V139.94C418.562 139.593 418.532 139.277 418.472 138.99C418.412 138.703 418.319 138.46 418.192 138.26C418.072 138.06 417.912 137.907 417.712 137.8C417.512 137.687 417.272 137.63 416.992 137.63C416.712 137.63 416.472 137.687 416.272 137.8C416.072 137.907 415.909 138.06 415.782 138.26C415.662 138.46 415.572 138.703 415.512 138.99C415.452 139.277 415.422 139.593 415.422 139.94V141.08C415.422 141.433 415.452 141.753 415.512 142.04C415.572 142.32 415.662 142.56 415.782 142.76C415.909 142.96 416.072 143.117 416.272 143.23C416.472 143.337 416.712 143.39 416.992 143.39ZM416.992 141.1C416.759 141.1 416.596 141.053 416.502 140.96C416.416 140.867 416.372 140.753 416.372 140.62V140.4C416.372 140.267 416.416 140.153 416.502 140.06C416.596 139.967 416.759 139.92 416.992 139.92C417.226 139.92 417.386 139.967 417.472 140.06C417.566 140.153 417.612 140.267 417.612 140.4V140.62C417.612 140.753 417.566 140.867 417.472 140.96C417.386 141.053 417.226 141.1 416.992 141.1Z" fill="black"/>
<path d="M405 230.12C404.573 230.12 404.207 230.04 403.9 229.88C403.593 229.713 403.34 229.477 403.14 229.17C402.94 228.863 402.793 228.487 402.7 228.04C402.607 227.593 402.56 227.083 402.56 226.51C402.56 225.943 402.607 225.437 402.7 224.99C402.793 224.537 402.94 224.157 403.14 223.85C403.34 223.543 403.593 223.31 403.9 223.15C404.207 222.983 404.573 222.9 405 222.9C405.427 222.9 405.793 222.983 406.1 223.15C406.407 223.31 406.66 223.543 406.86 223.85C407.06 224.157 407.207 224.537 407.3 224.99C407.393 225.437 407.44 225.943 407.44 226.51C407.44 227.083 407.393 227.593 407.3 228.04C407.207 228.487 407.06 228.863 406.86 229.17C406.66 229.477 406.407 229.713 406.1 229.88C405.793 230.04 405.427 230.12 405 230.12ZM405 229.39C405.28 229.39 405.52 229.337 405.72 229.23C405.92 229.117 406.08 228.96 406.2 228.76C406.327 228.56 406.42 228.32 406.48 228.04C406.54 227.753 406.57 227.433 406.57 227.08V225.94C406.57 225.593 406.54 225.277 406.48 224.99C406.42 224.703 406.327 224.46 406.2 224.26C406.08 224.06 405.92 223.907 405.72 223.8C405.52 223.687 405.28 223.63 405 223.63C404.72 223.63 404.48 223.687 404.28 223.8C404.08 223.907 403.917 224.06 403.79 224.26C403.67 224.46 403.58 224.703 403.52 224.99C403.46 225.277 403.43 225.593 403.43 225.94V227.08C403.43 227.433 403.46 227.753 403.52 228.04C403.58 228.32 403.67 228.56 403.79 228.76C403.917 228.96 404.08 229.117 404.28 229.23C404.48 229.337 404.72 229.39 405 229.39ZM405 227.1C404.767 227.1 404.603 227.053 404.51 226.96C404.423 226.867 404.38 226.753 404.38 226.62V226.4C404.38 226.267 404.423 226.153 404.51 226.06C404.603 225.967 404.767 225.92 405 225.92C405.233 225.92 405.393 225.967 405.48 226.06C405.573 226.153 405.62 226.267 405.62 226.4V226.62C405.62 226.753 405.573 226.867 405.48 226.96C405.393 227.053 405.233 227.1 405 227.1ZM410.996 230.12C410.569 230.12 410.203 230.04 409.896 229.88C409.589 229.713 409.336 229.477 409.136 229.17C408.936 228.863 408.789 228.487 408.696 228.04C408.603 227.593 408.556 227.083 408.556 226.51C408.556 225.943 408.603 225.437 408.696 224.99C408.789 224.537 408.936 224.157 409.136 223.85C409.336 223.543 409.589 223.31 409.896 223.15C410.203 222.983 410.569 222.9 410.996 222.9C411.423 222.9 411.789 222.983 412.096 223.15C412.403 223.31 412.656 223.543 412.856 223.85C413.056 224.157 413.203 224.537 413.296 224.99C413.389 225.437 413.436 225.943 413.436 226.51C413.436 227.083 413.389 227.593 413.296 228.04C413.203 228.487 413.056 228.863 412.856 229.17C412.656 229.477 412.403 229.713 412.096 229.88C411.789 230.04 411.423 230.12 410.996 230.12ZM410.996 229.39C411.276 229.39 411.516 229.337 411.716 229.23C411.916 229.117 412.076 228.96 412.196 228.76C412.323 228.56 412.416 228.32 412.476 228.04C412.536 227.753 412.566 227.433 412.566 227.08V225.94C412.566 225.593 412.536 225.277 412.476 224.99C412.416 224.703 412.323 224.46 412.196 224.26C412.076 224.06 411.916 223.907 411.716 223.8C411.516 223.687 411.276 223.63 410.996 223.63C410.716 223.63 410.476 223.687 410.276 223.8C410.076 223.907 409.913 224.06 409.786 224.26C409.666 224.46 409.576 224.703 409.516 224.99C409.456 225.277 409.426 225.593 409.426 225.94V227.08C409.426 227.433 409.456 227.753 409.516 228.04C409.576 228.32 409.666 228.56 409.786 228.76C409.913 228.96 410.076 229.117 410.276 229.23C410.476 229.337 410.716 229.39 410.996 229.39ZM410.996 227.1C410.763 227.1 410.599 227.053 410.506 226.96C410.419 226.867 410.376 226.753 410.376 226.62V226.4C410.376 226.267 410.419 226.153 410.506 226.06C410.599 225.967 410.763 225.92 410.996 225.92C411.229 225.92 411.389 225.967 411.476 226.06C411.569 226.153 411.616 226.267 411.616 226.4V226.62C411.616 226.753 411.569 226.867 411.476 226.96C411.389 227.053 411.229 227.1 410.996 227.1ZM414.842 230V229.27H416.842V223.64H416.772L415.012 225.28L414.522 224.75L416.372 223.02H417.682V229.27H419.522V230H414.842Z" fill="black"/>
<path d="M405 287.12C404.573 287.12 404.207 287.04 403.9 286.88C403.593 286.713 403.34 286.477 403.14 286.17C402.94 285.863 402.793 285.487 402.7 285.04C402.607 284.593 402.56 284.083 402.56 283.51C402.56 282.943 402.607 282.437 402.7 281.99C402.793 281.537 402.94 281.157 403.14 280.85C403.34 280.543 403.593 280.31 403.9 280.15C404.207 279.983 404.573 279.9 405 279.9C405.427 279.9 405.793 279.983 406.1 280.15C406.407 280.31 406.66 280.543 406.86 280.85C407.06 281.157 407.207 281.537 407.3 281.99C407.393 282.437 407.44 282.943 407.44 283.51C407.44 284.083 407.393 284.593 407.3 285.04C407.207 285.487 407.06 285.863 406.86 286.17C406.66 286.477 406.407 286.713 406.1 286.88C405.793 287.04 405.427 287.12 405 287.12ZM405 286.39C405.28 286.39 405.52 286.337 405.72 286.23C405.92 286.117 406.08 285.96 406.2 285.76C406.327 285.56 406.42 285.32 406.48 285.04C406.54 284.753 406.57 284.433 406.57 284.08V282.94C406.57 282.593 406.54 282.277 406.48 281.99C406.42 281.703 406.327 281.46 406.2 281.26C406.08 281.06 405.92 280.907 405.72 280.8C405.52 280.687 405.28 280.63 405 280.63C404.72 280.63 404.48 280.687 404.28 280.8C404.08 280.907 403.917 281.06 403.79 281.26C403.67 281.46 403.58 281.703 403.52 281.99C403.46 282.277 403.43 282.593 403.43 282.94V284.08C403.43 284.433 403.46 284.753 403.52 285.04C403.58 285.32 403.67 285.56 403.79 285.76C403.917 285.96 404.08 286.117 404.28 286.23C404.48 286.337 404.72 286.39 405 286.39ZM405 284.1C404.767 284.1 404.603 284.053 404.51 283.96C404.423 283.867 404.38 283.753 404.38 283.62V283.4C404.38 283.267 404.423 283.153 404.51 283.06C404.603 282.967 404.767 282.92 405 282.92C405.233 282.92 405.393 282.967 405.48 283.06C405.573 283.153 405.62 283.267 405.62 283.4V283.62C405.62 283.753 405.573 283.867 405.48 283.96C405.393 284.053 405.233 284.1 405 284.1ZM410.996 287.12C410.569 287.12 410.203 287.04 409.896 286.88C409.589 286.713 409.336 286.477 409.136 286.17C408.936 285.863 408.789 285.487 408.696 285.04C408.603 284.593 408.556 284.083 408.556 283.51C408.556 282.943 408.603 282.437 408.696 281.99C408.789 281.537 408.936 281.157 409.136 280.85C409.336 280.543 409.589 280.31 409.896 280.15C410.203 279.983 410.569 279.9 410.996 279.9C411.423 279.9 411.789 279.983 412.096 280.15C412.403 280.31 412.656 280.543 412.856 280.85C413.056 281.157 413.203 281.537 413.296 281.99C413.389 282.437 413.436 282.943 413.436 283.51C413.436 284.083 413.389 284.593 413.296 285.04C413.203 285.487 413.056 285.863 412.856 286.17C412.656 286.477 412.403 286.713 412.096 286.88C411.789 287.04 411.423 287.12 410.996 287.12ZM410.996 286.39C411.276 286.39 411.516 286.337 411.716 286.23C411.916 286.117 412.076 285.96 412.196 285.76C412.323 285.56 412.416 285.32 412.476 285.04C412.536 284.753 412.566 284.433 412.566 284.08V282.94C412.566 282.593 412.536 282.277 412.476 281.99C412.416 281.703 412.323 281.46 412.196 281.26C412.076 281.06 411.916 280.907 411.716 280.8C411.516 280.687 411.276 280.63 410.996 280.63C410.716 280.63 410.476 280.687 410.276 280.8C410.076 280.907 409.913 281.06 409.786 281.26C409.666 281.46 409.576 281.703 409.516 281.99C409.456 282.277 409.426 282.593 409.426 282.94V284.08C409.426 284.433 409.456 284.753 409.516 285.04C409.576 285.32 409.666 285.56 409.786 285.76C409.913 285.96 410.076 286.117 410.276 286.23C410.476 286.337 410.716 286.39 410.996 286.39ZM410.996 284.1C410.763 284.1 410.599 284.053 410.506 283.96C410.419 283.867 410.376 283.753 410.376 283.62V283.4C410.376 283.267 410.419 283.153 410.506 283.06C410.599 282.967 410.763 282.92 410.996 282.92C411.229 282.92 411.389 282.967 411.476 283.06C411.569 283.153 411.616 283.267 411.616 283.4V283.62C411.616 283.753 411.569 283.867 411.476 283.96C411.389 284.053 411.229 284.1 410.996 284.1ZM416.992 287.12C416.566 287.12 416.199 287.04 415.892 286.88C415.586 286.713 415.332 286.477 415.132 286.17C414.932 285.863 414.786 285.487 414.692 285.04C414.599 284.593 414.552 284.083 414.552 283.51C414.552 282.943 414.599 282.437 414.692 281.99C414.786 281.537 414.932 281.157 415.132 280.85C415.332 280.543 415.586 280.31 415.892 280.15C416.199 279.983 416.566 279.9 416.992 279.9C417.419 279.9 417.786 279.983 418.092 280.15C418.399 280.31 418.652 280.543 418.852 280.85C419.052 281.157 419.199 281.537 419.292 281.99C419.386 282.437 419.432 282.943 419.432 283.51C419.432 284.083 419.386 284.593 419.292 285.04C419.199 285.487 419.052 285.863 418.852 286.17C418.652 286.477 418.399 286.713 418.092 286.88C417.786 287.04 417.419 287.12 416.992 287.12ZM416.992 286.39C417.272 286.39 417.512 286.337 417.712 286.23C417.912 286.117 418.072 285.96 418.192 285.76C418.319 285.56 418.412 285.32 418.472 285.04C418.532 284.753 418.562 284.433 418.562 284.08V282.94C418.562 282.593 418.532 282.277 418.472 281.99C418.412 281.703 418.319 281.46 418.192 281.26C418.072 281.06 417.912 280.907 417.712 280.8C417.512 280.687 417.272 280.63 416.992 280.63C416.712 280.63 416.472 280.687 416.272 280.8C416.072 280.907 415.909 281.06 415.782 281.26C415.662 281.46 415.572 281.703 415.512 281.99C415.452 282.277 415.422 282.593 415.422 282.94V284.08C415.422 284.433 415.452 284.753 415.512 285.04C415.572 285.32 415.662 285.56 415.782 285.76C415.909 285.96 416.072 286.117 416.272 286.23C416.472 286.337 416.712 286.39 416.992 286.39ZM416.992 284.1C416.759 284.1 416.596 284.053 416.502 283.96C416.416 283.867 416.372 283.753 416.372 283.62V283.4C416.372 283.267 416.416 283.153 416.502 283.06C416.596 282.967 416.759 282.92 416.992 282.92C417.226 282.92 417.386 282.967 417.472 283.06C417.566 283.153 417.612 283.267 417.612 283.4V283.62C417.612 283.753 417.566 283.867 417.472 283.96C417.386 284.053 417.226 284.1 416.992 284.1Z" fill="black"/>
<path d="M296 233.12C295.573 233.12 295.207 233.04 294.9 232.88C294.593 232.713 294.34 232.477 294.14 232.17C293.94 231.863 293.793 231.487 293.7 231.04C293.607 230.593 293.56 230.083 293.56 229.51C293.56 228.943 293.607 228.437 293.7 227.99C293.793 227.537 293.94 227.157 294.14 226.85C294.34 226.543 294.593 226.31 294.9 226.15C295.207 225.983 295.573 225.9 296 225.9C296.427 225.9 296.793 225.983 297.1 226.15C297.407 226.31 297.66 226.543 297.86 226.85C298.06 227.157 298.207 227.537 298.3 227.99C298.393 228.437 298.44 228.943 298.44 229.51C298.44 230.083 298.393 230.593 298.3 231.04C298.207 231.487 298.06 231.863 297.86 232.17C297.66 232.477 297.407 232.713 297.1 232.88C296.793 233.04 296.427 233.12 296 233.12ZM296 232.39C296.28 232.39 296.52 232.337 296.72 232.23C296.92 232.117 297.08 231.96 297.2 231.76C297.327 231.56 297.42 231.32 297.48 231.04C297.54 230.753 297.57 230.433 297.57 230.08V228.94C297.57 228.593 297.54 228.277 297.48 227.99C297.42 227.703 297.327 227.46 297.2 227.26C297.08 227.06 296.92 226.907 296.72 226.8C296.52 226.687 296.28 226.63 296 226.63C295.72 226.63 295.48 226.687 295.28 226.8C295.08 226.907 294.917 227.06 294.79 227.26C294.67 227.46 294.58 227.703 294.52 227.99C294.46 228.277 294.43 228.593 294.43 228.94V230.08C294.43 230.433 294.46 230.753 294.52 231.04C294.58 231.32 294.67 231.56 294.79 231.76C294.917 231.96 295.08 232.117 295.28 232.23C295.48 232.337 295.72 232.39 296 232.39ZM296 230.1C295.767 230.1 295.603 230.053 295.51 229.96C295.423 229.867 295.38 229.753 295.38 229.62V229.4C295.38 229.267 295.423 229.153 295.51 229.06C295.603 228.967 295.767 228.92 296 228.92C296.233 228.92 296.393 228.967 296.48 229.06C296.573 229.153 296.62 229.267 296.62 229.4V229.62C296.62 229.753 296.573 229.867 296.48 229.96C296.393 230.053 296.233 230.1 296 230.1Z" fill="black"/>
<path d="M296 92.12C295.573 92.12 295.207 92.04 294.9 91.88C294.593 91.7133 294.34 91.4767 294.14 91.17C293.94 90.8633 293.793 90.4867 293.7 90.04C293.607 89.5933 293.56 89.0833 293.56 88.51C293.56 87.9433 293.607 87.4367 293.7 86.99C293.793 86.5367 293.94 86.1567 294.14 85.85C294.34 85.5433 294.593 85.31 294.9 85.15C295.207 84.9833 295.573 84.9 296 84.9C296.427 84.9 296.793 84.9833 297.1 85.15C297.407 85.31 297.66 85.5433 297.86 85.85C298.06 86.1567 298.207 86.5367 298.3 86.99C298.393 87.4367 298.44 87.9433 298.44 88.51C298.44 89.0833 298.393 89.5933 298.3 90.04C298.207 90.4867 298.06 90.8633 297.86 91.17C297.66 91.4767 297.407 91.7133 297.1 91.88C296.793 92.04 296.427 92.12 296 92.12ZM296 91.39C296.28 91.39 296.52 91.3367 296.72 91.23C296.92 91.1167 297.08 90.96 297.2 90.76C297.327 90.56 297.42 90.32 297.48 90.04C297.54 89.7533 297.57 89.4333 297.57 89.08V87.94C297.57 87.5933 297.54 87.2767 297.48 86.99C297.42 86.7033 297.327 86.46 297.2 86.26C297.08 86.06 296.92 85.9067 296.72 85.8C296.52 85.6867 296.28 85.63 296 85.63C295.72 85.63 295.48 85.6867 295.28 85.8C295.08 85.9067 294.917 86.06 294.79 86.26C294.67 86.46 294.58 86.7033 294.52 86.99C294.46 87.2767 294.43 87.5933 294.43 87.94V89.08C294.43 89.4333 294.46 89.7533 294.52 90.04C294.58 90.32 294.67 90.56 294.79 90.76C294.917 90.96 295.08 91.1167 295.28 91.23C295.48 91.3367 295.72 91.39 296 91.39ZM296 89.1C295.767 89.1 295.603 89.0533 295.51 88.96C295.423 88.8667 295.38 88.7533 295.38 88.62V88.4C295.38 88.2667 295.423 88.1533 295.51 88.06C295.603 87.9667 295.767 87.92 296 87.92C296.233 87.92 296.393 87.9667 296.48 88.06C296.573 88.1533 296.62 88.2667 296.62 88.4V88.62C296.62 88.7533 296.573 88.8667 296.48 88.96C296.393 89.0533 296.233 89.1 296 89.1Z" fill="black"/>
<path d="M363 195.12C362.067 195.12 361.377 194.803 360.93 194.17C360.49 193.537 360.27 192.65 360.27 191.51C360.27 190.37 360.49 189.483 360.93 188.85C361.377 188.217 362.067 187.9 363 187.9C363.933 187.9 364.62 188.217 365.06 188.85C365.507 189.483 365.73 190.37 365.73 191.51C365.73 192.65 365.507 193.537 365.06 194.17C364.62 194.803 363.933 195.12 363 195.12ZM363 193.94C363.447 193.94 363.757 193.783 363.93 193.47C364.11 193.157 364.2 192.72 364.2 192.16V190.86C364.2 190.3 364.11 189.863 363.93 189.55C363.757 189.237 363.447 189.08 363 189.08C362.553 189.08 362.24 189.237 362.06 189.55C361.887 189.863 361.8 190.3 361.8 190.86V192.16C361.8 192.72 361.887 193.157 362.06 193.47C362.24 193.783 362.553 193.94 363 193.94ZM363 192.1C362.767 192.1 362.603 192.053 362.51 191.96C362.423 191.867 362.38 191.753 362.38 191.62V191.4C362.38 191.267 362.423 191.153 362.51 191.06C362.603 190.967 362.767 190.92 363 190.92C363.233 190.92 363.393 190.967 363.48 191.06C363.573 191.153 363.62 191.267 363.62 191.4V191.62C363.62 191.753 363.573 191.867 363.48 191.96C363.393 192.053 363.233 192.1 363 192.1Z" fill="#5158F6"/>
<path d="M363 266.12C362.573 266.12 362.207 266.04 361.9 265.88C361.593 265.713 361.34 265.477 361.14 265.17C360.94 264.863 360.793 264.487 360.7 264.04C360.607 263.593 360.56 263.083 360.56 262.51C360.56 261.943 360.607 261.437 360.7 260.99C360.793 260.537 360.94 260.157 361.14 259.85C361.34 259.543 361.593 259.31 361.9 259.15C362.207 258.983 362.573 258.9 363 258.9C363.427 258.9 363.793 258.983 364.1 259.15C364.407 259.31 364.66 259.543 364.86 259.85C365.06 260.157 365.207 260.537 365.3 260.99C365.393 261.437 365.44 261.943 365.44 262.51C365.44 263.083 365.393 263.593 365.3 264.04C365.207 264.487 365.06 264.863 364.86 265.17C364.66 265.477 364.407 265.713 364.1 265.88C363.793 266.04 363.427 266.12 363 266.12ZM363 265.39C363.28 265.39 363.52 265.337 363.72 265.23C363.92 265.117 364.08 264.96 364.2 264.76C364.327 264.56 364.42 264.32 364.48 264.04C364.54 263.753 364.57 263.433 364.57 263.08V261.94C364.57 261.593 364.54 261.277 364.48 260.99C364.42 260.703 364.327 260.46 364.2 260.26C364.08 260.06 363.92 259.907 363.72 259.8C363.52 259.687 363.28 259.63 363 259.63C362.72 259.63 362.48 259.687 362.28 259.8C362.08 259.907 361.917 260.06 361.79 260.26C361.67 260.46 361.58 260.703 361.52 260.99C361.46 261.277 361.43 261.593 361.43 261.94V263.08C361.43 263.433 361.46 263.753 361.52 264.04C361.58 264.32 361.67 264.56 361.79 264.76C361.917 264.96 362.08 265.117 362.28 265.23C362.48 265.337 362.72 265.39 363 265.39ZM363 263.1C362.767 263.1 362.603 263.053 362.51 262.96C362.423 262.867 362.38 262.753 362.38 262.62V262.4C362.38 262.267 362.423 262.153 362.51 262.06C362.603 261.967 362.767 261.92 363 261.92C363.233 261.92 363.393 261.967 363.48 262.06C363.573 262.153 363.62 262.267 363.62 262.4V262.62C363.62 262.753 363.573 262.867 363.48 262.96C363.393 263.053 363.233 263.1 363 263.1Z" fill="black"/>
<path d="M360.85 161V160.27H362.85V154.64H362.78L361.02 156.28L360.53 155.75L362.38 154.02H363.69V160.27H365.53V161H360.85Z" fill="black"/>
<path d="M363 55.12C362.573 55.12 362.207 55.04 361.9 54.88C361.593 54.7133 361.34 54.4767 361.14 54.17C360.94 53.8633 360.793 53.4867 360.7 53.04C360.607 52.5933 360.56 52.0833 360.56 51.51C360.56 50.9433 360.607 50.4367 360.7 49.99C360.793 49.5367 360.94 49.1567 361.14 48.85C361.34 48.5433 361.593 48.31 361.9 48.15C362.207 47.9833 362.573 47.9 363 47.9C363.427 47.9 363.793 47.9833 364.1 48.15C364.407 48.31 364.66 48.5433 364.86 48.85C365.06 49.1567 365.207 49.5367 365.3 49.99C365.393 50.4367 365.44 50.9433 365.44 51.51C365.44 52.0833 365.393 52.5933 365.3 53.04C365.207 53.4867 365.06 53.8633 364.86 54.17C364.66 54.4767 364.407 54.7133 364.1 54.88C363.793 55.04 363.427 55.12 363 55.12ZM363 54.39C363.28 54.39 363.52 54.3367 363.72 54.23C363.92 54.1167 364.08 53.96 364.2 53.76C364.327 53.56 364.42 53.32 364.48 53.04C364.54 52.7533 364.57 52.4333 364.57 52.08V50.94C364.57 50.5933 364.54 50.2767 364.48 49.99C364.42 49.7033 364.327 49.46 364.2 49.26C364.08 49.06 363.92 48.9067 363.72 48.8C363.52 48.6867 363.28 48.63 363 48.63C362.72 48.63 362.48 48.6867 362.28 48.8C362.08 48.9067 361.917 49.06 361.79 49.26C361.67 49.46 361.58 49.7033 361.52 49.99C361.46 50.2767 361.43 50.5933 361.43 50.94V52.08C361.43 52.4333 361.46 52.7533 361.52 53.04C361.58 53.32 361.67 53.56 361.79 53.76C361.917 53.96 362.08 54.1167 362.28 54.23C362.48 54.3367 362.72 54.39 363 54.39ZM363 52.1C362.767 52.1 362.603 52.0533 362.51 51.96C362.423 51.8667 362.38 51.7533 362.38 51.62V51.4C362.38 51.2667 362.423 51.1533 362.51 51.06C362.603 50.9667 362.767 50.92 363 50.92C363.233 50.92 363.393 50.9667 363.48 51.06C363.573 51.1533 363.62 51.2667 363.62 51.4V51.62C363.62 51.7533 363.573 51.8667 363.48 51.96C363.393 52.0533 363.233 52.1 363 52.1Z" fill="black"/>
<path d="M360.85 232V231.27H362.85V225.64H362.78L361.02 227.28L360.53 226.75L362.38 225.02H363.69V231.27H365.53V232H360.85Z" fill="black"/>
<path d="M363 126.12C362.573 126.12 362.207 126.04 361.9 125.88C361.593 125.713 361.34 125.477 361.14 125.17C360.94 124.863 360.793 124.487 360.7 124.04C360.607 123.593 360.56 123.083 360.56 122.51C360.56 121.943 360.607 121.437 360.7 120.99C360.793 120.537 360.94 120.157 361.14 119.85C361.34 119.543 361.593 119.31 361.9 119.15C362.207 118.983 362.573 118.9 363 118.9C363.427 118.9 363.793 118.983 364.1 119.15C364.407 119.31 364.66 119.543 364.86 119.85C365.06 120.157 365.207 120.537 365.3 120.99C365.393 121.437 365.44 121.943 365.44 122.51C365.44 123.083 365.393 123.593 365.3 124.04C365.207 124.487 365.06 124.863 364.86 125.17C364.66 125.477 364.407 125.713 364.1 125.88C363.793 126.04 363.427 126.12 363 126.12ZM363 125.39C363.28 125.39 363.52 125.337 363.72 125.23C363.92 125.117 364.08 124.96 364.2 124.76C364.327 124.56 364.42 124.32 364.48 124.04C364.54 123.753 364.57 123.433 364.57 123.08V121.94C364.57 121.593 364.54 121.277 364.48 120.99C364.42 120.703 364.327 120.46 364.2 120.26C364.08 120.06 363.92 119.907 363.72 119.8C363.52 119.687 363.28 119.63 363 119.63C362.72 119.63 362.48 119.687 362.28 119.8C362.08 119.907 361.917 120.06 361.79 120.26C361.67 120.46 361.58 120.703 361.52 120.99C361.46 121.277 361.43 121.593 361.43 121.94V123.08C361.43 123.433 361.46 123.753 361.52 124.04C361.58 124.32 361.67 124.56 361.79 124.76C361.917 124.96 362.08 125.117 362.28 125.23C362.48 125.337 362.72 125.39 363 125.39ZM363 123.1C362.767 123.1 362.603 123.053 362.51 122.96C362.423 122.867 362.38 122.753 362.38 122.62V122.4C362.38 122.267 362.423 122.153 362.51 122.06C362.603 121.967 362.767 121.92 363 121.92C363.233 121.92 363.393 121.967 363.48 122.06C363.573 122.153 363.62 122.267 363.62 122.4V122.62C363.62 122.753 363.573 122.867 363.48 122.96C363.393 123.053 363.233 123.1 363 123.1Z" fill="black"/>
<path d="M293.94 194V192.79H295.82V188.11H295.73L294.31 189.97L293.35 189.22L295.02 187.02H297.32V192.79H298.8V194H293.94Z" fill="#5158F6"/>
<path d="M360.85 23V22.27H362.85V16.64H362.78L361.02 18.28L360.53 17.75L362.38 16.02H363.69V22.27H365.53V23H360.85Z" fill="black"/>
<path d="M293.85 53V52.27H295.85V46.64H295.78L294.02 48.28L293.53 47.75L295.38 46.02H296.69V52.27H298.53V53H293.85Z" fill="black"/>
<path d="M360.85 92V91.27H362.85V85.64H362.78L361.02 87.28L360.53 86.75L362.38 85.02H363.69V91.27H365.53V92H360.85Z" fill="black"/>
</svg>
