<svg width="640" height="300" viewBox="0 0 640 300" fill="none" xmlns="http://www.w3.org/2000/svg">
<path d="M550.411 124.519C531.613 135.278 510.084 144.236 487.063 148.17C456.288 153.429 428.799 145.521 401.911 134.132M560.911 136.928C540.09 149.163 515.908 159.473 489.758 163.942C452.842 170.25 420.522 159.765 391.411 147.037" stroke="black" stroke-linecap="round" stroke-linejoin="round"/>
<path d="M81.8214 161.004C117.259 156.943 146.541 165.055 174.411 175.839M80 145.108C121.447 140.359 155.247 150.892 185.503 163M557.911 84.2638C548.298 77.6335 538.625 71.5504 529.08 66.463C509.005 55.7629 488.255 48.7814 469.221 51.6449C452.587 54.1473 438.98 64.0034 427.012 76.3058C416.688 86.9195 406.895 100.106 397.085 113.318C395.579 115.345 394.073 117.374 392.564 119.393C369.329 150.499 344.87 180.3 308.016 189.284C270.918 198.326 240.028 185.793 204.51 170.868C204.058 170.678 203.605 170.488 203.152 170.297C202.573 170.054 201.992 169.81 201.411 169.566M548.411 97.1482C539.346 90.9114 530.345 85.2681 521.554 80.5827C502.387 70.3665 485.447 65.3838 471.601 67.4669C459.984 69.2145 449.404 76.2334 438.481 87.4623C428.96 97.2496 419.882 109.467 409.994 122.773C408.477 124.814 406.942 126.881 405.383 128.969C382.492 159.613 354.951 194.312 311.805 204.829C268.908 215.285 233.302 200.323 198.324 185.624L197.932 185.459C195.26 184.337 192.588 183.214 189.911 182.099" stroke="black" stroke-linecap="round" stroke-linejoin="round"/>
<path d="M376.071 140C372.562 138.375 372.304 138.303 368.902 136.703C356.434 130.842 344.597 125.276 332.758 120.94C317.814 115.467 303.577 112.242 289.361 113.043C273.673 113.927 258.217 120.808 242.64 131.966C227.055 143.129 211.863 158.197 196.749 174.708C189.211 182.942 181.767 191.452 174.332 199.952L174.263 200.03C166.874 208.478 159.488 216.922 152.143 224.932C137.479 240.923 122.558 255.661 107.322 265.73M98.5 252.382C112.014 243.451 125.842 229.939 140.35 214.118C147.569 206.246 154.852 197.92 162.289 189.418C169.703 180.941 177.267 172.295 184.947 163.904C200.271 147.165 216.36 131.108 233.323 118.958C250.292 106.804 268.648 98.1848 288.461 97.0686C305.695 96.0977 322.245 100.05 338.261 105.916C350.832 110.521 363.513 116.485 376.071 122.391C379.386 123.95 382.692 125.505 385.985 127.03" stroke="black" stroke-linecap="round" stroke-linejoin="round"/>
<path d="M256.264 192.352C256.929 195.032 255.295 197.744 252.615 198.409C249.935 199.074 247.223 197.44 246.558 194.76L232.911 139.757L241.537 133L256.264 192.352Z" fill="white" stroke="black" stroke-linecap="round" stroke-linejoin="round"/>
<path d="M132.77 155.058C135.53 154.98 137.831 157.155 137.909 159.915L139.46 215L129.752 225.5L127.913 160.197C127.835 157.436 130.01 155.136 132.77 155.058Z" fill="white" stroke="black" stroke-linecap="round" stroke-linejoin="round"/>
<path d="M334.941 110.46C337.479 109.372 340.418 110.548 341.506 113.086L360.623 157.693L352.875 165L332.315 117.025C331.227 114.487 332.403 111.548 334.941 110.46Z" fill="white" stroke="black" stroke-linecap="round" stroke-linejoin="round"/>
<path d="M448.909 77.9171L450.909 149.917C450.985 152.677 448.81 154.977 446.05 155.054C443.289 155.131 440.989 152.955 440.913 150.195L439.157 87.0001L448.909 77.9171Z" fill="white" stroke="black" stroke-linecap="round" stroke-linejoin="round"/>
<path fill-rule="evenodd" clip-rule="evenodd" d="M283.754 106.692C286.441 106.053 289.136 107.713 289.775 110.399L309.275 192.399C309.914 195.086 308.254 197.781 305.568 198.42C302.881 199.059 300.185 197.399 299.546 194.713L280.046 112.713C279.408 110.026 281.068 107.33 283.754 106.692Z" fill="white" stroke="black" stroke-linecap="round" stroke-linejoin="round"/>
<path d="M484.073 61.4056C486.642 60.391 489.546 61.6505 490.561 64.2188L520.104 139L510.735 142.5L481.26 67.893C480.246 65.3248 481.505 62.4203 484.073 61.4056Z" fill="white" stroke="black" stroke-linecap="round" stroke-linejoin="round"/>
</svg>
